<mxfile host="Electron" agent="Mozilla/5.0 (X11; Linux x86_64) AppleWebKit/537.36 (KHTML, like Gecko) draw.io/25.0.1 Chrome/128.0.6613.186 Electron/32.2.6 Safari/537.36" version="25.0.1">
  <diagram name="Page-1" id="ReHPZ0w7UNWxkFHxt1Or">
    <mxGraphModel dx="2074" dy="1230" grid="1" gridSize="10" guides="1" tooltips="1" connect="1" arrows="1" fold="1" page="1" pageScale="1" pageWidth="850" pageHeight="1100" math="0" shadow="0">
      <root>
        <mxCell id="0" />
        <mxCell id="1" parent="0" />
        <mxCell id="-1TIiJjCLm1lCNn5xvPm-90" value="" style="endArrow=classic;html=1;rounded=0;exitX=0.99;exitY=0.68;exitDx=0;exitDy=0;exitPerimeter=0;dashed=1;" parent="1" edge="1">
          <mxGeometry width="50" height="50" relative="1" as="geometry">
            <mxPoint x="384.97609999999986" y="308" as="sourcePoint" />
            <mxPoint x="470" y="308" as="targetPoint" />
          </mxGeometry>
        </mxCell>
        <mxCell id="-1TIiJjCLm1lCNn5xvPm-91" value="" style="endArrow=classic;html=1;rounded=0;entryX=0.5;entryY=0;entryDx=0;entryDy=0;dashed=1;" parent="1" edge="1">
          <mxGeometry width="50" height="50" relative="1" as="geometry">
            <mxPoint x="130" y="370" as="sourcePoint" />
            <mxPoint x="130.69500000000016" y="450" as="targetPoint" />
          </mxGeometry>
        </mxCell>
        <mxCell id="rh1XRBT-aMwfdlD4D-t0-8" value="" style="group" vertex="1" connectable="0" parent="1">
          <mxGeometry x="90" y="70" width="290" height="310" as="geometry" />
        </mxCell>
        <mxCell id="-1TIiJjCLm1lCNn5xvPm-61" value="Virtual lab 1" style="rounded=1;whiteSpace=wrap;html=1;" parent="rh1XRBT-aMwfdlD4D-t0-8" vertex="1">
          <mxGeometry width="290" height="310" as="geometry" />
        </mxCell>
        <mxCell id="-1TIiJjCLm1lCNn5xvPm-58" value="" style="endArrow=classic;html=1;rounded=0;exitX=0.997;exitY=0.42;exitDx=0;exitDy=0;exitPerimeter=0;jumpSize=0;endSize=6;" parent="rh1XRBT-aMwfdlD4D-t0-8" edge="1">
          <mxGeometry width="50" height="50" relative="1" as="geometry">
            <mxPoint x="127.99913813888898" y="62" as="sourcePoint" />
            <mxPoint x="164.80833333333334" y="62" as="targetPoint" />
          </mxGeometry>
        </mxCell>
        <mxCell id="-1TIiJjCLm1lCNn5xvPm-59" value="" style="endArrow=classic;html=1;rounded=0;exitX=0.25;exitY=1;exitDx=0;exitDy=0;entryX=0.25;entryY=0;entryDx=0;entryDy=0;" parent="rh1XRBT-aMwfdlD4D-t0-8" edge="1">
          <mxGeometry width="50" height="50" relative="1" as="geometry">
            <mxPoint x="200.0667291666665" y="120" as="sourcePoint" />
            <mxPoint x="200.0667291666665" y="170" as="targetPoint" />
          </mxGeometry>
        </mxCell>
        <mxCell id="-1TIiJjCLm1lCNn5xvPm-60" value="" style="endArrow=classic;html=1;rounded=0;entryX=1;entryY=0.5;entryDx=0;entryDy=0;" parent="rh1XRBT-aMwfdlD4D-t0-8" edge="1">
          <mxGeometry width="50" height="50" relative="1" as="geometry">
            <mxPoint x="163.88888888888889" y="220" as="sourcePoint" />
            <mxPoint x="119.19469444444431" y="220" as="targetPoint" />
          </mxGeometry>
        </mxCell>
        <mxCell id="rh1XRBT-aMwfdlD4D-t0-7" value="Core development" style="shape=image;verticalLabelPosition=bottom;labelBackgroundColor=default;verticalAlign=top;aspect=fixed;imageAspect=0;image=data:image/png,iVBORw0KGgoAAAANSUhEUgAAAGQAAABkCAYAAABw4pVUAAAABHNCSVQICAgIfAhkiAAAGMVJREFUeJztXXmYFNW1P7V39VrdPfu+MAPDPqADAuKwqQQ0QwwYt7h8GJfEGM1LfGry9BkNKBj08SVucSEmQaIY3CXuIgiIbCLIIoOzL/T0vlfVfX/MdFFV3TPT3VM9AyS/76tv5lbdOvfce/rc5dxzT2FwFmDUwt9UNjQfOK8o7JpXHHCWGoRwoTkSsnN8kAWE6VkhAmY+FAkQDB8iSL+fpLqbddb9pUHnsxPcbR9iAOJI1+GMxx6uqP69nOqNeyyFXX6CRgggrauDMfrfyhv39sM186ePdJ3OOCAA6u28sU+0sBZnugLo7wrjBNpYOKn1urprlo50Pc8IrCut+9UJvS2itSDUVxAn0Yai2ubLpy//wUjUExuJQlPB6pq5ped1Nb47w9E4pr883YyxDUfoY3vEvxUAjgCAAwBcAOAFAHNfNgsAFABALgAU+0hmFoHE6awQNSaiGSQoeKZ8xvFnqs6/8MA7D36raaXOVKwcs+CmFpaLJvolOyjWc8Cc/xgCqBhKGQhgrJdk1nhJ2puonK/Nefzvx1x0o1Z1OmPxdPnMj8I4EddAPZTeiQCuRACkluUhALKLMdzuIZk4wUQxHH2QU/2+1mWeEUAAps9tZSfi+naCFPo0gslw+UYXyaziMVxQ87CHK2q+d9LSwkyWf1oBAYzuZIzd6oZo1NuaEMCoYeZlmoti43jZZyl0IgD9cPIy7EAADAL4WQQnAuoGaGKtGxAANUJ8mV0Uu13N015zYWumeMrILOvZymlzsgOB5SY+NDsr7DeRSLAAAPhIBoI4xfM47mREobk04GgsDLoJAJgFAFlyGggwOGTO+79xnvbbM8FjskAAdJCgXmSF6DL5/S+spZ/XOb+bMVJ8JYWXi2oX7rSWOETAhrQWEDAM7bSV/m6k6xMDAsA7GNNbaj43Fk76y0jzlhAli1ZY/15yztYohmuyOHs9b/wfR7pOaiAAqofSb1FONChxu63s9DK5LJ+2PPf9nGqtTRm/H+l6JQICMLlJtkPO61Fjdhc6XRbY3z//+rFb7JVxCzcnxfpbWO5RBHA+AshFAEYAAATAIYASBLAYAayK4ETCxVgEw0MIIHuk65cICOCcqGpK/M+CifePNF9QN+9u+xZ7hVvdmJ0609MIwJAMDQRgQQB/EBMIZZut4u1M1yFdtLPmPymn5XbfiGvJS8VTjqoGYtHBGO5IhxYCuCzaqxUSvQBBi+sq6qq15lsLIACzn6B9cn4frl6wesQYWlt5wW0CFjeT+sVQaCKACwUMU1hzNxRNOaoVz1oDAdwp53WnrbRjpBjBDpgLVL9m6iWNaN8op+slGTSv/vbFWtDWGgjAECAof4zXKIaj+8ddVDfsjDxZPut38kYL4aRPywE4RJDvyOk/XT5zl1a0tUY7a14r5/WVosmbhp2J7fGGv3u1pI8AqgQMk2YxxwxZvJb0tQQCKBNki+DdXJFv2JnoofV8jAEew3nUu+GjKToY05tyoa8cs+AmrcvQCq0682F5t7V8yhUTh0IPTyUzAqi0RgJELN1NGw5iAJ1DYSARcsPep+Tpca6272tdhlbgMULqpkgkwqKOr5cMhV5KAtnNFSu6Jy/Dbh1K4QPg/TBOSq45FYGeygyVM2SUBJ0fytNZEf8lw1IwAijgMVxtHp+fqfI+zaqU9iK+MeY2ZaqcoQIBVKqsFF40hJ3FpDQEARAAsI5AIhu7J2A4AMCOdAseDC8VTX0xivf2jtuyyrdlqpyhAAGYQPWj5KJBIwBcnumCV6hNG2/njUWZLJNrWMPdP/Z7K54sn/VHrmENl8myksGz5TN++Zm9YleT3trUQ7F+HsPFRHa4vqsJARRlhJEjxux71bYmHsPRopk3tWekwNMQ64vO2ThA4ye8eii9Y5ut9AZNGXmu7Lwn1SYSETD0QmndO5oWdJpju63sm1QFErv2WQpd7+eN/uGQmbhr/CWvR1RuOC6Kjb5RMO5nGtTxjMJ1U6+asHL0/LYPsqujbTpT0E/QfCpCEQFD7+aNOZy2x8p9NQtXBnFSQbRJb21GAP8+LjCDAAFgCCAbAdQggFkIYKmLZB5p0lu/iuBEQoGd0NuDj1TNvyylgh4bdcFSH8koBiw3pduF+jaZ/oPBgQDMHlr/UBAnQ2qhuCmduKpqbnLmpnsnLS08ZshS7IZ1M4YT/xFGekAAti7asE49KfKRNHqqYtaVgxJ4I3+8Q/6il2ScCCBfSyaXnn/92OfLpq3fZq/48luDvbFTZ+ps15nbW1iu9bjefuIrc/6hHbayPV/YSjYfM+UMyQxxugABNAQJKihv2y7GKNxyzrL+F9arq+b+RjUQiQigXkvGLqz/yZjjBnvSg+FT5bNcWpY/kkAA5T6C7pHXb7utNFg37257osz4MWOW2nNE8y3Jh6sX/DmV2cnT5TMQ1/DIZK35GCkggAkhnFRoyhPlsz6S58EBAD6zl19d6TsprYb9JO0HgAe0ZmiMtyMl/1y9EAEAbMRX6VoBA/iKEfnFIoah2L2rmnfVXz3tWmnmhQMAEAB3y19s01lWYgAerRkqDzhy1PdaWO6DtZX1t902eelV7TqzwnrMClGtWRhxYAAfBAh6bSxt4kNwbeP2P0sZlsy4OSdA0NI0N4STUdRrNNMcx/V2xW5jBCPcSOa0jHr9taTn7+TWIK5hVX0meBlJIABW7XC3prr+pwAA+EzHtz9ghYjkU+Sk2M1Y71EwzcGKEZ087WL0hzEAuRooPDf0Z6GGAABgAEEzH1TYuca52+8CAMDLfF0z5Q/ywt43MsUIK/AKgQQI6qQqiyLNCpFMsXI64F03xbpjiRmOxuIlM27OwS3RsHo3bm+mOGBEXnH6yU2xaoH0yBNnq4YAAGAAooDhknemgY/A7O7DN+E6MVqqytucMSYQUrhbuiidU5VFIYGzXEPAFvFvlqcLg+5FuDkaUvvhZsyVBQek2KEMY3RIlQXJE2ezhvThK3kiL+SuxDEkqu1UgUyVrtaQKEGqVUARc0R/lmsIACjOv5f7HQacQiKhyqROawZMpSEhcmCBnI3rEDkwAHcYP9UGRj7M4mGcFFT5MnbCFEdKl/0QRg0oEEoUwBb1ndVnwzFA0hBh5MOACxiuXpHbMli4QiA+UimQRGGSSgPujJ5LH2kECVqqc4igEH7YlOtX5SkeLmYCZJyGxKEw4NQNludMRhgnZP+TUbxNZ96pyjNsXoJBnBlUINaw/+wWCEFJ42qQoAT8o/zR63js1FjbzFoXDBczAYoa1LOdiwTP6i6rmeUk50MvpevG3/r0ide32U8F1NGJ0XnDxUwAZwadRln5wFmrIVzDirKvzfmSQCJA7McBALbaKySzd3bYl3XUlDss3uZ+WjeoQMx85CzWEJ1rN1e0MTb5nORpfbL3n/n3XNRD6+Ved85MmODVO4JXTLshziVGnWd98ZR7tObjdMOrhZNuvmPikhcUN18oqWuSN4SfoJ/XumB1Yy+afculg+V5vWDC/2rNx+kMadG1saj2tiXt+zeZo73mJb0QuQ4BbMMAnslU4Q5SP2iXRfO8pmPInZMuqy0MuO4tCLkm5oc8nDEaIg1CmNQLPM4IUcIgRBQLUQMfIdTrJzUCBM2L2KksUYwQQwQl+ElKiOKEGMBpwUWz0Q7GHHYy+vYITnzWach99JE9L7UNyOxfSs7dKv918r1n/TQ7A6L+9Vctui+OtjrPJ9mVj2lUNv1hTvX7ao/MkbqcFOtHCTzkFbal9aXTG74yF0hrAwIhPIITryGAcVo0irKBMHASerXZJg6MIAxZQxAAe8iU+92criPzdOLpcYaUiwb1e7miF9X3FQJ5Z8va7teKJy71k7R0jxYFfRgntyMATc9gR3ACeBxH6vs8hiu6MQHwsUMta0vWqHdrvJ15Q6WjNcr8juTiba2oXrBaHYAyghPR7jRDZwAAfJQ96i45PR/JiIkO4vTFVZTyhXECvVQ89cJ0y71i2vJcuRMHAkBuSncIAfwPArgcAcxHAFNRr9N0CQKwyi5LuuUmAgKY4CWZsGw2m7w5+6myGX9KFP+qS2faiQBS+tUiAEMnY1Q4Hh8x5hzoJy/5nd7Wqcyb3YPS3BZYPXrBzXJajQbbXjQCgWIQwOggQSmC9awvntqdEpHHR9Xf56LYuKNbAoaJLazlSwRwDUrCOrzdVvqy6lcvogGCWn5pLT4/qjoy9mF21QspMd+Hh0ZftEFOp4nlhj1IDErgRhokKHRj7ZU/SpnYc6V1c/dbCvxqoUiEcTLyROXMtVzDirJE77+XPbY2hJOKxt3PFcYNZmrs4JRCDBKU+EFWzZRU+X+0eu5+Fc/XpEpjKEAAeR5S16lut2fKZ6QfMgQB4H8um/5WF2NMeNBxp7WE7+9g5gFz/mF53i7aEEBJxNNCALpWHacIcPaVOb871e5mnWrBiwDiFqOZRJPeekDdXvt6o5qmFCMgIZZPW577p4pZrx8z2BVhlD7Nqvhrovxb7WXXqZnZYy24VZ7HdsmKx18or/txooY+bM5bqD7j+GFO9R9S4fm1/PHtKh7mplbr9PHbsZc8pK6/h9QFEUC/M760BjcEgL1aNPlGfTR0K4OE8Jyuo/UYQFCVh27TWRwFIbfkRHHUkN1Y7e+WTMv2xSuWPLlnw6s/bN0L2+zlhxad//MZrk13KI4gHDDnvzPO035xLO0nGfHDrDETL+3Y93UyvP4rd3Tngs7Dcp/iOgzgCwAA06UPj070jvf1uw4nQ5trWMOBEJ0k3SCofXL+Hx9VH/z5sY/V66hFGMDwR8vbaSt7Sv7L6BukpdkZ17CGWzNqjnQE4oTeltCPFwGY1TO0fZaCxmT5+CR7lDo6tbTIfb50+l8b9TYUxEkUxEnUqLehW2qXIai/L6l9fK5hVf3FM29BLopFc2bfFsf/G/nj1d17xgItDAgEUBAgaMXRuN1c4WvyPPfXLFwvj+87UFys7bbSG9Sq/3b+2IeS4WWHtbRH9a6kFX2xvhR0HbQ+JYE8VzYdIQC0tnJ2nEC2ZFWqBXLfYDSHPrAkwC5rybusEJFoO2l9pNbVKs1u7px0We0tx7f8COvzi+tmjOitouof90dves93z+23FOyW35t58vivEUDc8QY1WDGqrqOmtpMKX683bJUvfklhjcS5uA3azWoukG/M+RdPdTZPkN9rZyx3y8+bXNq6742c8CkHyXfzxm5+bcvzBweiO9HdttBDndrQMkdD5F6u6MOB3gEAYES+X4FsLKpd76JYB4/hUR7Doy6KdbxcMHk9pBA8hosG+/7G+xfGnsngSJauJkAAxHd6q+LgaN+XDaTJwz8LJt4vf97c+8GWpHYFD5jz71B3MZtzawY055zQ29RrKM3O2nMNq+ob9TaEANBBU15cl+UlGXWXNaEfUhI01ZCPs6tWlwSc0spdwHBw0oarMejtmxCA/YKTx34jf2eXteRBDCCcDP3xnvY1h0y5x+T3pjqbHkYA/R57owbQEC1g4Xv3j0y82k0ZgEBxbmbDpyEIwO6mdIoo17tUXcpWe8WX8ud7LYUpn7JFACV+1YRhl7V4e3/5u2mD+vB+/KnXNME1rKqPaYGTYuM0JMHey6Db4pppyDZbxSZzNCT1vV5SF53qapGCrhy0FCyY3tMomT5EDIPjxqyrUy0HA2g6as5ZJb83xdky7VN7eUJajCj0qyEvlpy7wUmxYg/Fir+c0OC1Llo1PlV+YlpAxmtDokXe8HzAcrutbLraMrzbWiwF1E80tmyzle1JtzwEgH/XOzZJ9NoZUxAliDgRJCh13BHJbBPESWl8cdB6lKpAuIZV9TEt8BN0nIYk+IYW2w8pCZpoiIkPbZD/QlpZy8laZ/NvY+mt9so18rElQNCoxZKVuqWzDxiA2K4zL4viBIrdywt7dVuzKt5S56UG0BCIzbsBAKVpkSf6SODKoy2991DcvUE1ZMgCeTe35vaxno4S+b0AqbseAxAAABBAfq27WWG/2sMV/X1Z466kzBP9YXrPie2HzHkKq/F5jsbZhyz50mYWAiAIJKpbWhLIPwpr3/SRTNhHMuGny2d+mQ4fsUbH4ht/+LssBEC36DhFYMwD5nxFV7SbK94pf97R27UMqrpJls+060yKlXirjvPEptEIQK+eJiMNN6e4hlX1MbpRDI/rshLExx90k21IGvJ23tgXC0MuqXHDOCmO87Q3xNJ7uKL6Se6Wc+XvHLTk3ac2RKYLDCDsoQ1Xy3+bBSGXaSdXGrM+J3KQyMhuoVZdVtpYV1FX7SMZxfRzD1f4gjzPEWN2i/z5N8acjBwoPWjO3SwvJ4rhaDdXPBsB5CfQEM0OAMk1BAEoNAQB4PJnImBJCSNtDRnlPrnewIel9x200TfZ1SqNFe/njPllla9bWhXzGA4uWp/yl5gfqFl4xEMyUQ+pi9xfszDhuFPj6bzcSbHSyoxEImSHva9A4jhfEs/PlU7/W6vOHAzjhBDGCaFVZw7eM/6Sb5I1Lg4CRdsKWHICSQsbCycvUvePLTruuthzBMC06SyKsWWHrWzzACT7hYc8tdh0U/07Z7fouGvV2tCot21OoCFSN6aFtXcADaHlz8I4kdQJ1rQ0ZJSv+6/y/vG4wX6iKOR6IZZ+O2/cuvyQWxpbemg9X9dzYhmkAbkT50BT06KQa10LyykOH5UFehK5D2XEwj1YORnrsl4urv3tRHerZDsSMAwq/A7p+MJTo2ZUznJ8q/wII1f6KAbghjSwqnp+m5tieTfF8quq5rYOlLco6Lo8ghODVVyq84bi2n+0spZwGCfFME6KrawlvHLMhd+lw+dA5QAAoEx0WQiAOGLIUuynHzXmKD5i8nFW1U7l8+H9rJz6IysJLvPgVJLDIF2WSf7MS9JJBfRJSUPWVs7eWOU/KYVT8pN0dJSva3ksva7knPkzHd9K01wRwyBA0FfErL3Dgbyg5y4vyQxktKQHeKYlFG0bxOmkLNpJC2TWvDurl7TtV3yKoV1nfhCTRfCp8p1UmFC22cp3T3K3fpBsGVoAAwiY+PBA38/VTEMGgWKPJ0yQ2gpk+bHPHi8KuqT8HTpT1yjfScmA+Luai+46r+eEZK/yUDpxluP4RcnSTwXri6b+LUDQQT9BBx+rvOADbvHKSaosLwZxal8/r0sm8BdLzt0gp5OOtXcAKAQfIOPiuiREUgL5xdSr87/XcVDRuD5KvxyT2YXmdB+9T/58L1e4FlPFv9IKS9r2fZ8VIjq9ENFd0/xFnJ8VBoBYMfrf/bwuCeSHLXsWD0RniFA4agcJDQUytfvIj7PDPmlgPm7Iaq/ydkqBzm6tXfbszJPHFfap2d3f3q4eUKMYLnhJJnrIlOu+d9ziQ+lGHEWK//udL2yO4MTxBPdPbRKlYO1dXTXnvTadJRDGCck64dz0q48GeEWhIQ5ar92grhfCigM7DkavMHPP6zqclL8siUTcyIfJMd5O8y+OfjQm3YijrxbVbnLQBnDQBnig5uKEeTAARIvCxgSPCmL//KOw9s3B6MTwk8Zt9fkhN0vHm/P7g1WeaGU5dWywhEhqReqkDJQ8TYlI8d68riMpmxpoNOjhqX5xVdPOayDmNL2v74KEPVSj+kaHznwOhDzPAgBc27TzCgC4QknnVwnLRLLQrv0DSbM7D62fZJa5AX2rz0pKIElJ28EYPpGnSwOOC+VGulcKJ6/83F7WcdyQ5XdTbNRHMnwUU56O8pEM7yMZvpm1BnbYSnvuGXfJ1/IKpAYMxV8JUaq+oRP42WnQgWfKZnx80Jzn8ZIM39/i07Xp11J4xBBOKMbcDqP1tfg30kTdvLvt7TqzeoH1U80KyBA8pK5FPY71XRn9RCoCmMBjmHRS4KgxG2n+2aZXCiYr3OpDvZ9iKBn8zZHBq4WTFvcjDOQldd0oxVNgyQIBnOsl6ZPy8p4tPy/pbz0m3fcfsObesKiT2qHri/LGiDyzjyvcxtX/13i1xzrqDYKmdn6zgLKLJCHeLYaF+E0lk4pPDOL9sCiQmdoPmvMLnCHvdf3VxciHsgQM3x/C8TcZgf8XAJyA3il6J8g8LDEARb+PlPwx0OtSlAW9XzudGsWIuQgJ5xj5U4bdAEHDtqyKK6Hx8/7YSR8vFU95T/1r85H0QHajf/sro9/rQgBk3+mfEa9oKpeD1jeFCHKjn6Ajw1lu34ecM2vuRwCWI8acr0e6kZO5uhijuNtatDLWKAgg+4A5/50gQQ30DcIhXyJg6Kgx6xOUhjNH2mbxVwqmjtlrLfh5FMPmsGI0V89HrLZIAGyRAJBIABMfBhwhMPMhwBACS7wnOFj6ng2EIEErwuABAERwEgIkDSGchBBBgZ+gIYKT0KkzgYti27ppY2sEI95au/+VB2PuSHLcOnnp5Aq/87bciGeKLeQrMwgRzhoNAhcNQCzWCwCAiQ9LnokihoGH7B0+BAwHD6UDN8WCm+z966F0J30kc8JP0F/ZBf+K64/vOJp6qwL8P19rN9h5V6VcAAAAAElFTkSuQmCC;" vertex="1" parent="rh1XRBT-aMwfdlD4D-t0-8">
          <mxGeometry x="25.052777777777777" y="10" width="91.94444444444444" height="91.94444444444444" as="geometry" />
        </mxCell>
        <mxCell id="rh1XRBT-aMwfdlD4D-t0-3" value="First user" style="shape=image;verticalLabelPosition=bottom;labelBackgroundColor=default;verticalAlign=top;aspect=fixed;imageAspect=0;image=data:image/png,iVBORw0KGgoAAAANSUhEUgAAAGQAAABkCAYAAABw4pVUAAAABHNCSVQICAgIfAhkiAAAHWtJREFUeJztXXd8VFXafs65ZWp6QhISSOhVigjSFgG7WECJEkooBmyLBdfF1fVDXHZxLcuu7CoEgyAoIKJgRURgLYh0EEFAIZgGpE8y9Zbz/QEzuXdmQmaSCSjf9/x++WXOuae89z73tPe8570ElwE6jv5zh9GmQ4PSafW1bbiqDAtxp0UTV0Is5zRBJWYT8SCaujwOZpBd4O12JpQVKnEHM2hV/hVtS7aQuVAv9T14QS61AE3Fvinpw8thnplI7L/rzJclmYmnSeWcUa2OPZ6M/x5SUp+b/dbmHREWM2z8pghhMyB86u7+Si++eFwaVxMbybI94PCRq2fJh+5ejy5bs2JtJMsOB78ZQpZPHPDENYaf/prBVQotWY+L8fjAdUXRe55+j6xZ8/p7LVlXMPzqCXlp/MiMQeLJjYPFk10bSlOmWkso2LYEYv8GwDFwqICMalDUgkM0AIAhBipagyEZBG3qmGEoB3WgiUjWYGU6mYAljsEnlsi/u+HQmnk/t8zdBeJXTcjzE6+/b6Jx17/TaDXvf61SNdWWKrFLexhLXyGv4URT62D3oXudYpgOwnKtxBNAzmE5Rdng7v3AU299tqSpdYSDXy0heROHbJ1s3jFchKKLr1LN1XHU8RBS8Q6ZCzlS9bE54MuKLA8ZqTwvirh1xMiM4ktPxy9GZh67KZJ1BsOvjhA2DVE7WOb3A4WCDG28C7z6s5S0sIe1dDZZCHeL1f8grDVuwxwrJ83ioFLttf1SetG7yqCBf31zbXFL1f+rIoQ9gC5nJevXrWhdoja+QI4vzCSVI0k+frposszA1TXM9FEMcepkOSilVfcSitNIHhwtUe+vghA2Ewa4MV0C94IAxaS9VqjGvdOGVk0keZAugVzRNS7TphjivFobf0BKK+ktFGe2hEwtQkh+ztUjkuDIjeJcwxJhj+KJEgMAdcwApyrIMmiVgSiFGVzFyTSuhgMwFIDuTWQgOCKnvNJjaekjLSFjqGBZEJ2xwgoTke7Wxu+SMr4d8MapwZGuL6KErM3pe3MGV7HyKqEwnoA1uRwVBHuktvMGvHHqmQiK12SwOaBniqM+TKa1t2jj33P2XnHXigM5kawrIoS0HTU/7vmEdR9lGfYO5knz1UIfOnq+evvKQw9FQLSIgc2AUKWYt8RxjqHeOBcT2AEpbfDAZQURU7nQxpNcGLnZuclLk944kW3cHREyAOA2y6GaiBQUQZA8SHHMcYtNNZ3xxhmJRBI4+wcsgj1Nswi5I2tq98ni1qJrxWM6vVI1MzmKldh/QMUwqEgBjyiSBwIP4gBkgOE2ELwkgasLVq6k0llsKpKaI1tLgCxFbTTnvFUG9b15HbmypPU5veZErI6mZhww5k8JL0evOTHUcCJaG3+WRS1p5ap9jKyAvbEy2AzEAJjDgMf8BfnW3f7TwctP3BIs36VGaW70qynU9oA3XCAn2DOXVkQRNGPgPI8mt5BZUZ/t0JKhgrBKWGYlL6mdEQoZAEDyUEPyMIswjJVBdYu9PmLRTctzBnRuqnwtiRST7UmHKvruMZOvsLyQff2LkSi7SYQsnHDNzCzjvo76gtishDz7gqaUR5ZgHQ/1dhXEN683EQ8xMvnjppTX0iALYTNznv/Rxo0wHpsYibLDJoQBZITh+ItU0zqdENaQPPyzOYKQPGyijOlmVrcYf+h47dhHbm1OuS0GBxY7meBbrfflC5OfHX/jgOYWGzYhiycMfa4HX2Lwht2Mt5skaWZzBQEAsgRL3OA3esNW4sY9ht3PRqLsSIOsgL0GpqXeME9U9OTPPNXccsMmpI9YNEkbNhB5PnkDZc0VRFPewyrq588jDUf7RKrsSCOFs72ssvrpSHuu/Lrmlhk2IZ35s+ne3wqoAhWvN1cILchiHC9TrJ96wx34cu75idffF8k6IgWyCAWnWdQxb/gKvsSSe1d2r+aUGRYhbAY6xBEH5w2XqZbD5HWcuVCepiCZr12sDfegJXdEuo5IQWbceu9vnqgYZflhTHPKC4uQvVKbp7XhWpi+aU7lDcKMzW7G+7qt9kJlhxapJwJoS6u2aMOJ1H5bc8oLmRA2Da17C8XjtHGdyNl1zam8IZAFcO70ZFR6wxxTTRdKf0lB9Hs0PYWSLmwOAracQ0VIhLAscOCxnEP9g1FAAQXfNbXixrDa2W+FhHO943ap3faWqqc5YNMQBUA3kMcSpxUluKepZYbGZBzm+Ve8yd0Vtyw/XNvUihvD255Bz7WqrXOnUFv0k/a7ngYurQ1b/qTBj3fhTme35apaWYkrIZq4TSBqcNUTwXyWi/+S11EUbj2N6rKO5SY93ZGWzdMmVEBxR+X00x+/uzg13Ap/i1g16ap140y77wwnT5VqrvxRTnpi8LJTSxtPXY8LdllLJw5a1IGW68hgIFjpuGrj/xUyAKAdV94j3Dxx1BE/SDyVf2BaWvXmqV3GhpqPa+jC7OzbPnjUum08r7FDrmEmebPc+ZF73tx/SbdVLzbkTqP+e1RNHu1hvMlIPR6OgQhECWn8Taa1xnZc5d2DenYdn9F7xPtfHbhwNx+0y5oz/ubnn7R8PttI6k2QCtW4ojZ81UCyCC1mAvNbAgMIpiIRHBJBkQAgtUY19Lcx880pnK2bACXgZT+lJLjecfSd+MdVmxucnQYQ8s/x12TlWnassRC375qNGfdEC67h5FUE3VD6f+jBZiK61m2eLTDP40YiG7TXbMzI8uoGP/PEqi1/DZZXR8jTOVlpU/mtv3Tgy33NsVy1nEoU7T3/n4zwwe5FfBmxLEik9hztg7YzEW+5B0y4782v3/bPoyPkw8k9K241HIr3huuYodpK3N1JHkojJWTWhKndb6GHn+nClXVOpjXxVs5jVlWiKoSqHpWT7Ex0OmBwUaKejeNcizouOft+pOq+VGAzMNrFhFVGIhm9cWWqVZ3juOXG195+Z7M2rY+Ql8aP/PPj1i1/8RXCCCMcG0kWYVukBLshe0bXReZ1R9pxFSGlz7MPrbnvra8jeg7kUoHlop2diHssxBPnjfvOk+F6uGZ8+s735/seCAXO2R2NNh18XFsAIewfkSQDAK4lJ/8QKhnnZFBjYke/8KtVv4cD8jpOWojnGjfjXd64q8VTxqnmr97VpqMA8HVBu4kduHLfm2hnoh0GPBdpobrypzs2nqoe546pkcuihQAAycP3BirfqoL4tlsnmHYPn3j35Lu8YQoAHMWftBlL1JjnyULYIi1QO76ilX9ckRL7xULH8JkzbVkTSpVonfbYRC66OW+LgyzGFw5VXOgNR1EXJpt2+PaU6Jgx97fqwxd38Ua4wcudWNm/WkIYK9xmbVhinC2dq7754ZXb/v3v1WvfTqW257XXm3qQ89cOa5T7Sa3B3XWGo7ELJg1/CADoEOvPd5qIxze4Vymmz8hStIjS0EQ9Rm24GuajOgtyitPa6+bLsIUA57YXojnnNG1cD1o6GwBoJjk7RHshhav9sKUEMRFZR4hDFcp1CQjK9ekvzxYCAEjBxhpm8pnMDhZPthkz5v5WNAZu/924/S0lgwH6VWsNM+kJEVCpDV6uLQQAyFyoCqOfeMMW4sEw09H7qJGTdEfHIKOwxYQA0y1Eq5mxSpeA1x+AuaxbCIB4av9MG07ja0bRaOKy6FJZWk5FQgnTaUjdqujSJajS28Zezi3kPL7XBlJITQdKmKo/ChzfMmfngMAWIoHXNwG73ufI5TrL0kB3/r2dUGGhAlH1auLKhvdImgsCfQtxET9CuusJuRzXIVqQPNS4Wf0zsMJtom7G6w+CyzAH5IwQKNMrM12q4N8EdIQIUBBP65pswfFbAAHzDRFW4gZVGNWvyBXEB+SKVOVE32XVMT0hwdwkZXA1Bv+4ywlOiL57djGB0aNKsv4sB0WbiyWMAwEtJABppMrYWJrfMtysfoRwg5doiRK9U5eC4aJZCTpVQ6OExBH7ZU6I4BtXnRAUulXtslzWjLWFctz1F0sYBxEa9RsSS5yXdZdVqMT6jA9rmbGMfrz6tQ+2S+19CYxEuvZiCeNQDI1Oo+I4x2XbQmJHz8/8QU71EeJRuYMUAL7xtPepvZNoXeLx3OSLYm1uZ8ZGCYmmnsu4hRir90rp67yTz95C8SIKAGvcV/2litXPdhNQu+y83WqLwqYaGu2yLMT56zW0biaq1z9WvWjNO2PXe3o9MMs2ZjnJw8cUAA6s+9tnH7h6+nRYcdQR6+DEV1paIBttvMuyEOkybiHncOeyA4sWrH5/CqAxtl7n7DtzjPHg+mhyTr1kJp4pbDq2kyVoMU9qFbK5UUJEyBEdQ2aNu6tvGq1+ujVf3SuV2mKtcPEW6ubNRKYGInEW4tEtRC3wcP7rJ384mCirmjWvpHKqiwiKnQmKxDjVoYpKNTNJp9Vod5VqLvUQ7uszcvLLL6xeXeJflq/yD99dvGHDxP7bJ5l3+TzcKIQsYtPZSbIEm/0zRgIVqrVRQkwRGkNYFsStls6fDBI2XKu1yIwEzH4kNqJ8agNgQDUz3f/3XHTxt5DX6ZZWuQeO/l5q7VsbcGDUQ7gNbDrCNjZuDAwEVbJZaSydAUqzWwh7DKYjUcmnRojHIk5GUxFLnOb9SvoK/3gdIZ+uXVi2QeqVZWeiL06EYnaD38HuR7PPYGvhYRxkSgNcUciM6lqNwmj35tb1VVXHjd34MynNLSfSyOQqAvxtBSjunlm58QM++/qXZ0VtedzrgNJAZKukct+U3Wv8Y1J+07w1bJ3ScTY0p79kcAzgA3Ynj8rJr/YQ6p2WXSWe+t3qyf1uGLd8z6am1JudnZt8lfDm77RxNmb8MRquVaA4ChUVYKgC4ACFHZzGnkCBSvIQMc9EbAauqFMNu63ULQIAAwmwoG9wsFo8fvCr0yw7HvB3uVTGonYl0dopZDEOhyzIJFjOGqwVrWidbzw4rrT6oXP+2Z4BaeeA/6U4vrgtrfSZDB2Xk6o61ZYlkbVotIvzx0uTrr//cdPnr3nDBUr8gcz8yr6RcBQTDtgD6OJShJ1GSD7/MKtd/cqz39yj83rU4BmH+97e/uCr9mHP1qgmneBJpLa/ysihotyYPWw6JrF7G9cOf8dnLNOS4WEc64Szo4OlJXMhl8uWsTKr78468WVxW02d8hurJxjcMh2hDXNM3XzRychFO7ssfqslw8UEbHF3CfCAccFDJ4+8vW3ue+4rrvtebq3bRaRgJI3WXAmCN12UP/3axCELY0fPzwxWxuc53fv24Yvv0sYdVVPeupCH0X7LCr/a62mjO0MxyFCQ88XEbldeSN5gMFKpmzbchqs+EG4ZzQF7ECm1xLhDa9MLACtd/fcsWfP2av/0jZ4CmrZi55Yr2pRE5TsGflKmWgPeLCORhX5C4QOAsTpY/lS+arWByL6usUy1OK/wFN/fWL0DyKlJJUqsb/PGSCTSSqz+LFzvbYm0zt8U9aJ6qyt0x22OIi6dxeZBKa0kt/32oJOkkI5lkblQc1fuGPWUfVzqa46hH/6sJOhmQi7Gr65e/1gAId9MyZzSgy/V+bwqZjF/0PrTir9j/r+WTR6Q4/+gyTK46pjxbu2Cqydfmrh1aueXQ5HZi1ji0DvvZxfvnMsz4277axuuSrdkqFWNrl6m4n4NfbOkSR7lGEDem9xnupm5HjRQxT0i7vhwsgBOXZosiCUxMRWtaY3PiOK4nHSy89Iyn2o54db5YxbFrXlvrGk/tkvtjoyqeniwP7GHpqV+2oMvvckbtjODusXTtdftyw/8EIqsmyZ3OXO94Wj9G8owgCzBLgCIuv3vXYLlqf1g9tFQyo4dvSAWitTbF8EJB7Ty/2vCcOfDlm36dRTBKLIYn6ABNGm/mgAMy/fnAchrKM2uqMyF/WmBjwyZUdZJKPP5voodvSD2z5YPlo41nZv5ptGaboDcB9AfgehhKb3nrNN61jspsBA3zaBlHwFoF4qsBhpwONM3Hr4S/f4zw8VjE1K4c7vYp5VovGC/Dq8NnyNg29wQVpByn4Hiya2r45dhTGUu9iltR2jlb8+X68lg2EnyGiYDiIBX0mBg09C6J1eSq437Xk79UDtVftS06bVHLNt8/fsmV7c91euf2OZfFlkI20k54UFtXC+hJPOTKd2DntHzh5FJekUGX+9MP9u0e3QmXwkjkWEkMjL5SsyL+iiUYn2427wPMcSJO42Bc4VY4tRHkAuTAbQQIbtZ240m4vGVXaWaPX2txT4/W7PG3dX3ActX47zOlstUK/vY07lBh8QDl51aelBqvVcbN0Q48Ud2PwKON/jDRCX9PSqR/bpBe3rOGrYTH+gyLI76mbgRNNrNRpyQH+9NvamfUHiFNq5UjfmT9rzJ7cYDH7ai9WPrRlf3zzasfeOCC81ehpKbbZoNrWji4ve707dcKA8AGIjcICHrnH1XVaumCplRSWZUqlZNFWudfVYhjK48ljrP/w+0LwxoIQyNHh+LqM0TywL3C1xvad2MF8jxhd2XlvrULe/n9Hr2GvFgmjdcpMTKk+J2jm7MXzdZhLOHpsbN7iGU/sMb10co6vHZ5G6P3bj8SIPqHANkfZcl1BMyYeWu6QCm1190Ath+/i80xJx/6NFBvqARQ53+UeUBifwQ0RayzdLppbZclW/lroCiilgmelfG7CEkXGP46c/aPLultvNC/R5IzzdKFxyRk3ULyn7CL39nU9DgsTcBfi1EjmyXFcOd2z+Koq6Aa5z/zFZuvIVEjBD2EBKuFAp/r43bL7XeemV+4Zfe8HZ7+01aj3QHpLSaMW8enBtOPd34M9c6WL1xWQK1C3tIm40NpReJop/aGyJLiHBevWYlge9UkA8SNHoQKmKEbK9rvz6auHxdYK1qlPrRIp/TlcO5ra8fKJ70qT5UEJxQEsP2dUvy8MtxtZXOafGVQtHVX05tF7QsA/ymvVI9ISty+q+pyjWplfea1MfHja6NG/VigLKzMXhbQTC/9wGLPKnxD1hGhJAdUzIHDhALhmrjflKSXiL55w7gsCxwFuZcrfX1+50nY/+dbx4Ib455Hr3Ti576RYn32QAQMHSi5UvYgwj4qFeAkxhnPSFjDftujaVOEsc5yVPWTUG/1tYYvK2ABtFXEuIXl3iRCIkirjXaN6RYjSnvW1fo+/bHN5YOC7Rji0MVWRFNHIcmgsyFWqpE3y2B891xCldr/MbRPsATtuDfQmJ1XRar/9E0N/gcaZgQyvzi5ItAyMacbo90F0631cY5iHGqd++CzUBqX6FQt7DbJ6W/fffS3SGpJxrCwGUFO47IKbot0EHiyWFHpqXe4A2zLHCcv9e30/WEvOPq+1EdM7jrmMGdZx+ypylyeIkI9gEb4s+xu3FCmjXtZVkQi/nS+dq4H6TU/T3fKPV1RfukNhv6CoW+gfyMGuUaEn9iOiKAXpbiGaedUbel0No44NzDiSbOd9lMJJGFcCMOgQYSa+sfyuQVu8ZN9l3YdP4vPHjHkIAZFYKQVNXCLeQTc/cVaXy1z5DNzXi1By31bTztm5I+vLdQ1F+b57CUMsdfEdlUkIVw22CZqL3t1lx11E5bxkoAgIJAA4k5LfPdLeo/XiBIN7a2BQlZnjOg8zXizzrXdUfk5BUkH6e8YQt1r9QKdVRuVTRy+fEXmlpnMHR5/fQnP8rJulf7SrFw7N572wwDF6SFtJC6yP/hszn6ehgjLJSdyiYL15GWr7IQty9/BbPW9RGKfWPF5sldH+/El/lW5DKjqFbNWeHW89z4m4/ZphskW67R82z2zUHHnW7qmXuqVJNvZcYTFUms9l2QwFkXDtff89IJA98qvjfa6Z7BKe4ZnFJ8b7TzqezbfsTwOZHQYOierYLQvgfVJELWTe4zSrumAACXws/0fmyRzYShu1D6F+31vVLbTU35eNajlq3tooibj6Iu4THr1vbB0pBlqHYwg24XMp2vTiqQ4v8dkNhSf8/jzbvvaM3ZjCIUKkKhrTmb8XHLF0H3SMLGYf2zVUkLEtKRlum6ohNyQkH60upl3vAnNT2Wp9Ia39hSyczyALHgbjQBTPe74e4/Pb96eZESqzt8lMlX3hCQUGyZLisAFj9CWAsRsjan7zO9hGKf7kgBQXta4Tu+sHjy4A5DDT/rP8Lozni5qfZNL9qvK6lhJrmGmeQXa0de0AFnulB9jwfchW+cr7/nNc6+7xSrMW4341U349ViNcb9vP2GUxfKHjL8iGchdllh9ZUsC9xxvlD3sceTStKGTvlnD3rDXUjZqmji8r3KPylJZTe+eUTn/ikczHv7o4x5vtCFv4BEFqGgdLrl1RRi+32Dibj6BzV55a5pADROYGoArD//10zI4LRPVwEJyaYsrBayUBi2rhNf7jMasDNR6sid9e0MLh9/1XVDhJ9901wVBA6I2RfTDiqF2GbXqoagFjAAADfEBq9FErz+2TpVMSSNdsiEDL1nVucxpoO6TzGUqtHzSF69jr+TWK5ToWz3tNvbO7/4i1DriARIHhxRnLthR88cohu8FklQ/ZTbDT6yhOQKX/8rnav2pT+tRp3tmF7+N2/4L+NvnD1ILPDpq2zMqA4VT9wYavnhYNWkfm85potOe67o/Of4a76IvfX53roEi7HCyYTgBnFq/cmwFTn912jLaYq2t0FIeuIdTAzcMAmCkAh5dOLE1FuMh3UPt46Zc8ncer3QCPG47muX++W0hdrWE0mMMR64w0Q8RjP1GCeZd430v04AZqLSk0Ezs3pCxhr23XqhcpoFghht0BkiISEN6v1wLCeJ1vkG6hNKYmmn/DM+R2cPjrs7f4j4ju4s4DDh50fYDOi6DhlUdTFBLZJjHStd/Uv+4xyWXb3+j2H752IMvs2GBqfCi/GZZwZ3QoSiX7sw3dnJkLW9L40f8fl4894hCbTOIPo0yE80nIHqW0gFM4fkpS+kFmImbp31XYVq1k13rhWPTkII4KFSK3HzXYUz0Y9atnZtqsfR99x911eoFlSoFjxXe1PQNARgIpRAH+sUrb0/33H1/aixcryYYdk+PJXWmER/dX5DINDZ8hbLsVUNJdUipBZSxSw6c0yBMF2+a8VjYasaxNBmgUExYcXOSQD8XoKgPdRJ/4jTSvRVgC0fACav2JkNIFufIvhbzxBEexiYyje7s6nm3tGk3hLlZyUxJEJCYruCWf6rDWfQihu031l6193n+W89madPKIn2GmaS6phBlpj+dFQdM8h1zCAXKnGO76SMyqdst/2gvYHwQFjgXxAwZPhHGYk8LOxyACyxD952WE6x1TKD3NDiU9v9usDpxtzTLG5Do7eFEG17B4z5U8KGhP+Up+gdB/2e5OE/oeS/VLBNNxZFEVdawAWKq8ki7AySJSJgM3CFwsgB7vzp3Z+UJPSveCoumEF6oGghYOf78yu+8bTXWd25Gf8ym4G2DeW51Hgvp/etQckAUKcYP2b3odlnF4OBTUf/OohbOc1R6i89Hc+GQgYQhurkkJw8bRQTvjOe9/JmILLhgJS2PXb0H3r6V8ZmwBywF8EQA6J5AWTwfjMegMIEFrCpFAWikZOBgPrZYTEIWlX7YSm1dZVaO6Whe7ESV6LC6EHXdPqRAfImUBSAoBwSzkCst7Akr0HX77PHYILrvHwEBkhIAJAIIBkE/SRwIxmUq6yod3LkYCK2S+3HA982JI4OYe2erc658vN7jHt1X2uzMxGWy983YpOx3DFg45SVO28ONX1Yuqx72u29+aCUpvM+8Fsgo1I1F7rBv+dg4kV14vidlHlqcoedo8LJExYhZC7kXkJx9+Nyq5BP4F5KlKlWtk9K/3t8miPTmCffZZY9aT/IqRtdTGhRZScDwU9K4pdXxxZ0a+ikVENo8ob/u9n9uu5nrR+WQEaYqJRshicunjoQTx3goSCKus9ZgVAXCGM+o2QtYrhz1y4EJxN1bvAAwAMeDohwqTxcEGBXRXjA44wahWrVVFKmWIs9jPt4IXt3XrCj1A9mZfVpz1fNTBZsV8ajLtNCPLFx1IlY6oDX1wsARFG3z5pEBYFNPTd8KKCwMSNqmAk1yrn/NmYsr2OGArsqfp8g2udPXfbd8fCfKvC/qHUVVTsfTmkAAAAASUVORK5CYII=;" vertex="1" parent="rh1XRBT-aMwfdlD4D-t0-8">
          <mxGeometry x="181.35833333333335" y="10" width="91.94444444444444" height="91.94444444444444" as="geometry" />
        </mxCell>
        <mxCell id="rh1XRBT-aMwfdlD4D-t0-5" value="Workshop use" style="shape=image;verticalLabelPosition=bottom;labelBackgroundColor=default;verticalAlign=top;aspect=fixed;imageAspect=0;image=data:image/png,iVBORw0KGgoAAAANSUhEUgAAAGQAAABkCAYAAABw4pVUAAAABHNCSVQICAgIfAhkiAAAHXxJREFUeJztfXl4U1X6/3tukps9TZrue8u+FQqlloKs4oZIEUFAEZ0vjtu4jDiD4vjFBQdckFEcFRkYER0WQUHAAUTKWqAtS1mFCrR0b7okaZZ7k3vv+f2BSe9N0jZJE0B+38/z9Hl6zj33Pe+9n5ztPe95L4JbAN0f+lu3/H5nhiVpjeOSI1pSlSSdqJFSeq3cLgeMFHKJAzQyymFzSBmKEVutjMRQ2aw7laprWTlgQs0ehIC70c/gArrRCgSLE1uTRjdaFc9FKa2399QbohWkIyg59VaV7Vhl6r4z9fFvzZu7+0iI1QwYvytCcAlI/nuh78eZ8dXTEzUmbShlO1gRbPulf83W85kvfrl4zbehlB0IfjeErF6R85dR6b++k6ptloSzHooRww/nBlR9d3bIC+uX/Ou7cNblCzc9IR98MjZ1WPyVHXmpV3q3V8ZgVdUQBN6rl1sPAQcXAUETcGAEEbQCBxoAAEAQAQgSAEMsEJBsoaUjRMDlykmnypdMu1MCK0ryLq8ouf3OM6sXXgrT43nhpiZk8T/GP/lIZvEniRqj2PNas03eWtuqXdUvuvZjlAOXg60DH4e+Fkr6BACeoyIdXuSca4hjt5wf+PT8uTtXBFtHILhpCfnis+EFswcfGU2KWEF+i11h1Mltz0IrbEBjgAlVfbgAxAZC+axMzCxUS2kBMQxHwP7y7j+Pjb54dyjr9IWbjhB8ENRHDGmnc5PLU/n5FCvmLjVGL+vXs3Ye6gF02Oo/CypTi3SBSup8SYQ4gn/tZG1S1cayYbnvvPRtdbjqv6kIwcXQq8GqOhijskTx88tbIivTIpvHoiHw63XTpQRuM1HybREyu0CXU7WJxsz46kSUDbZw1Et0XiT8wGUgxcXwJycWnfAko9Kk25Cma+52PckAAEDZcDRCbO9mouRH+fmZ8dXa0trEMlwCYZnthaWFrFx+25hopW2OWkaNjJJb1WKCjQAAsDikYHdKGIYlWqRitjJV13QlUWMSAcAIABAQgTGC8w1xH/ebUPtCOHT0F/gskHazZI1c4pzGzy+uTD2cM7kiL9T1hZSQb1dn3ZMa0fR1dmJlJEI4aDkcRnCsJmVhzqSK10OoXtDAGIj6feqtsarWe/n5350duGbK7NJHQ1lXSAhJmblIt/iOTdum9j+eJya6bhbaer7/p/fPOvNsCFQLGXAJSFrsij06uW2EK49iJbi0KjEvd0p5yEwuXR5D5syfE7sq/9+XZ2SWhIQMAICJfc6YQiIohEDZ4NQh271mSl7vypOJnEivsv6Aceh6mi4RMmnu431nDy6oGpdxUWBXMlJyW7VZ+yEgGAkMxIEc1CgbEIhABwCpgGAiAHzgZEUWX3KdLPESPg7RXdEtHEAjoFWjsN/HcG2/vO56Q/TmrzIX3Ei9AAAg59FX9Qc2ZphwCWD+X/1+9Re4FJT+yMAlEIGPwYdcsVAGLgFcuDHjx3A/Q7Co3av5lK/rlZ/0llC2kqCwbtXgMr5SbAnimvYr/xyMLFwMU5xFBMWXZztMcqu/yOkZar1DAXwENNZC0sLX990Px38QCtlBdVnLlo16buqAE90FghB+ST/SujQYeWgobBIT3P0cRk5XnlziQDIxsz0YeeEGygWzgnT8Lz9vTLeLj9wQZTAGdGZ7gvDXfESyLiSyj8ETfLmthVI87tkX7guF7FADl4LSdlhidenqLCLwG+/eldNVuQG3kOX/HPFWv9gaqStNs2KrnHQ+11VFAADQEFhBs+IdrrSKpOGhfiVvhEJ2qIEGgtXkkK9ypcUEB/3j6ud3VW7AhAxKrJrFT0sJZhEaDIauKuKWRzLPc4Dcs5ix3S4MCpXsUCNOY17CcW1jeYau8Y6uygyYkJ5RDUmu/1mOYIGFf3VVCT5QFpQZWlX/daW76RtFi/8x/slQ1hEqoCwor7OoL7rSA+JqlHPmz8jsisyACMEl0E0nt4lcaYNVeQ7lQn1H9wSDWE3rcn66n75mUqjrCBUYTrTZ9b+Y4GBCr7OTuyIvIEKO1yS/xk+3OuWHulJ5u6BhN82K3d1Whr65W1jqCQFSdC17+OkolXViV+T5TQg+DgkD46qn8/N6aBs2daXy9oDywF5UldrsSosQJw9HPSEBFm4L9I+t6YULwGvL2V/4RQjeACLAsFpEtL0YFhMADjja0X1dwboTQ9Y4uWu9Y+HV9MJw1dMV4IOgBgyCgVwrs6tAAw8FK9M/JjNgoWfFu8p6w70zz7UGW3Fn+M+ZYW/FqCx0nNqseeWnKa8B3FgftpXL8+b2iqqbkRLREqOSUnqNjJYD4nybSzAswkdgH8qFqkDr6dT+cnFn9GvdIw0LEa8kiwmY9NUTdduXLY8PtMLfI9b+K3vT9EElDwRyT4td0fyLIfoveQ9UrOq8dBs67LJWLR/2ebfIRgEZGCP4+nj2jv9fyAAASNc39gv0Hp3cFjkspWJl6bZE4+4NvR709z5RexfmvTPxhxeH753J3+MwUXJm9+WeLzz0+Mkbuq16vcGkTdh3oTk238GK5TKJwyECQBIR69f4G6tqlaVrm6cNG9t7ZurwMd8f2NlxN++zy1rw7j2LXxn10zyZuM0FqdKkq0rWt+SiQRA2F5jfEzAGBCcgCjBEAQY9AMSbKOlQM624J05t7iMhWK8fe4VRT20ozXrkr3N3+z87/ceyUVMth6Uc38hnKpSV4LPg0+Xy/+ANfAQ05kOKd+yHxZTnPo/pkIx7f8nY1zqXAgCvfTg18dedUSxfgGG/svz/yAgOuBAiG/YpV3tuwFkKSbx8+YiZvu4RdFlbv+nfdF+vM5GutMUhNapIui/KhtpQKTn11cf73pt+7vVeUYaesSpTpErmUHAs4lhMcA5G5LQ6SbvNKaUI4Bp0Curz7nc2fB+qum8UcAnkU07JWpnEKXPlGWwqbsHP99712Zsbdvu86YMPx/6NzyJXjDhcDKNDqdidf/pj78s/6b22a9v7W/7pCGMo67+RwEch3VJINvOf78jmVHvOo6/q+eUIgGt+R/n9T83lX0AIf4iGwt5QKjUu/crL6bomv8sjxEVo89+7ac3vgQDdBleUpGMUzYgpV95tSRWyx3MObOSXIwAADn6f/ki3yEa354jVSVqBgbdCrVTv6LrunZdqg0LiAAAU0pNSNxIoG05LSeY+Dtq8CB/OKhn9yCuzp7jSBACACOBV/o015ojFKBfMoVYoPbIpxjOvyqz9eVnh6Oee2zb14dpWjcB6LJc4PYv/7oEGw882mlzmSqulFMzOOuLeUyImv/xUzKD46l6uDJoRMz2Uho/CoYyKpBX8tJMVmZM0xnuef37vJ5+88e1/4jXmxfzr11rIrQcVol/hO9zd0e2Cdukno58FACCGJ196QC5xuGdbLXb5TjQCwmI0lEscMn7aSCkuoGxoawYI6vjXFbdgCwG4tr2gkdr/wM/rF1U7DwCASNM2DOdfiFO1bg2XInKSERBic0oaBQUQCNLyW7SFAABANuww0XK3y2xeypXkyS8/FUNEkLRwNw7ByXDpICUYKT9touVCQmho5idv1RYCAIAQcCxLuL0zlaQDRiZfeJKQSZ2Co2NAQGXYlCCwYCFqtMtaBAU4EDBwS7cQAIhUWHfy04ka0wRCQ1JCP1wH+HSADgUIhAUWUpohKUEBGgSHSm7lFvIbTvMTcRpTNwIBJ7RT2cNzdg4AAIGwhThZsbAJxAhjjgQbLuN3BMH593Rdk5KQiDihmTip/T2SrgJ5tBCK8yCkQUjIrbgO4QNlg4nm/ShVElpO0IxYeBDcDgqvO0MEwsOYSdEeg8RoISESgoVIhSVoD47fAxBg9xChktJAsBwhXJE7INLrrlBVjoRdlsUpJMRXmKTUCJPUM+9Wgt1Jup+ZYiSYuNAYaxWUwJB8vZSxsZ1PoxIjWmSdlfk9g2ZEvP/FTqLGrCnyKHPdvATttLRTQnRy6y1OiMQ9rtoZCUsUlPdazfAiSFSadOOvlzI2RtJp3BAtab+lu6xKs9btfNjqkBmI7R999kNhRYa7gEziHHe9lLHR0k6nUTqV7ZZtIdr8RWln6+PdhDgcolMEAMChqxlus3e00hJV9lPsdfE2tzKyTgnRkI5buIXIjMdrkjbh3+Y6AxOqPycAANafzH67hWqb7eplrV/ig6AOtzpmu7TTLktJ2m9eR+suwrj5z8bP397w4ObzmU+/tH3yapQN2wkAgNI1f9/5w/n+bhuWTm7T2kTkx+FWyOzovMtSSpy3cAu5hgceLf186YLvHwPgOVtvOp313OS+pzZrpNfMSwqJ4zF8DArREAhbJLUmm6JTQkgxE9Ix5KW3pmQlaoyvJWiMmfFqs1ZFUmIlSYsVEoaQip0ipcQhWIgqSYfIc/3kCZuDZDheEScn4ihWwlodEtbJijibg2SNlNxZ16qhWyhFrYMVHaynYpe8N29djacsd+VbP16+ZcuAoYWzsordEW5YDn2Oi/AVlAO+XVW6iCZa1Skh8hCNIfgskAXnev44LHnLOL5HZiigIB2BWBOSASDHSMmfevcI9PL0kBfYltaeys0/XZfgXhuIECYcWLQFF0HAzsadAWMELRYF21k5KcF2uYXgQpCfvxpbMSb9YsjJCBZamV1x0pC0xjNfQMh/ly0zbLmQOdXqIN15pIhV0Jz4CC6GLp/B5sPBioDhCK8YTgxHCFoNyxF9u1rXgZruO/pE18d1VU6okaZr8oq35eXB/frcHT8sKxy1xMHzFZaKGZUTiw4Z9gYXOgMAoODb7vP4aQaLMIDYa3fygiH2U346O7Hi9nUrh9wZbL0z5s+JzU68ejs/z0zLfgGABYBgOnAwHhBkA4K+AJAKJES6/wC0KBtQqP4AINPiaLNOYA75f8Zz+ad5nzqLCC9vwoZ96iJ8HAL61eJSUNbvUwkcjy/uiDnjs2wBiCt2R9YLy0Y34w3BbQt88NH4pwSBYnZHnrwRgWJwMfSyH5EIgvWsXTXE63x/uww9+UzhM58eHvmGiZILupVoZetQjkNnqvZEHMPFMAsXdm4dPnol9csYpcU9ODtYEe4R3ZDvqywaA0yjRfkgvzvrEWXQFeAeKzurxxdoBzGGnxYBtxshCD7cXRDARyHd6iQPy8ROjSuPYiSw50ovrwgYHTaZF17Y++Z3pwfccbouQbCLSABGiRrTYEDwFUWI6z775/Bl2vxFab5k/LS2b9ag+Oop/LwLjXHfdBTUckh+5YHjVcmCMxTDUssf/Xldn8Ed6esLMtLZh59OjjCWBiqjK8BFENfKyI4oSYeOn//1iaHHVrz9H68YMZ32YX94umjPgAk16pUluT8abCqvX5ZMzEiGJFU+DSDz6Rgdr2lZJxUx7i7CYFXaByRVP9VZvTm6ilk1Zq1780YmdqIYtXFnoN1NlMLi6Yp6XaPVVbbqdqullMBj81RdYs2cpwp9TpL8GlQQAm7OU0cmzN8xPf6zoyO2XmrWC2ZCFCNeZ9z8Zy9CDm1Ke6xfbK0g5lV1a8TLaCC492AiJy/66MuVOY96vmg0BiiLUzaNv+DqH1sbVbCx5xJ/dHZBK7MJw7kS4XPi8MTrf5/4TnJEi2DJ0ErJqMyY6iHtfbMkqMENY0DffT3oCYWYekYqZukxiWWjUR7YBWXOAlnTENGUoDa5nSjKGqOv9Lzb4DYt6yctmvz55PXfPdj/JBReTT8/4avn8zyJPbM9/r/9YmvvdqWtTim350LvzPsfKz3rj6671veqH9/tQtsvlIMclAPFAADq+9/t5eue1h/mXfBHtjZ/qRZY50B3hkhSytf/o49H25/P2ytcR2GYgIZCu9HygtqvvjYonvwCAL5or0zxr2nLhiaWu8lgOAL3iDG4Y19p85dq/zbmh1UP9r82803UmPoAMIMAhEcg+ulrH2qwqhpckwKlhCZSow3bACDdH12lYq/Dme7x8ON7v399dLeLD8epr+1i17Vq4L0Dd8Bn5gUS2PumHytIZlBu6pWCddO/hMlfz4ETdSlj+PpnRDZ6LmqLOiIDIEyRrfFxSOgfUzOHn3e6Pn4rGgznXOkXc3d99kLeXnf/vutin2PGzX/Z6ykL5YL5ilH/DD8vM7Ym7ce1fd/xRxeZyCmcLqO2YPozskry03TNIBMzIBMzkKZrhoXjt/kj1o1pmScgQmaHB/p5zxW0crswA3VMBkCYCCm5mrJDLnG4ZbdQCkdWdLU7ztZLb03JenrYgemuYMsGmwpvv9Sz3YDEuZMqVp2qSzjOzxuecvmvuBS8jjd4Qi5xCp8RhfbrBhnaa96wPaK8Q4bpZB4ubhx02s2GnJBfdsTfPSSxcgA/r9YU8Sr/vMn9fUq3xijbxtYdF/ru3LLk3+egA2Qm19xjpts2tDRSSnyyImlPR/cAAEhFjPAZiTZCNp3OWmuk5E0MRzgZjnAaKXnTt6cGrYUAunJXK9DKvf0LfbSQTo+PhZQQvAFEcjH1DT/MeHlLZGXfe2vdwTG/X535xqj0XxNd6SqTlpk1usjnIpEPNBAaKo06gfllUEJVv51r+3RozpGKGGGXxSPk4TnFT+hG2KMkORwpyeFI3Qh71FPPFs6EvW9SXoLaQYTs2kvXkN5f0HBd46HRq5AHQkrIXtTjgxRti3vlzmICWmzKR1wrY3wU9KMyfv0b/56SqpSF/n4PpP+E2qXnDbGCBeWQxKvv4hPQ7rE3idijhVCh7bIi5Ne4U0u9ORQhj5ktcR1bCD4K+sEJlX/i552sSSgYPKlyvytdWJWxix+RrrQ20TR59qk3A6mnT3T9OBvPuUyvsEqOXU3e0V55kmCFU/sQjyES4toOgspHC/H6IIGt84NQISOksCpjs0ZKufveVlrmHBJd5Q66cm5nwvjclCtu0weHEVxujgo41i3KhqtlTTHv8/MGJ1Tdtn9juk9ZXtNeURsha1YMXd9yUM41H5Bzc9/Ob9VNeL9/oPq4WoFY5L3O81rkqTv/gGVICDmyKS03J7l8BD/v1+boD1DetQM4eAOIlCL7OoL3izlamXrygdmlgc0xf8PACVXzrxoj3T4ACGHooW9c4SvihITwIETSRsiDA07cp5XZkU5uR/NH7woqWoWrFRA+7JVeLcR6nQhRy6n1/KhB1eaIxix7pfvbH4dE3Zbyxxabg8RV1qjpECQQAq7WpJnm5ETuJ45Tt8oO/ZLhFQlb4tlCFLwui2f1xR1vm7cL0W9GacJ7rw0IT0KirwMhO77p80LfmLoUfp7NKXscTQMWAACXQHxWQqVgYXeiOuk/02aV+GWeaA+5U8qPnDfECbZAh6VcGXn+x3j3ZhbeACKRZ9S3E22EbDiVtc1CS2kLLaW/KBp+LBg9XC/dl0UfeXJs6pyQLrn647NAVtfVLuLnna2PP9l/Qq27KzpRk7wlK6HSPZDXW9TU8MTLT3SlXhcye1b/sa5aPTFO1aoDuPZyNDL7RlwG0agH0JAB3g4SU9teyuwniqfPdl/Y9dtfYHCNISIf307xIulymFvIj6V91yRGGN2ObDQr5vrF17rXFCe2Jo0eGF81lH/POUPcAk9DZLBAPYA2O5SPYN5zJ2iM6qLTqV8DAIADfDlIhGW30Kt78pU3NYyErP4ip+eo9EuC0HXnG2LXoMFQ4UorSfprvlIXDDFVY6eWvRdsnb7Q6866H38xxAp+2oOTKh88viV5JJA+Wsje8JiLPF8+xsJ6MEbYn53KoJXrrm9cq5TQ7vubbCrLoPhq91ixe33vuT30BveKnOEIMNoUUwOt56337rloPiR1mg/JHG+8e4/PcadPfP1DLXa5e2UmJjiIVrVuBJGPOF8xbc+86rPcb6oLNHa6SMTSRSK2ukBjn79o4i8wekHXT215EM9ynqtE3wiKkE1fDprAX1MAAFBO8XOujy3iMpD2jal9m3/9eHXKrmA+nvXi8IJ0tZQWq6WU5M8jCjJ8lUFZYLTRUsEuZFKEMbq8MfITr8INbc88c3DJpAS1WUYSLEESLJGgNsvmjvjZ5x5JwIgRvlv+BwY6QlCEdNcbBF3R5WZ9edI445eu9I9F/VbHq03usaXZrmByksunQRDgt/GOpqZJdxhXV5m0gsNHabpmb/ch9XX6mGaDByHhaiHfrs56PTO+2m07YjGCDH2T+/jC8uV53UakXRJ+hLEqdQnKDm4v+/0Dd9SYKDljouTM+/vHdhiAMynS+JCD87Fk5kPe9szrT2VtqDZH0DQr5mhWzFWbI+jF++6s6Oh2v+FBPPazhQQEvAFEF3dGOfi+RWU7Yjbzy+zd0KNIcH1ndMP19IOq3adZ1mGkuiOg6VyKf9Dmvz+aL1ub//5o1zV8ENTCrwWRfgX0CaiFLKsbuamHvtHtNGB1kM7uUQ3uncHVX2TfMTztknuay2EENgc543r6QcUpzfNaaWn7oQHFQLZ7LZSQCd+t3enD+ugDfhMy4tmXek7ue0rwKYZai2Yhym6z8feIahSYUAor0o8PnFj9s791hAIoG2xqkm4/0DMXuhbSISTCKTfNiENLyJzMgx8laY3u8nUWdUN3SePfXem3379r3rCUcre9ykzLuBFpl+/yV34gWPuvId/YDpN2ayFp/8fHo37W3rd4oKBANqyxMxLfDnHitpNha1YMXc+XE4y1t10wQuJtnnFd2oFfhLz4ziPx9/Y5J3i5FloxB41pswuNySgTfO3yZH3iMn7rCSUmDyidJJc4ZArSIZuVVTzW8zpCgOUS5ys+b+baCHlwwIn7OpLTRUTwE3anf4T4tQAaEn3x0WiFxT0wX26Oqu1xV7070Nkzr09bOTx1g+As4MiUSy/gEhB0HQxHcJRTwlWZtbavTw6t+efRkTOMm/8acHwuvqmk3anwYNjpKBZdJglWuHbBvLOTAVh7P1g65qeZWceH6xUWKek26f+lAyWFLaTJpgjdoK6Q0gLvuyZKITBzj+t+YRb4ATHBESopLe4dXa95Ma+gd7ARR787m7W5yaaEJpsS3tpzt88yCAEmEesrxnqC658Np7K2dSbHhT/mFI6OV5nkpOf+SntAIPDlrTZpW9oryodfLaTFphS4Y0oILLhvXLeLAZsaSHGnh6faxcP/UzQLADx+BD56KARXPLPqbJpsAPNKAIDZTxTNAIAZwhK+f/UY/PlAPHbP7sy0YqCGbPNEudQc5RchfrHdZFfu46dTI5ru5H9naeOZQYsPX02ru9wcZTVRcqeFljJOVrhjY6GljIWWMpVGne1oZWrz/J0Tz/IfIDAg7P3nE6meGTKCGRmEHFhRnLf3XEOcuZWWMu0tPvndL8WIBGNunVW3pZOH8h85j76qr92rES6wjsFN9QF6XzAfklX5XByG+HieJ3AJDGCKkfsLE2W7orE2f6lf3bNfLaToq0VNh8ozBF53NCNegksgpb17bjS+Wz3wPrWUSvR1zeKQbQ/0FJi/wEUw1OIgC0S8o9T7r3Rv8HU6wBf87vvP1Mf+YUJvyVGZ+JrzoFTESEtrEwu1+S/396wMl4DCay+ChQhw8n4AGMT8NcFveXLgPDaVRKAGzNMTAQLw8sOSAG4ztZ+rj09ooVsfa+9ZVFIqimWIU9RRYptUxOwCDOUA0AgiqAdxm4clygRBv48LQQ6q3/SjQAoAegCIAhHEAsAQJyMaixGbreKFJrQ5SCisyJgJcLg9dQQIyMa0btXgnx7KPC74WpvVQYLy1o+NGDRWH8vZ8diTRff4Wz4gQnABiE9ZEysy46oTOi9986DZpqhUko5iliMmKkiHpPM7QoOjlWkVt+WXZ7R3OMcXAjIuojHAZMZV9y1rjOnQMfpmgcGmwidqkt6NvN2WJstlpihkjsSz9fE7KEYSVmMnxgh+bYraf1tseZ9AyADowob/xn8P6X2yNuF5J4fGyElnrELi0EXKbRApt4GYYEEto4EADBoZBQiwL8djiJBTgHDH78buJIH2+L6WgxWDzUkC5RQDxUrASpPgYMVQb1WD0SavMVhV1Q6naPuyzI0LXe5IfDwzf+qgjOiW52LV5sGRckuaUuLQ6hR20MpsoOH56KpltNurhMMIzNS14YPFBJhpGZgoOZjsMjDRcjDTskYLLS23OsnT+gjroscfP1oW+FsF+H/SIEjDga13gQAAAABJRU5ErkJggg==;" vertex="1" parent="rh1XRBT-aMwfdlD4D-t0-8">
          <mxGeometry x="181.35833333333335" y="170" width="91.94444444444444" height="91.94444444444444" as="geometry" />
        </mxCell>
        <mxCell id="rh1XRBT-aMwfdlD4D-t0-4" value="Operational service" style="shape=image;verticalLabelPosition=bottom;labelBackgroundColor=default;verticalAlign=top;aspect=fixed;imageAspect=0;image=data:image/png,iVBORw0KGgoAAAANSUhEUgAAAGQAAABkCAYAAABw4pVUAAAABHNCSVQICAgIfAhkiAAAG3pJREFUeJztXXmcVMW1/qrqLr3OPgzDgGxGlLihogaNolHj+kLi/lSeJqgQRAUXcMvMIApolCcQxefTaIgbiQkuMUAUyIsxBMUIcYmoLA4zwzD71t13qar3B0z3vd0908v0gPLe9/uxVN2qU6fvubWdOucUwUGA/MvvHW0EP/oOtLbvcbV1OJhRIWikWCphL5HEJ6kJySImEboNqXRDqI0sUrhFeluftvW6taiGONC/oQfkQDOQLZQ5QyfC8M2Qavd3hd5YKpmZFR1iBUJq9/A/M6N8bviJtzbkmM3M+TnQDGSEJ6Gq/xq72PbVXiHV9oKc0pYMStuRdZ72o2/tenb5b3JKOwN8YwSizzjxDivwxQNCb1EHtCGhQGs7apfWevwtXcv/+3cD2lYSfO0F4pl+5nDbu32VHdh+eG9liB2oI5DrhdL9V0hsBUMzCNpgoxNAHgCAIR8SQyBRBoJhxNZPBREnS2oFktIUKrTGCds8Ld89p/3leV8OzK9L0u7+aigb6FPPvtEqem+p0NqU+GfE8nYyu+AZ21O/GNXYlnUjlRgLoV9PiJwiqZkgHBYezNX2Y6ZFlq1+Kus2MsDXViD69FPWGSUbJoJwVz6xfW1SCU2HxApUw85Zg5VQKPdPl8SeJ5nhFoykUDoPfdsObj03p20mwddPIAsRZI0j/skDO4a78qUilEjpEruifjZuhjFg7VchAK5XglqzQAR1PmKhobu0ju+cHF72m9qBav7rJZD7MYZEAu9ItavEmU2NohqhtZyJanyx33iZi5OI5X1DsrCLFxaqaOPe2gpUIzQQzX49BLIYOlpwPcAeArjX+YiahSvE8NarcSOs/c5XFfII966RLHySi6dQRZ0YXTtiIHgaEIF4bj7pDE5CU4QaOQ20OygpzwcAwnUQodoQtBWM13C9ebtU2xmAUwG4vkRIAsUYvNheUH/LQPCYNqqgQarLQazLnNlK1/C/2T/fOSHXzeVUIPqt486z1eZfc19NEYjsByUCpfuQefbDO+/LGXP9QSUosYOvS7XzfGe21nLMcnPx5sm5bConAsm/YH5haPQrb1iFH0wA6b9aSG098nHrsY+m54C13OFJqKTGt1YqoVOjeUKVaqRigvXQjpypXGjqIn3DP2VKWfeYX26zit7PiTAAwCr4qD0nhHKJG2HJYOh8YnsbonnUIpx1v4YcjjT9EkjguuvGGvnrdtl5W116JcK9IWoVPAqK06BiMIAgqkAgUQhgOCQuAvBzSNaVlLCks/AgSvvD24BgNjqlEr4Qkka/PKE3lmq3Hl2Zqyaylmxw8l3FodKXt/HgtjxnPrWDT4n8zpm4A90piSxAPsKoBDAznhOlc9Qf7Ue2nZ+03gEGvTfvcaF0TIumjeJuMb85CKA/E+deWtlWNApXb3ALg0hq+2eJeZ03pCUMAJiDdlRjFigugaCuzR737TpXn3XiYdnyN5AQSsccwrXobxR6s1+fevbDuaCdlUD0aafPMAv/cag7V84S87oXZcVFJV4BEf8GkOi6XjKTSMv+Q1b0BhpV6JDM/Jkzy87benUuSGcjEGLnff6wq3cK9WVU4T/7xUk11oBI18rKKvj40OBVt1zYL7oDBT+eJEKN7ta5t6bMO/X7J/aXbMYC8Uw7dS731unRDKF0w2PN6C8jAIBKPAWprOpJSmbAyH+/Kie0c4070E2495lomghwT8Pd/SWbsUCswK5rXBnMno+70dhfRqJQ7JvhWD/beZ8dmzPaOYZQOh6BjK1GuNp0Vn9pZiwQoe8Z6qjOoeC/+8uEC/fhc2IF/hhtz9PE9Kln35jTNnKFauwgVnBrT5L76vz+yVce3R+SmQnkfoyWSoj1JInl/wT3oKGvKtlAap1PutJ63Q9y3UauQCRbGUsIWAUf/7A/9DISCOscdo+rsvT+tT+N94og3oJQYsOWt2X0gLSTAwhP61pXWuu+qD/00hdIFYZwX+0Vziyu7nmlP433ilkIs+7hLbEM4e298AEGdZ/RcG/dGFQi4cg5fXLpYAUYgOdcL0ZSwIe/Z9twKnhajl8OuXd0VLpGvjtQ7fQLCxGEgGsilywcAMXl2ZJMT5KfYB7gbljtOBxW9Sed2TacCmrrd+Z61S5DKB153rqL7zFxYG3Y9BkTbuPa7iuF3jpI0kixVAwvwiK56kliPqrwZ1RhV6btpNRl0Tml9wi9cZ6rpKTwf3H97u7nnyzPtMFvIrQZJ7xiFr//o0zqENvXQo3SO/jDO59JXTqGPocsffp3lglPU5wwCPSmE1b9XxEGAAi96duZ1pFKqIj7dz7N7qxo024bc0m69XrtId4pF70WrnjzIqcZDuFeW+kaNdNa9PHSTBn8JsN/7VVH2Z6G1dz3VSn31tughiqZyVLX3AdJoHaO2aqEjjozlcVKUoHo15+3wCj/02zQmAkSNQt3CV/rybgXA2YC8w0DwYMoAUcJOIpBUA5LH0+F7zyhdRwB8ASBUbM4orSMu9pc9lavq9MEgWjTTr/UKtnwsmRG9Bnhnk2SRSaiCskPlP4fblQhj0rfbCHM28Bs3fmIcI/UGyfcF1m29oFkVV0C8U69tMIoWPeV8DRF5xZi+3dKpfvI/xdGFqhEEeX+RYJ1T3a+aSI0qC0nXmUufeeF+CougSi3HtlsF3xUFKuot0ndGIt7UJ8rHgPXXTfW9H9yn/A0HibU9iLJTB8kEZBUEMksCC1MhR4BxB6pRZbxB/b8PldtHzBUYhKR6ouSWp6eLGIHhK/h/O93P7XiLWfRqEA8N555b6R87f2ORxJSnolqrM8VX8Frbzi8u/yVT4XenFZ5bc+p7ebj7+TWD+RA4X6MJKa2STKzsCeLdQ+P+Br+fWjnr+ZHX8jeoakS1CzacpuLgJSP5lIYAGDp229PVxgAACLyCyY99LVVv2eE+7BdqubpEEqkJ4v7d3pM/19+6yxGAYCFRl4t9Kbol0i41g2CubnmiXt3H5q6lAPUBEAOjh4CAD/DP8HsC+GwIjRL3p8Y+I//uLgnTQGASNzlrEfs/AWoQkeu+ZF686D4PGIWvK3vmTjDW3PpVcTMc2mPJd3/5rwDjkq8Da4t6UlKFkGkeEP0TIkGrpk6iHtrx0QrCMUWBY2PDQQvgho+dwbrkMPbzjMeX780/PRvXpBqxwLnY0mzc+T82qPQmOM0uLPzPivQp0+cDgDUCnz5I8nM2J7D9q7GbAyI0lBS0+NME+H7zGVBTrDbVeFg7CEAMAthycI/dmYJvX42AFCh7TnF+UDqna8PGCPUdgmECrXJ9VzClT5oe8herCLcGzWZtQPbhwWumTqIghru0ziCDweMBeLetUJ43QIhaHGlD9YeAgDVEETSN3uSkpqw/Z/dSAWz3K5jAjUDxYN0mmgAILan1VUgz+0Ac5D3EAi1e7UzzfX2CyhoxB9XbuBUJFS61f1Ci7jS7XG2sQdzDwEAiX86k0JpH00BEedxOjC+c3tpu3sIlYq7CxB3zJGDvYfAA5f/u9Sb/VRS4VYTFyN9PX/GiOsh8QKR8QI5yHvIHLRDxN6BpIaXEqG4HcG74UuomCuQOHU/V+O7gNvjh3BIrStrC45vBIiMThGSGaCQ1L0jt1GUUClniJvUZZxAkoRJklq7Hp93MIEITcT+r0rKjDK3L4eNYfuNm3iBJIFgrZ5UZb7RcM4YUrEoMfI2ugpQ7DcrQcL1lAKxWfdBLRAi1dhhoFA51SJjnnPOtTRSePZ+40aqqeOGsPDBPWSZBTHjQ+FppJ3PPfGa0jUqmieZ9b39xg3XUy6jpBo6aHtIwaT5I1i4PCoQwtkWCgBK16io2lsqXSXsnrL9Ym2uwJN6XUvNg7iHeNpY99BXetY6PFC7jAKA1nrC/YTHVruCdD6LhQgOOD+WnnLIkiz89TW07ifaVs5sCz+74hK14+hpvpofPodK/IECQMeKB1errUdGdVhSCRUgpC0eaIYIUg9ZoNZB3EP2wlq0eVno6d9fCziMrfWWcTOswi0rJdunXiLmtajGu6jEgEVSIxFfSoEIYud0DvH95OJxXG27R2ptRwulo0CyiCKpoYDZVBKLgZqujeheC0XZpw004ZrtMuCRTECqnAiVQzJBuMYJ91rUzDMgffVEsHcYK3sktPSlunha0cY7X3jyVXXG+Het4vdiEW4EWYZKuR3VeCu+Yi5AZCB1D2E5mkOqoCmdh70Z8r/6PadFZi4gmZlUm9BLFIFhAE4k3DsVVRgTbyHv0i3pXSdPYqEhsb0BkRRgr2IuMjY2TglJQCI+nrIYeP97yKPw0nDZTju4NefCyBaShX0sPHR5fL5LIF2/XNKodx59KRFaLJNwH2xlA6rQbx/sOI4AShM/IuHWKBJJx/a3KaX20FXC2zC4v3RyDaE2J8TbSuhqoSdWvabfcPYjRvna26KW79QOQLK/0ns9d2YbrUG5/dDZtsP7i0gmASXhdFIxyh63vbGgZbZ/53f1GcefYyzZtCabdv1TppSFfL/6rjOPcM+/JIu8CILPINAMhlYQhMDRDd1hT0AgMAe5i0w0F0cRS39fMmPfF08S3EF6naz0aRMeNwZtmBYfconYwfck67wW1fgkbUYehp+0BZql2hWdD2hk0MdiwZ4jE8pWQqFmUa3QWwbFypa2iuMaS3EZUg5xib/j7KlG2Z+eiNIyijaL+S3jkINAMRnhfowhlrpRUisaH0ZtPb7JemyTK+pRrw47xhPv/tTTcFoVsb0uxqXSOR6EfETuzt+EalyDytTaYdYw/FmnMCCYFPqeSUkLV8Omtv8SiNhwJjyNherfvvV0qnaSgQh6RlzGW9j/whhJTO1vTmEQoUJpH5MQAaNPD6rIsvXVettRZ7HwkLhTREmk1n4cJH4FoezWbzplScGk+SOS0VBnjR3HfbUXO/OYMfj5viKM2g/X/IWFhrl8KOzgjsnqrUcc1xe/ySCJdYQzLfS2zZnS6BeqMJiYng1Om14AUFvGbwo/+8JL8cVTeuFGlm5cyz11Qb3x5DeJFUj8spit2t6aaYCnLVl9rra+BGrH7L4sf5iX1E5N1S7377yGmgWxwxtqEa61rUaGMb6k0uU2RRU5nBPSADUK35Is4rLYpKGKOrP43aSLpPTcoqshjF9suMDXcEW5vufU12mk2LUSokJ5qW3lzASBsDtGXCu89a6YV4Tn3+6Mp5X3g/mPqbecOBnxL7oaEQLPZc5s4asvUW477JG0eO6pw0Lxwfv3m5+Lb8pFDwi91bVlINwTEb7a43u7syTbiHJEnXns9RKRn4Jyw674fCJmIewqUQWNWPnNUm2PGlHQcOl2sbAxqlouuHD+D7tHvfw7q+hDKF0jPw18cfOEeMGyO8v/yH3150YbFrpQOw8/2ly0+eN0GFVmjWmw8z6LfaEUJ+JneA8Agv+2cEyyOp2vzf4sHdoFkxYVgFvHxJhVNzv516dNDBtl6937KIkLUI030QuyPa+W1qIP/wvAf/VWgIVGLOG+HTGLFkGl8DRGY18VTFpUEC5/7RmraO/KV6jtRwD2sYDbBYL76i8nVmBPz6JAUoPaWuMbAEamxSjl8aNAdD40hv3+Pjtv61VC3XuKTa086LvPAiZWqlhfncYO0j7WCm5fFxr9LPxfTIESPuQMJ/9Cb4rf1G7sSxhADqKSJkUVhghP3RRnFouUv+5cKhula54wBq2Pju9K+xGb2lbesT4JrQ5qFv/UmSW8dSO0mWOT+uglgFhuKxoSC6ZvFr8/SegtALUBakPoLYhUvJEW2R5YRf+AZGFYBYlrBam4Bw2QvoUBDJBAlO5DVklqxo4muc/kvtponC3fTy4eFxn0lyt63CSIFZBa+LBeAxLzh3c+Q0NDPnDmWYFtd6IKCe4NCaBW/G/Mqe5EaHutYbknMWSYZHGLU4GUw2zOBaLMKT/X9tUc5cwjZv5dTn8To2Dz61KNza1ax9jVXb/8ZZ8bTeGrO49wjyMmY0RRQkPX9lUHACSx3b/R0UP01nEvEtvbDEEtCGoR29usthz7IjIYynt6gVQS7Qsli+shFCndx3Jr87QCTHwYed4ZZpwaRTViYX1U3aLdenSVGdxSEX1uFtjGtzYm3yQ6UYU9ZE7hbMnqH+3Jsn27vq3OPGKmtejT3tU51I43/IsKxFjy3vUAru9JS4Rh4l0A6ce6ib50mniDRoJAiNu6Pym7abecBpSN3/q50FpjO3dJQYX/avTsjB9EsRX44l5Xna5D5qV7H4hYUL+IhstcG0rb99VCVKJXt7e+ekguIPe5DEbPkVxtxa1sReoekjuBPIhi7q25yZnFQkPW2Qtr/qcnrbSMWuOMSMdCFe3m4i3VmTQjvA3fIzxmXCbVblUJDVvVew3uXtrnWCDYp16TyXpIvIbGm9oRKmcCUZpHrZQsEh0Cie2xuG9XNOiKcveQs+3Adofqg0AxSjKPdVuFr5g1yBW02PbtOondPjI5LRK37KUxgWgzxr9M7vUKco9XeH4yqbPwgocTlZ2p0NML0ol7T1NfYJkTgah3jjjZDuw41ZnHzNKfo3qfA84KMIHwS06dntI1/EPjsc2ZrTH3wdZ33U3NopgfC5EQetNTqELijWvx+xDmWPYW/uNCqYSJVMPEKF+T9La2VIj1giT6yvgrO9h+EggnkZedXwix8pvsE2qid3+wv49e5JxbCNckoyVXIFtUQzA77zKARX+xVDs9SteohEjYCRtD3TVkOd5YlkqLnpee9L6UuDxlPwhEnXnELcK7+xAXUeG5Lnp28QDKhb/GtbFTQkNfMB56Py31RG+wHtqxgYUHu45A7cD205Q55edEM1aAAXFR3wY7hqyWcW8QrhuE64beeMqm7DiR+/5OQ6OvpxZI/5a9VdC4UT/fmUVD5R/yh+qjQ5HSNuxV21/jCC0bjFgV265HDsAram8gDcGLpNq5T7UtIWj4t1iMUtwMAx9DT/jwL4u9FHPpe9FeGsEaRJDFoWRfc0h8rykc4B6ito9dLvQ2h22qIkRefXRPocwZOtH27xrvrMMigysTFJHZ4mYYVPivdoWh19qC7Kvhv96XTDSQqBygi9DSGbIuG0CB6LNOPMwOfukKXcciZctxL3b2pAUxfu1kioYH7bIf+fyhbNtMBj5/95vMKHN92txfc4kye9hp0JDMhGhg9HfxL78yvh0iEwslIushi9OmFyU1HHG1Al3cWxudK5TbDr/N1v8V3ZFDUjDpuzTTS5E8N5y31ShbOxKSSL3hjO2Rp/6YoDLnesPlxPbWSyW8t0cQAUE7fwuBUxIIktiL0qaf/LxV8MmPpNKt7f0NflNvOH1n5IvjjkxP29sn4hxciUjn5Di7+0NuPfYC954CoEKZEb1scTF0odff73yuhA5Zk83lWUbZupGSGYpUIqoxeN2opIWq0Ua57jqFFHpbKQkVJcaGlLHfbBa//wOpdnhAOAXhVKodHmPw20nPSDIGSeghaX2LWQnE1hrdQ5FRvIM/2PZsT1rd9u3nhNYeM7O3fbZdvOMy9Bu9D/98fttzzCxwOR9JveWcJEUHaMiKg4xrRw6QQLRbx93HfbUx3ZEkEHpz1H1BnzFhtB380vXyWdfwR7K1b9J3n1VHuNcm3Gvr9Wf2GYCTq22XQ7K+f7hzyGoZt4Ka+QaEIiAUQc18w7P7nJ19Vc8ArndL0uwhmc0hK8DsTTWuyx6ZUfoqX7BnS0+aa40vShaJfsrUKG20//NTV/inTBB56o1opIkIUtyAVI0d9B7/40LtuKmPUrEha+l7PwYQDQIj0I4wVgJYmaxeZvCBudaShKRlU5ZRD9HXnvaK8DZFjQYI1yyu74meDOozTjjLDnzpWOYSUK5dif1oByWUjtmE60ktYAAAElqvz3KJ+CGLa2lptNMWSHDyrMOsoi2uqxiInTcP1TEdv603uVQoSsfID+yHat9Ot42coBohyYy+7s/N6+NZ7hBxL7mJUHIrEDP4zmNCa4stc63gHqE1PdiT9t74/dk8sMOhr/IIO7jt++nSzwTaTcc/T36mhcl9WlifevrbBRcuOMZVoArLIdTkBnEs5hmmzRj/spNOVtre3iDjBC+1JAcmiUhLIL4bri43Cz5xvVwK3xRUx/RCVvBz122XLFKxxNl7cgmzaPMPJDU9kpkes+S9M5MUkSDWnKSVRUwgZuE/LkxBJ3sw5DuTNE2BpDWp2/rWyVLtckzUJfV8fkM00JnvusueDgVWuHwBbf+Xt6AK7qFDUkGEKohVENKax9d5Gk+7sm3lnZnH53LNSL0shauxGpVsGwh3712Iy3cybW2vPvWMP5nFH5wilS6954ylDXf0xaO7h9i+tKL0pTdkESPO+s7nWu5YeZ+5b27rlY6gkhmK8DTkGYPWHZ5txFGtbdxKYvtBbD88def2VkwCPFmM9SFROi3j3kiDDgDALH13olTbvQkHXr1BwGXLy8yC1t6KOpHespf73eaYRLrq2cGtmatgaMaeBVGYSzZeA+AaAAjv+wMkGaEotsev76iZd4JAx9MAYC7deCWAK910evvq07kgXkZXdxS+Y4Qj0hWNlKQlkLSkTYT/z8600JrPcd6zpLYdu4B1jdhNjZJuYnstwnXb6U4AAITrNuG6Tc3CEOse3uLdddHHzh+QGYhM/JMEAsPjsyS1T8uYDgCtccJ6GhncQbhu97b5dA6/kjPXnMtk4aspfxbSPCYLTr6ruGvYL5qk6ggcRHATKvGLdOofKJD7PLski1QkeXQSqrAxSX5uMBdHQZDNPd671ChF3qd3FyYzSI9HWj2k81fzm5WuUW6rO648gioc0kuVAw79lmMu7EUYIMLzB1Si376LSTEX44mlrXO6Uqudh+5JRxhABqoTxSj7sS3Uv0ejvFFbZ+GKd4OTbj8yobFK+OCJO4uIIB/uD0Bx7gkAAAJeyLhDJYqgi08JAsTZYRGoQMzAQQmXD7Gtzmt7+y2SRkoAugVV9A3AXgOJHSBogoIGMEdE77vgHvcfhRfGPv4M6KAoBlACgTIAx0OyM8H5CZI5HJm5BiU86t8N/K03duJ+SgZQbz7uT1bRB67b2ojQDv7YiP2A3njiKuMXG89Lt3xGuiyr8IPzaKjCFX3gmyAMYvtqIJXfEa7t1yCOrHvETqNk4wWZ1MlM/V4NWxTVjqWRQel74B5AECsgldDQhZKFRqDavlh6zQoWKl9FhDqwyk5JwCIl/8PLdxzRm6dUb8j6wF+76fjDWWTIzRLkDFCrTFKzULLQXitwwiGZAUDus3mViYbH2GcXK/t+N0Ro6Lnx01ERRGggQgGkCsK1vXl2ENTy1hE7UEsE+0Po/N/OS+ZK7b/20mO5p3WG0DqOE7RrBKhZIJUwpBKCpDENh2SG46CPIBZ2hYJwDwj3gth7/4X0NBGu76C29k+pd883Fv/98wxeZxT/CzWEw4mf49DDAAAAAElFTkSuQmCC;" vertex="1" parent="rh1XRBT-aMwfdlD4D-t0-8">
          <mxGeometry x="25.052777777777777" y="170" width="91.94444444444444" height="91.94444444444444" as="geometry" />
        </mxCell>
        <mxCell id="rh1XRBT-aMwfdlD4D-t0-9" value="" style="group" vertex="1" connectable="0" parent="1">
          <mxGeometry x="470" y="240" width="290" height="310" as="geometry" />
        </mxCell>
        <mxCell id="rh1XRBT-aMwfdlD4D-t0-10" value="Virtual lab 2" style="rounded=1;whiteSpace=wrap;html=1;" vertex="1" parent="rh1XRBT-aMwfdlD4D-t0-9">
          <mxGeometry width="290" height="310" as="geometry" />
        </mxCell>
        <mxCell id="rh1XRBT-aMwfdlD4D-t0-11" value="" style="endArrow=classic;html=1;rounded=0;exitX=0.997;exitY=0.42;exitDx=0;exitDy=0;exitPerimeter=0;jumpSize=0;endSize=6;" edge="1" parent="rh1XRBT-aMwfdlD4D-t0-9">
          <mxGeometry width="50" height="50" relative="1" as="geometry">
            <mxPoint x="127.99913813888898" y="62" as="sourcePoint" />
            <mxPoint x="164.80833333333334" y="62" as="targetPoint" />
          </mxGeometry>
        </mxCell>
        <mxCell id="rh1XRBT-aMwfdlD4D-t0-12" value="" style="endArrow=classic;html=1;rounded=0;exitX=0.25;exitY=1;exitDx=0;exitDy=0;entryX=0.25;entryY=0;entryDx=0;entryDy=0;" edge="1" parent="rh1XRBT-aMwfdlD4D-t0-9">
          <mxGeometry width="50" height="50" relative="1" as="geometry">
            <mxPoint x="200.0667291666665" y="120" as="sourcePoint" />
            <mxPoint x="200.0667291666665" y="170" as="targetPoint" />
          </mxGeometry>
        </mxCell>
        <mxCell id="rh1XRBT-aMwfdlD4D-t0-13" value="" style="endArrow=classic;html=1;rounded=0;entryX=1;entryY=0.5;entryDx=0;entryDy=0;" edge="1" parent="rh1XRBT-aMwfdlD4D-t0-9">
          <mxGeometry width="50" height="50" relative="1" as="geometry">
            <mxPoint x="163.88888888888889" y="220" as="sourcePoint" />
            <mxPoint x="119.19469444444431" y="220" as="targetPoint" />
          </mxGeometry>
        </mxCell>
        <mxCell id="rh1XRBT-aMwfdlD4D-t0-14" value="Core development" style="shape=image;verticalLabelPosition=bottom;labelBackgroundColor=default;verticalAlign=top;aspect=fixed;imageAspect=0;image=data:image/png,iVBORw0KGgoAAAANSUhEUgAAAGQAAABkCAYAAABw4pVUAAAABHNCSVQICAgIfAhkiAAAGMVJREFUeJztXXmYFNW1P7V39VrdPfu+MAPDPqADAuKwqQQ0QwwYt7h8GJfEGM1LfGry9BkNKBj08SVucSEmQaIY3CXuIgiIbCLIIoOzL/T0vlfVfX/MdFFV3TPT3VM9AyS/76tv5lbdOvfce/rc5dxzT2FwFmDUwt9UNjQfOK8o7JpXHHCWGoRwoTkSsnN8kAWE6VkhAmY+FAkQDB8iSL+fpLqbddb9pUHnsxPcbR9iAOJI1+GMxx6uqP69nOqNeyyFXX6CRgggrauDMfrfyhv39sM186ePdJ3OOCAA6u28sU+0sBZnugLo7wrjBNpYOKn1urprlo50Pc8IrCut+9UJvS2itSDUVxAn0Yai2ubLpy//wUjUExuJQlPB6pq5ped1Nb47w9E4pr883YyxDUfoY3vEvxUAjgCAAwBcAOAFAHNfNgsAFABALgAU+0hmFoHE6awQNSaiGSQoeKZ8xvFnqs6/8MA7D36raaXOVKwcs+CmFpaLJvolOyjWc8Cc/xgCqBhKGQhgrJdk1nhJ2puonK/Nefzvx1x0o1Z1OmPxdPnMj8I4EddAPZTeiQCuRACkluUhALKLMdzuIZk4wUQxHH2QU/2+1mWeEUAAps9tZSfi+naCFPo0gslw+UYXyaziMVxQ87CHK2q+d9LSwkyWf1oBAYzuZIzd6oZo1NuaEMCoYeZlmoti43jZZyl0IgD9cPIy7EAADAL4WQQnAuoGaGKtGxAANUJ8mV0Uu13N015zYWumeMrILOvZymlzsgOB5SY+NDsr7DeRSLAAAPhIBoI4xfM47mREobk04GgsDLoJAJgFAFlyGggwOGTO+79xnvbbM8FjskAAdJCgXmSF6DL5/S+spZ/XOb+bMVJ8JYWXi2oX7rSWOETAhrQWEDAM7bSV/m6k6xMDAsA7GNNbaj43Fk76y0jzlhAli1ZY/15yztYohmuyOHs9b/wfR7pOaiAAqofSb1FONChxu63s9DK5LJ+2PPf9nGqtTRm/H+l6JQICMLlJtkPO61Fjdhc6XRbY3z//+rFb7JVxCzcnxfpbWO5RBHA+AshFAEYAAATAIYASBLAYAayK4ETCxVgEw0MIIHuk65cICOCcqGpK/M+CifePNF9QN+9u+xZ7hVvdmJ0609MIwJAMDQRgQQB/EBMIZZut4u1M1yFdtLPmPymn5XbfiGvJS8VTjqoGYtHBGO5IhxYCuCzaqxUSvQBBi+sq6qq15lsLIACzn6B9cn4frl6wesQYWlt5wW0CFjeT+sVQaCKACwUMU1hzNxRNOaoVz1oDAdwp53WnrbRjpBjBDpgLVL9m6iWNaN8op+slGTSv/vbFWtDWGgjAECAof4zXKIaj+8ddVDfsjDxZPut38kYL4aRPywE4RJDvyOk/XT5zl1a0tUY7a14r5/WVosmbhp2J7fGGv3u1pI8AqgQMk2YxxwxZvJb0tQQCKBNki+DdXJFv2JnoofV8jAEew3nUu+GjKToY05tyoa8cs+AmrcvQCq0682F5t7V8yhUTh0IPTyUzAqi0RgJELN1NGw5iAJ1DYSARcsPep+Tpca6272tdhlbgMULqpkgkwqKOr5cMhV5KAtnNFSu6Jy/Dbh1K4QPg/TBOSq45FYGeygyVM2SUBJ0fytNZEf8lw1IwAijgMVxtHp+fqfI+zaqU9iK+MeY2ZaqcoQIBVKqsFF40hJ3FpDQEARAAsI5AIhu7J2A4AMCOdAseDC8VTX0xivf2jtuyyrdlqpyhAAGYQPWj5KJBIwBcnumCV6hNG2/njUWZLJNrWMPdP/Z7K54sn/VHrmENl8myksGz5TN++Zm9YleT3trUQ7F+HsPFRHa4vqsJARRlhJEjxux71bYmHsPRopk3tWekwNMQ64vO2ThA4ye8eii9Y5ut9AZNGXmu7Lwn1SYSETD0QmndO5oWdJpju63sm1QFErv2WQpd7+eN/uGQmbhr/CWvR1RuOC6Kjb5RMO5nGtTxjMJ1U6+asHL0/LYPsqujbTpT0E/QfCpCEQFD7+aNOZy2x8p9NQtXBnFSQbRJb21GAP8+LjCDAAFgCCAbAdQggFkIYKmLZB5p0lu/iuBEQoGd0NuDj1TNvyylgh4bdcFSH8koBiw3pduF+jaZ/oPBgQDMHlr/UBAnQ2qhuCmduKpqbnLmpnsnLS08ZshS7IZ1M4YT/xFGekAAti7asE49KfKRNHqqYtaVgxJ4I3+8Q/6il2ScCCBfSyaXnn/92OfLpq3fZq/48luDvbFTZ+ps15nbW1iu9bjefuIrc/6hHbayPV/YSjYfM+UMyQxxugABNAQJKihv2y7GKNxyzrL+F9arq+b+RjUQiQigXkvGLqz/yZjjBnvSg+FT5bNcWpY/kkAA5T6C7pHXb7utNFg37257osz4MWOW2nNE8y3Jh6sX/DmV2cnT5TMQ1/DIZK35GCkggAkhnFRoyhPlsz6S58EBAD6zl19d6TsprYb9JO0HgAe0ZmiMtyMl/1y9EAEAbMRX6VoBA/iKEfnFIoah2L2rmnfVXz3tWmnmhQMAEAB3y19s01lWYgAerRkqDzhy1PdaWO6DtZX1t902eelV7TqzwnrMClGtWRhxYAAfBAh6bSxt4kNwbeP2P0sZlsy4OSdA0NI0N4STUdRrNNMcx/V2xW5jBCPcSOa0jHr9taTn7+TWIK5hVX0meBlJIABW7XC3prr+pwAA+EzHtz9ghYjkU+Sk2M1Y71EwzcGKEZ087WL0hzEAuRooPDf0Z6GGAABgAEEzH1TYuca52+8CAMDLfF0z5Q/ywt43MsUIK/AKgQQI6qQqiyLNCpFMsXI64F03xbpjiRmOxuIlM27OwS3RsHo3bm+mOGBEXnH6yU2xaoH0yBNnq4YAAGAAooDhknemgY/A7O7DN+E6MVqqytucMSYQUrhbuiidU5VFIYGzXEPAFvFvlqcLg+5FuDkaUvvhZsyVBQek2KEMY3RIlQXJE2ezhvThK3kiL+SuxDEkqu1UgUyVrtaQKEGqVUARc0R/lmsIACjOv5f7HQacQiKhyqROawZMpSEhcmCBnI3rEDkwAHcYP9UGRj7M4mGcFFT5MnbCFEdKl/0QRg0oEEoUwBb1ndVnwzFA0hBh5MOACxiuXpHbMli4QiA+UimQRGGSSgPujJ5LH2kECVqqc4igEH7YlOtX5SkeLmYCZJyGxKEw4NQNludMRhgnZP+TUbxNZ96pyjNsXoJBnBlUINaw/+wWCEFJ42qQoAT8o/zR63js1FjbzFoXDBczAYoa1LOdiwTP6i6rmeUk50MvpevG3/r0ide32U8F1NGJ0XnDxUwAZwadRln5wFmrIVzDirKvzfmSQCJA7McBALbaKySzd3bYl3XUlDss3uZ+WjeoQMx85CzWEJ1rN1e0MTb5nORpfbL3n/n3XNRD6+Ved85MmODVO4JXTLshziVGnWd98ZR7tObjdMOrhZNuvmPikhcUN18oqWuSN4SfoJ/XumB1Yy+afculg+V5vWDC/2rNx+kMadG1saj2tiXt+zeZo73mJb0QuQ4BbMMAnslU4Q5SP2iXRfO8pmPInZMuqy0MuO4tCLkm5oc8nDEaIg1CmNQLPM4IUcIgRBQLUQMfIdTrJzUCBM2L2KksUYwQQwQl+ElKiOKEGMBpwUWz0Q7GHHYy+vYITnzWach99JE9L7UNyOxfSs7dKv918r1n/TQ7A6L+9Vctui+OtjrPJ9mVj2lUNv1hTvX7ao/MkbqcFOtHCTzkFbal9aXTG74yF0hrAwIhPIITryGAcVo0irKBMHASerXZJg6MIAxZQxAAe8iU+92criPzdOLpcYaUiwb1e7miF9X3FQJ5Z8va7teKJy71k7R0jxYFfRgntyMATc9gR3ACeBxH6vs8hiu6MQHwsUMta0vWqHdrvJ15Q6WjNcr8juTiba2oXrBaHYAyghPR7jRDZwAAfJQ96i45PR/JiIkO4vTFVZTyhXECvVQ89cJ0y71i2vJcuRMHAkBuSncIAfwPArgcAcxHAFNRr9N0CQKwyi5LuuUmAgKY4CWZsGw2m7w5+6myGX9KFP+qS2faiQBS+tUiAEMnY1Q4Hh8x5hzoJy/5nd7Wqcyb3YPS3BZYPXrBzXJajQbbXjQCgWIQwOggQSmC9awvntqdEpHHR9Xf56LYuKNbAoaJLazlSwRwDUrCOrzdVvqy6lcvogGCWn5pLT4/qjoy9mF21QspMd+Hh0ZftEFOp4nlhj1IDErgRhokKHRj7ZU/SpnYc6V1c/dbCvxqoUiEcTLyROXMtVzDirJE77+XPbY2hJOKxt3PFcYNZmrs4JRCDBKU+EFWzZRU+X+0eu5+Fc/XpEpjKEAAeR5S16lut2fKZ6QfMgQB4H8um/5WF2NMeNBxp7WE7+9g5gFz/mF53i7aEEBJxNNCALpWHacIcPaVOb871e5mnWrBiwDiFqOZRJPeekDdXvt6o5qmFCMgIZZPW577p4pZrx8z2BVhlD7Nqvhrovxb7WXXqZnZYy24VZ7HdsmKx18or/txooY+bM5bqD7j+GFO9R9S4fm1/PHtKh7mplbr9PHbsZc8pK6/h9QFEUC/M760BjcEgL1aNPlGfTR0K4OE8Jyuo/UYQFCVh27TWRwFIbfkRHHUkN1Y7e+WTMv2xSuWPLlnw6s/bN0L2+zlhxad//MZrk13KI4gHDDnvzPO035xLO0nGfHDrDETL+3Y93UyvP4rd3Tngs7Dcp/iOgzgCwAA06UPj070jvf1uw4nQ5trWMOBEJ0k3SCofXL+Hx9VH/z5sY/V66hFGMDwR8vbaSt7Sv7L6BukpdkZ17CGWzNqjnQE4oTeltCPFwGY1TO0fZaCxmT5+CR7lDo6tbTIfb50+l8b9TYUxEkUxEnUqLehW2qXIai/L6l9fK5hVf3FM29BLopFc2bfFsf/G/nj1d17xgItDAgEUBAgaMXRuN1c4WvyPPfXLFwvj+87UFys7bbSG9Sq/3b+2IeS4WWHtbRH9a6kFX2xvhR0HbQ+JYE8VzYdIQC0tnJ2nEC2ZFWqBXLfYDSHPrAkwC5rybusEJFoO2l9pNbVKs1u7px0We0tx7f8COvzi+tmjOitouof90dves93z+23FOyW35t58vivEUDc8QY1WDGqrqOmtpMKX683bJUvfklhjcS5uA3azWoukG/M+RdPdTZPkN9rZyx3y8+bXNq6742c8CkHyXfzxm5+bcvzBweiO9HdttBDndrQMkdD5F6u6MOB3gEAYES+X4FsLKpd76JYB4/hUR7Doy6KdbxcMHk9pBA8hosG+/7G+xfGnsngSJauJkAAxHd6q+LgaN+XDaTJwz8LJt4vf97c+8GWpHYFD5jz71B3MZtzawY055zQ29RrKM3O2nMNq+ob9TaEANBBU15cl+UlGXWXNaEfUhI01ZCPs6tWlwSc0spdwHBw0oarMejtmxCA/YKTx34jf2eXteRBDCCcDP3xnvY1h0y5x+T3pjqbHkYA/R57owbQEC1g4Xv3j0y82k0ZgEBxbmbDpyEIwO6mdIoo17tUXcpWe8WX8ud7LYUpn7JFACV+1YRhl7V4e3/5u2mD+vB+/KnXNME1rKqPaYGTYuM0JMHey6Db4pppyDZbxSZzNCT1vV5SF53qapGCrhy0FCyY3tMomT5EDIPjxqyrUy0HA2g6as5ZJb83xdky7VN7eUJajCj0qyEvlpy7wUmxYg/Fir+c0OC1Llo1PlV+YlpAxmtDokXe8HzAcrutbLraMrzbWiwF1E80tmyzle1JtzwEgH/XOzZJ9NoZUxAliDgRJCh13BHJbBPESWl8cdB6lKpAuIZV9TEt8BN0nIYk+IYW2w8pCZpoiIkPbZD/QlpZy8laZ/NvY+mt9so18rElQNCoxZKVuqWzDxiA2K4zL4viBIrdywt7dVuzKt5S56UG0BCIzbsBAKVpkSf6SODKoy2991DcvUE1ZMgCeTe35vaxno4S+b0AqbseAxAAABBAfq27WWG/2sMV/X1Z466kzBP9YXrPie2HzHkKq/F5jsbZhyz50mYWAiAIJKpbWhLIPwpr3/SRTNhHMuGny2d+mQ4fsUbH4ht/+LssBEC36DhFYMwD5nxFV7SbK94pf97R27UMqrpJls+060yKlXirjvPEptEIQK+eJiMNN6e4hlX1MbpRDI/rshLExx90k21IGvJ23tgXC0MuqXHDOCmO87Q3xNJ7uKL6Se6Wc+XvHLTk3ac2RKYLDCDsoQ1Xy3+bBSGXaSdXGrM+J3KQyMhuoVZdVtpYV1FX7SMZxfRzD1f4gjzPEWN2i/z5N8acjBwoPWjO3SwvJ4rhaDdXPBsB5CfQEM0OAMk1BAEoNAQB4PJnImBJCSNtDRnlPrnewIel9x200TfZ1SqNFe/njPllla9bWhXzGA4uWp/yl5gfqFl4xEMyUQ+pi9xfszDhuFPj6bzcSbHSyoxEImSHva9A4jhfEs/PlU7/W6vOHAzjhBDGCaFVZw7eM/6Sb5I1Lg4CRdsKWHICSQsbCycvUvePLTruuthzBMC06SyKsWWHrWzzACT7hYc8tdh0U/07Z7fouGvV2tCot21OoCFSN6aFtXcADaHlz8I4kdQJ1rQ0ZJSv+6/y/vG4wX6iKOR6IZZ+O2/cuvyQWxpbemg9X9dzYhmkAbkT50BT06KQa10LyykOH5UFehK5D2XEwj1YORnrsl4urv3tRHerZDsSMAwq/A7p+MJTo2ZUznJ8q/wII1f6KAbghjSwqnp+m5tieTfF8quq5rYOlLco6Lo8ghODVVyq84bi2n+0spZwGCfFME6KrawlvHLMhd+lw+dA5QAAoEx0WQiAOGLIUuynHzXmKD5i8nFW1U7l8+H9rJz6IysJLvPgVJLDIF2WSf7MS9JJBfRJSUPWVs7eWOU/KYVT8pN0dJSva3ksva7knPkzHd9K01wRwyBA0FfErL3Dgbyg5y4vyQxktKQHeKYlFG0bxOmkLNpJC2TWvDurl7TtV3yKoV1nfhCTRfCp8p1UmFC22cp3T3K3fpBsGVoAAwiY+PBA38/VTEMGgWKPJ0yQ2gpk+bHPHi8KuqT8HTpT1yjfScmA+Luai+46r+eEZK/yUDpxluP4RcnSTwXri6b+LUDQQT9BBx+rvOADbvHKSaosLwZxal8/r0sm8BdLzt0gp5OOtXcAKAQfIOPiuiREUgL5xdSr87/XcVDRuD5KvxyT2YXmdB+9T/58L1e4FlPFv9IKS9r2fZ8VIjq9ENFd0/xFnJ8VBoBYMfrf/bwuCeSHLXsWD0RniFA4agcJDQUytfvIj7PDPmlgPm7Iaq/ydkqBzm6tXfbszJPHFfap2d3f3q4eUKMYLnhJJnrIlOu+d9ziQ+lGHEWK//udL2yO4MTxBPdPbRKlYO1dXTXnvTadJRDGCck64dz0q48GeEWhIQ5ar92grhfCigM7DkavMHPP6zqclL8siUTcyIfJMd5O8y+OfjQm3YijrxbVbnLQBnDQBnig5uKEeTAARIvCxgSPCmL//KOw9s3B6MTwk8Zt9fkhN0vHm/P7g1WeaGU5dWywhEhqReqkDJQ8TYlI8d68riMpmxpoNOjhqX5xVdPOayDmNL2v74KEPVSj+kaHznwOhDzPAgBc27TzCgC4QknnVwnLRLLQrv0DSbM7D62fZJa5AX2rz0pKIElJ28EYPpGnSwOOC+VGulcKJ6/83F7WcdyQ5XdTbNRHMnwUU56O8pEM7yMZvpm1BnbYSnvuGXfJ1/IKpAYMxV8JUaq+oRP42WnQgWfKZnx80Jzn8ZIM39/i07Xp11J4xBBOKMbcDqP1tfg30kTdvLvt7TqzeoH1U80KyBA8pK5FPY71XRn9RCoCmMBjmHRS4KgxG2n+2aZXCiYr3OpDvZ9iKBn8zZHBq4WTFvcjDOQldd0oxVNgyQIBnOsl6ZPy8p4tPy/pbz0m3fcfsObesKiT2qHri/LGiDyzjyvcxtX/13i1xzrqDYKmdn6zgLKLJCHeLYaF+E0lk4pPDOL9sCiQmdoPmvMLnCHvdf3VxciHsgQM3x/C8TcZgf8XAJyA3il6J8g8LDEARb+PlPwx0OtSlAW9XzudGsWIuQgJ5xj5U4bdAEHDtqyKK6Hx8/7YSR8vFU95T/1r85H0QHajf/sro9/rQgBk3+mfEa9oKpeD1jeFCHKjn6Ajw1lu34ecM2vuRwCWI8acr0e6kZO5uhijuNtatDLWKAgg+4A5/50gQQ30DcIhXyJg6Kgx6xOUhjNH2mbxVwqmjtlrLfh5FMPmsGI0V89HrLZIAGyRAJBIABMfBhwhMPMhwBACS7wnOFj6ng2EIEErwuABAERwEgIkDSGchBBBgZ+gIYKT0KkzgYti27ppY2sEI95au/+VB2PuSHLcOnnp5Aq/87bciGeKLeQrMwgRzhoNAhcNQCzWCwCAiQ9LnokihoGH7B0+BAwHD6UDN8WCm+z966F0J30kc8JP0F/ZBf+K64/vOJp6qwL8P19rN9h5V6VcAAAAAElFTkSuQmCC;" vertex="1" parent="rh1XRBT-aMwfdlD4D-t0-9">
          <mxGeometry x="25.052777777777777" y="10" width="91.94444444444444" height="91.94444444444444" as="geometry" />
        </mxCell>
        <mxCell id="rh1XRBT-aMwfdlD4D-t0-15" value="First user" style="shape=image;verticalLabelPosition=bottom;labelBackgroundColor=default;verticalAlign=top;aspect=fixed;imageAspect=0;image=data:image/png,iVBORw0KGgoAAAANSUhEUgAAAGQAAABkCAYAAABw4pVUAAAABHNCSVQICAgIfAhkiAAAHWtJREFUeJztXXd8VFXafs65ZWp6QhISSOhVigjSFgG7WECJEkooBmyLBdfF1fVDXHZxLcuu7CoEgyAoIKJgRURgLYh0EEFAIZgGpE8y9Zbz/QEzuXdmQmaSCSjf9/x++WXOuae89z73tPe8570ElwE6jv5zh9GmQ4PSafW1bbiqDAtxp0UTV0Is5zRBJWYT8SCaujwOZpBd4O12JpQVKnEHM2hV/hVtS7aQuVAv9T14QS61AE3Fvinpw8thnplI7L/rzJclmYmnSeWcUa2OPZ6M/x5SUp+b/dbmHREWM2z8pghhMyB86u7+Si++eFwaVxMbybI94PCRq2fJh+5ejy5bs2JtJMsOB78ZQpZPHPDENYaf/prBVQotWY+L8fjAdUXRe55+j6xZ8/p7LVlXMPzqCXlp/MiMQeLJjYPFk10bSlOmWkso2LYEYv8GwDFwqICMalDUgkM0AIAhBipagyEZBG3qmGEoB3WgiUjWYGU6mYAljsEnlsi/u+HQmnk/t8zdBeJXTcjzE6+/b6Jx17/TaDXvf61SNdWWKrFLexhLXyGv4URT62D3oXudYpgOwnKtxBNAzmE5Rdng7v3AU299tqSpdYSDXy0heROHbJ1s3jFchKKLr1LN1XHU8RBS8Q6ZCzlS9bE54MuKLA8ZqTwvirh1xMiM4ktPxy9GZh67KZJ1BsOvjhA2DVE7WOb3A4WCDG28C7z6s5S0sIe1dDZZCHeL1f8grDVuwxwrJ83ioFLttf1SetG7yqCBf31zbXFL1f+rIoQ9gC5nJevXrWhdoja+QI4vzCSVI0k+frposszA1TXM9FEMcepkOSilVfcSitNIHhwtUe+vghA2Ewa4MV0C94IAxaS9VqjGvdOGVk0keZAugVzRNS7TphjivFobf0BKK+ktFGe2hEwtQkh+ztUjkuDIjeJcwxJhj+KJEgMAdcwApyrIMmiVgSiFGVzFyTSuhgMwFIDuTWQgOCKnvNJjaekjLSFjqGBZEJ2xwgoTke7Wxu+SMr4d8MapwZGuL6KErM3pe3MGV7HyKqEwnoA1uRwVBHuktvMGvHHqmQiK12SwOaBniqM+TKa1t2jj33P2XnHXigM5kawrIoS0HTU/7vmEdR9lGfYO5knz1UIfOnq+evvKQw9FQLSIgc2AUKWYt8RxjqHeOBcT2AEpbfDAZQURU7nQxpNcGLnZuclLk944kW3cHREyAOA2y6GaiBQUQZA8SHHMcYtNNZ3xxhmJRBI4+wcsgj1Nswi5I2tq98ni1qJrxWM6vVI1MzmKldh/QMUwqEgBjyiSBwIP4gBkgOE2ELwkgasLVq6k0llsKpKaI1tLgCxFbTTnvFUG9b15HbmypPU5veZErI6mZhww5k8JL0evOTHUcCJaG3+WRS1p5ap9jKyAvbEy2AzEAJjDgMf8BfnW3f7TwctP3BIs36VGaW70qynU9oA3XCAn2DOXVkQRNGPgPI8mt5BZUZ/t0JKhgrBKWGYlL6mdEQoZAEDyUEPyMIswjJVBdYu9PmLRTctzBnRuqnwtiRST7UmHKvruMZOvsLyQff2LkSi7SYQsnHDNzCzjvo76gtishDz7gqaUR5ZgHQ/1dhXEN683EQ8xMvnjppTX0iALYTNznv/Rxo0wHpsYibLDJoQBZITh+ItU0zqdENaQPPyzOYKQPGyijOlmVrcYf+h47dhHbm1OuS0GBxY7meBbrfflC5OfHX/jgOYWGzYhiycMfa4HX2Lwht2Mt5skaWZzBQEAsgRL3OA3esNW4sY9ht3PRqLsSIOsgL0GpqXeME9U9OTPPNXccsMmpI9YNEkbNhB5PnkDZc0VRFPewyrq588jDUf7RKrsSCOFs72ssvrpSHuu/Lrmlhk2IZ35s+ne3wqoAhWvN1cILchiHC9TrJ96wx34cu75idffF8k6IgWyCAWnWdQxb/gKvsSSe1d2r+aUGRYhbAY6xBEH5w2XqZbD5HWcuVCepiCZr12sDfegJXdEuo5IQWbceu9vnqgYZflhTHPKC4uQvVKbp7XhWpi+aU7lDcKMzW7G+7qt9kJlhxapJwJoS6u2aMOJ1H5bc8oLmRA2Da17C8XjtHGdyNl1zam8IZAFcO70ZFR6wxxTTRdKf0lB9Hs0PYWSLmwOAracQ0VIhLAscOCxnEP9g1FAAQXfNbXixrDa2W+FhHO943ap3faWqqc5YNMQBUA3kMcSpxUluKepZYbGZBzm+Ve8yd0Vtyw/XNvUihvD255Bz7WqrXOnUFv0k/a7ngYurQ1b/qTBj3fhTme35apaWYkrIZq4TSBqcNUTwXyWi/+S11EUbj2N6rKO5SY93ZGWzdMmVEBxR+X00x+/uzg13Ap/i1g16ap140y77wwnT5VqrvxRTnpi8LJTSxtPXY8LdllLJw5a1IGW68hgIFjpuGrj/xUyAKAdV94j3Dxx1BE/SDyVf2BaWvXmqV3GhpqPa+jC7OzbPnjUum08r7FDrmEmebPc+ZF73tx/SbdVLzbkTqP+e1RNHu1hvMlIPR6OgQhECWn8Taa1xnZc5d2DenYdn9F7xPtfHbhwNx+0y5oz/ubnn7R8PttI6k2QCtW4ojZ81UCyCC1mAvNbAgMIpiIRHBJBkQAgtUY19Lcx880pnK2bACXgZT+lJLjecfSd+MdVmxucnQYQ8s/x12TlWnassRC375qNGfdEC67h5FUE3VD6f+jBZiK61m2eLTDP40YiG7TXbMzI8uoGP/PEqi1/DZZXR8jTOVlpU/mtv3Tgy33NsVy1nEoU7T3/n4zwwe5FfBmxLEik9hztg7YzEW+5B0y4782v3/bPoyPkw8k9K241HIr3huuYodpK3N1JHkojJWTWhKndb6GHn+nClXVOpjXxVs5jVlWiKoSqHpWT7Ex0OmBwUaKejeNcizouOft+pOq+VGAzMNrFhFVGIhm9cWWqVZ3juOXG195+Z7M2rY+Ql8aP/PPj1i1/8RXCCCMcG0kWYVukBLshe0bXReZ1R9pxFSGlz7MPrbnvra8jeg7kUoHlop2diHssxBPnjfvOk+F6uGZ8+s735/seCAXO2R2NNh18XFsAIewfkSQDAK4lJ/8QKhnnZFBjYke/8KtVv4cD8jpOWojnGjfjXd64q8VTxqnmr97VpqMA8HVBu4kduHLfm2hnoh0GPBdpobrypzs2nqoe546pkcuihQAAycP3BirfqoL4tlsnmHYPn3j35Lu8YQoAHMWftBlL1JjnyULYIi1QO76ilX9ckRL7xULH8JkzbVkTSpVonfbYRC66OW+LgyzGFw5VXOgNR1EXJpt2+PaU6Jgx97fqwxd38Ua4wcudWNm/WkIYK9xmbVhinC2dq7754ZXb/v3v1WvfTqW257XXm3qQ89cOa5T7Sa3B3XWGo7ELJg1/CADoEOvPd5qIxze4Vymmz8hStIjS0EQ9Rm24GuajOgtyitPa6+bLsIUA57YXojnnNG1cD1o6GwBoJjk7RHshhav9sKUEMRFZR4hDFcp1CQjK9ekvzxYCAEjBxhpm8pnMDhZPthkz5v5WNAZu/924/S0lgwH6VWsNM+kJEVCpDV6uLQQAyFyoCqOfeMMW4sEw09H7qJGTdEfHIKOwxYQA0y1Eq5mxSpeA1x+AuaxbCIB4av9MG07ja0bRaOKy6FJZWk5FQgnTaUjdqujSJajS28Zezi3kPL7XBlJITQdKmKo/ChzfMmfngMAWIoHXNwG73ufI5TrL0kB3/r2dUGGhAlH1auLKhvdImgsCfQtxET9CuusJuRzXIVqQPNS4Wf0zsMJtom7G6w+CyzAH5IwQKNMrM12q4N8EdIQIUBBP65pswfFbAAHzDRFW4gZVGNWvyBXEB+SKVOVE32XVMT0hwdwkZXA1Bv+4ywlOiL57djGB0aNKsv4sB0WbiyWMAwEtJABppMrYWJrfMtysfoRwg5doiRK9U5eC4aJZCTpVQ6OExBH7ZU6I4BtXnRAUulXtslzWjLWFctz1F0sYBxEa9RsSS5yXdZdVqMT6jA9rmbGMfrz6tQ+2S+19CYxEuvZiCeNQDI1Oo+I4x2XbQmJHz8/8QU71EeJRuYMUAL7xtPepvZNoXeLx3OSLYm1uZ8ZGCYmmnsu4hRir90rp67yTz95C8SIKAGvcV/2litXPdhNQu+y83WqLwqYaGu2yLMT56zW0biaq1z9WvWjNO2PXe3o9MMs2ZjnJw8cUAA6s+9tnH7h6+nRYcdQR6+DEV1paIBttvMuyEOkybiHncOeyA4sWrH5/CqAxtl7n7DtzjPHg+mhyTr1kJp4pbDq2kyVoMU9qFbK5UUJEyBEdQ2aNu6tvGq1+ujVf3SuV2mKtcPEW6ubNRKYGInEW4tEtRC3wcP7rJ384mCirmjWvpHKqiwiKnQmKxDjVoYpKNTNJp9Vod5VqLvUQ7uszcvLLL6xeXeJflq/yD99dvGHDxP7bJ5l3+TzcKIQsYtPZSbIEm/0zRgIVqrVRQkwRGkNYFsStls6fDBI2XKu1yIwEzH4kNqJ8agNgQDUz3f/3XHTxt5DX6ZZWuQeO/l5q7VsbcGDUQ7gNbDrCNjZuDAwEVbJZaSydAUqzWwh7DKYjUcmnRojHIk5GUxFLnOb9SvoK/3gdIZ+uXVi2QeqVZWeiL06EYnaD38HuR7PPYGvhYRxkSgNcUciM6lqNwmj35tb1VVXHjd34MynNLSfSyOQqAvxtBSjunlm58QM++/qXZ0VtedzrgNJAZKukct+U3Wv8Y1J+07w1bJ3ScTY0p79kcAzgA3Ynj8rJr/YQ6p2WXSWe+t3qyf1uGLd8z6am1JudnZt8lfDm77RxNmb8MRquVaA4ChUVYKgC4ACFHZzGnkCBSvIQMc9EbAauqFMNu63ULQIAAwmwoG9wsFo8fvCr0yw7HvB3uVTGonYl0dopZDEOhyzIJFjOGqwVrWidbzw4rrT6oXP+2Z4BaeeA/6U4vrgtrfSZDB2Xk6o61ZYlkbVotIvzx0uTrr//cdPnr3nDBUr8gcz8yr6RcBQTDtgD6OJShJ1GSD7/MKtd/cqz39yj83rU4BmH+97e/uCr9mHP1qgmneBJpLa/ysihotyYPWw6JrF7G9cOf8dnLNOS4WEc64Szo4OlJXMhl8uWsTKr78468WVxW02d8hurJxjcMh2hDXNM3XzRychFO7ssfqslw8UEbHF3CfCAccFDJ4+8vW3ue+4rrvtebq3bRaRgJI3WXAmCN12UP/3axCELY0fPzwxWxuc53fv24Yvv0sYdVVPeupCH0X7LCr/a62mjO0MxyFCQ88XEbldeSN5gMFKpmzbchqs+EG4ZzQF7ECm1xLhDa9MLACtd/fcsWfP2av/0jZ4CmrZi55Yr2pRE5TsGflKmWgPeLCORhX5C4QOAsTpY/lS+arWByL6usUy1OK/wFN/fWL0DyKlJJUqsb/PGSCTSSqz+LFzvbYm0zt8U9aJ6qyt0x22OIi6dxeZBKa0kt/32oJOkkI5lkblQc1fuGPWUfVzqa46hH/6sJOhmQi7Gr65e/1gAId9MyZzSgy/V+bwqZjF/0PrTir9j/r+WTR6Q4/+gyTK46pjxbu2Cqydfmrh1aueXQ5HZi1ji0DvvZxfvnMsz4277axuuSrdkqFWNrl6m4n4NfbOkSR7lGEDem9xnupm5HjRQxT0i7vhwsgBOXZosiCUxMRWtaY3PiOK4nHSy89Iyn2o54db5YxbFrXlvrGk/tkvtjoyqeniwP7GHpqV+2oMvvckbtjODusXTtdftyw/8EIqsmyZ3OXO94Wj9G8owgCzBLgCIuv3vXYLlqf1g9tFQyo4dvSAWitTbF8EJB7Ty/2vCcOfDlm36dRTBKLIYn6ABNGm/mgAMy/fnAchrKM2uqMyF/WmBjwyZUdZJKPP5voodvSD2z5YPlo41nZv5ptGaboDcB9AfgehhKb3nrNN61jspsBA3zaBlHwFoF4qsBhpwONM3Hr4S/f4zw8VjE1K4c7vYp5VovGC/Dq8NnyNg29wQVpByn4Hiya2r45dhTGUu9iltR2jlb8+X68lg2EnyGiYDiIBX0mBg09C6J1eSq437Xk79UDtVftS06bVHLNt8/fsmV7c91euf2OZfFlkI20k54UFtXC+hJPOTKd2DntHzh5FJekUGX+9MP9u0e3QmXwkjkWEkMjL5SsyL+iiUYn2427wPMcSJO42Bc4VY4tRHkAuTAbQQIbtZ240m4vGVXaWaPX2txT4/W7PG3dX3ActX47zOlstUK/vY07lBh8QDl51aelBqvVcbN0Q48Ud2PwKON/jDRCX9PSqR/bpBe3rOGrYTH+gyLI76mbgRNNrNRpyQH+9NvamfUHiFNq5UjfmT9rzJ7cYDH7ai9WPrRlf3zzasfeOCC81ehpKbbZoNrWji4ve707dcKA8AGIjcICHrnH1XVaumCplRSWZUqlZNFWudfVYhjK48ljrP/w+0LwxoIQyNHh+LqM0TywL3C1xvad2MF8jxhd2XlvrULe/n9Hr2GvFgmjdcpMTKk+J2jm7MXzdZhLOHpsbN7iGU/sMb10co6vHZ5G6P3bj8SIPqHANkfZcl1BMyYeWu6QCm1190Ath+/i80xJx/6NFBvqARQ53+UeUBifwQ0RayzdLppbZclW/lroCiilgmelfG7CEkXGP46c/aPLultvNC/R5IzzdKFxyRk3ULyn7CL39nU9DgsTcBfi1EjmyXFcOd2z+Koq6Aa5z/zFZuvIVEjBD2EBKuFAp/r43bL7XeemV+4Zfe8HZ7+01aj3QHpLSaMW8enBtOPd34M9c6WL1xWQK1C3tIm40NpReJop/aGyJLiHBevWYlge9UkA8SNHoQKmKEbK9rvz6auHxdYK1qlPrRIp/TlcO5ra8fKJ70qT5UEJxQEsP2dUvy8MtxtZXOafGVQtHVX05tF7QsA/ymvVI9ISty+q+pyjWplfea1MfHja6NG/VigLKzMXhbQTC/9wGLPKnxD1hGhJAdUzIHDhALhmrjflKSXiL55w7gsCxwFuZcrfX1+50nY/+dbx4Ib455Hr3Ti576RYn32QAQMHSi5UvYgwj4qFeAkxhnPSFjDftujaVOEsc5yVPWTUG/1tYYvK2ABtFXEuIXl3iRCIkirjXaN6RYjSnvW1fo+/bHN5YOC7Rji0MVWRFNHIcmgsyFWqpE3y2B891xCldr/MbRPsATtuDfQmJ1XRar/9E0N/gcaZgQyvzi5ItAyMacbo90F0631cY5iHGqd++CzUBqX6FQt7DbJ6W/fffS3SGpJxrCwGUFO47IKbot0EHiyWFHpqXe4A2zLHCcv9e30/WEvOPq+1EdM7jrmMGdZx+ypylyeIkI9gEb4s+xu3FCmjXtZVkQi/nS+dq4H6TU/T3fKPV1RfukNhv6CoW+gfyMGuUaEn9iOiKAXpbiGaedUbel0No44NzDiSbOd9lMJJGFcCMOgQYSa+sfyuQVu8ZN9l3YdP4vPHjHkIAZFYKQVNXCLeQTc/cVaXy1z5DNzXi1By31bTztm5I+vLdQ1F+b57CUMsdfEdlUkIVw22CZqL3t1lx11E5bxkoAgIJAA4k5LfPdLeo/XiBIN7a2BQlZnjOg8zXizzrXdUfk5BUkH6e8YQt1r9QKdVRuVTRy+fEXmlpnMHR5/fQnP8rJulf7SrFw7N572wwDF6SFtJC6yP/hszn6ehgjLJSdyiYL15GWr7IQty9/BbPW9RGKfWPF5sldH+/El/lW5DKjqFbNWeHW89z4m4/ZphskW67R82z2zUHHnW7qmXuqVJNvZcYTFUms9l2QwFkXDtff89IJA98qvjfa6Z7BKe4ZnFJ8b7TzqezbfsTwOZHQYOierYLQvgfVJELWTe4zSrumAACXws/0fmyRzYShu1D6F+31vVLbTU35eNajlq3tooibj6Iu4THr1vbB0pBlqHYwg24XMp2vTiqQ4v8dkNhSf8/jzbvvaM3ZjCIUKkKhrTmb8XHLF0H3SMLGYf2zVUkLEtKRlum6ohNyQkH60upl3vAnNT2Wp9Ia39hSyczyALHgbjQBTPe74e4/Pb96eZESqzt8lMlX3hCQUGyZLisAFj9CWAsRsjan7zO9hGKf7kgBQXta4Tu+sHjy4A5DDT/rP8Lozni5qfZNL9qvK6lhJrmGmeQXa0de0AFnulB9jwfchW+cr7/nNc6+7xSrMW4341U349ViNcb9vP2GUxfKHjL8iGchdllh9ZUsC9xxvlD3sceTStKGTvlnD3rDXUjZqmji8r3KPylJZTe+eUTn/ikczHv7o4x5vtCFv4BEFqGgdLrl1RRi+32Dibj6BzV55a5pADROYGoArD//10zI4LRPVwEJyaYsrBayUBi2rhNf7jMasDNR6sid9e0MLh9/1XVDhJ9901wVBA6I2RfTDiqF2GbXqoagFjAAADfEBq9FErz+2TpVMSSNdsiEDL1nVucxpoO6TzGUqtHzSF69jr+TWK5ToWz3tNvbO7/4i1DriARIHhxRnLthR88cohu8FklQ/ZTbDT6yhOQKX/8rnav2pT+tRp3tmF7+N2/4L+NvnD1ILPDpq2zMqA4VT9wYavnhYNWkfm85potOe67o/Of4a76IvfX53roEi7HCyYTgBnFq/cmwFTn912jLaYq2t0FIeuIdTAzcMAmCkAh5dOLE1FuMh3UPt46Zc8ncer3QCPG47muX++W0hdrWE0mMMR64w0Q8RjP1GCeZd430v04AZqLSk0Ezs3pCxhr23XqhcpoFghht0BkiISEN6v1wLCeJ1vkG6hNKYmmn/DM+R2cPjrs7f4j4ju4s4DDh50fYDOi6DhlUdTFBLZJjHStd/Uv+4xyWXb3+j2H752IMvs2GBqfCi/GZZwZ3QoSiX7sw3dnJkLW9L40f8fl4894hCbTOIPo0yE80nIHqW0gFM4fkpS+kFmImbp31XYVq1k13rhWPTkII4KFSK3HzXYUz0Y9atnZtqsfR99x911eoFlSoFjxXe1PQNARgIpRAH+sUrb0/33H1/aixcryYYdk+PJXWmER/dX5DINDZ8hbLsVUNJdUipBZSxSw6c0yBMF2+a8VjYasaxNBmgUExYcXOSQD8XoKgPdRJ/4jTSvRVgC0fACav2JkNIFufIvhbzxBEexiYyje7s6nm3tGk3hLlZyUxJEJCYruCWf6rDWfQihu031l6193n+W89madPKIn2GmaS6phBlpj+dFQdM8h1zCAXKnGO76SMyqdst/2gvYHwQFjgXxAwZPhHGYk8LOxyACyxD952WE6x1TKD3NDiU9v9usDpxtzTLG5Do7eFEG17B4z5U8KGhP+Up+gdB/2e5OE/oeS/VLBNNxZFEVdawAWKq8ki7AySJSJgM3CFwsgB7vzp3Z+UJPSveCoumEF6oGghYOf78yu+8bTXWd25Gf8ym4G2DeW51Hgvp/etQckAUKcYP2b3odlnF4OBTUf/OohbOc1R6i89Hc+GQgYQhurkkJw8bRQTvjOe9/JmILLhgJS2PXb0H3r6V8ZmwBywF8EQA6J5AWTwfjMegMIEFrCpFAWikZOBgPrZYTEIWlX7YSm1dZVaO6Whe7ESV6LC6EHXdPqRAfImUBSAoBwSzkCst7Akr0HX77PHYILrvHwEBkhIAJAIIBkE/SRwIxmUq6yod3LkYCK2S+3HA982JI4OYe2erc658vN7jHt1X2uzMxGWy983YpOx3DFg45SVO28ONX1Yuqx72u29+aCUpvM+8Fsgo1I1F7rBv+dg4kV14vidlHlqcoedo8LJExYhZC7kXkJx9+Nyq5BP4F5KlKlWtk9K/3t8miPTmCffZZY9aT/IqRtdTGhRZScDwU9K4pdXxxZ0a+ikVENo8ob/u9n9uu5nrR+WQEaYqJRshicunjoQTx3goSCKus9ZgVAXCGM+o2QtYrhz1y4EJxN1bvAAwAMeDohwqTxcEGBXRXjA44wahWrVVFKmWIs9jPt4IXt3XrCj1A9mZfVpz1fNTBZsV8ajLtNCPLFx1IlY6oDX1wsARFG3z5pEBYFNPTd8KKCwMSNqmAk1yrn/NmYsr2OGArsqfp8g2udPXfbd8fCfKvC/qHUVVTsfTmkAAAAASUVORK5CYII=;" vertex="1" parent="rh1XRBT-aMwfdlD4D-t0-9">
          <mxGeometry x="181.35833333333335" y="10" width="91.94444444444444" height="91.94444444444444" as="geometry" />
        </mxCell>
        <mxCell id="rh1XRBT-aMwfdlD4D-t0-16" value="Workshop use" style="shape=image;verticalLabelPosition=bottom;labelBackgroundColor=default;verticalAlign=top;aspect=fixed;imageAspect=0;image=data:image/png,iVBORw0KGgoAAAANSUhEUgAAAGQAAABkCAYAAABw4pVUAAAABHNCSVQICAgIfAhkiAAAHXxJREFUeJztfXl4U1X6/3tukps9TZrue8u+FQqlloKs4oZIEUFAEZ0vjtu4jDiD4vjFBQdckFEcFRkYER0WQUHAAUTKWqAtS1mFCrR0b7okaZZ7k3vv+f2BSe9N0jZJE0B+38/z9Hl6zj33Pe+9n5ztPe95L4JbAN0f+lu3/H5nhiVpjeOSI1pSlSSdqJFSeq3cLgeMFHKJAzQyymFzSBmKEVutjMRQ2aw7laprWTlgQs0ehIC70c/gArrRCgSLE1uTRjdaFc9FKa2399QbohWkIyg59VaV7Vhl6r4z9fFvzZu7+0iI1QwYvytCcAlI/nuh78eZ8dXTEzUmbShlO1gRbPulf83W85kvfrl4zbehlB0IfjeErF6R85dR6b++k6ptloSzHooRww/nBlR9d3bIC+uX/Ou7cNblCzc9IR98MjZ1WPyVHXmpV3q3V8ZgVdUQBN6rl1sPAQcXAUETcGAEEbQCBxoAAEAQAQgSAEMsEJBsoaUjRMDlykmnypdMu1MCK0ryLq8ouf3OM6sXXgrT43nhpiZk8T/GP/lIZvEniRqj2PNas03eWtuqXdUvuvZjlAOXg60DH4e+Fkr6BACeoyIdXuSca4hjt5wf+PT8uTtXBFtHILhpCfnis+EFswcfGU2KWEF+i11h1Mltz0IrbEBjgAlVfbgAxAZC+axMzCxUS2kBMQxHwP7y7j+Pjb54dyjr9IWbjhB8ENRHDGmnc5PLU/n5FCvmLjVGL+vXs3Ye6gF02Oo/CypTi3SBSup8SYQ4gn/tZG1S1cayYbnvvPRtdbjqv6kIwcXQq8GqOhijskTx88tbIivTIpvHoiHw63XTpQRuM1HybREyu0CXU7WJxsz46kSUDbZw1Et0XiT8wGUgxcXwJycWnfAko9Kk25Cma+52PckAAEDZcDRCbO9mouRH+fmZ8dXa0trEMlwCYZnthaWFrFx+25hopW2OWkaNjJJb1WKCjQAAsDikYHdKGIYlWqRitjJV13QlUWMSAcAIABAQgTGC8w1xH/ebUPtCOHT0F/gskHazZI1c4pzGzy+uTD2cM7kiL9T1hZSQb1dn3ZMa0fR1dmJlJEI4aDkcRnCsJmVhzqSK10OoXtDAGIj6feqtsarWe/n5350duGbK7NJHQ1lXSAhJmblIt/iOTdum9j+eJya6bhbaer7/p/fPOvNsCFQLGXAJSFrsij06uW2EK49iJbi0KjEvd0p5yEwuXR5D5syfE7sq/9+XZ2SWhIQMAICJfc6YQiIohEDZ4NQh271mSl7vypOJnEivsv6Aceh6mi4RMmnu431nDy6oGpdxUWBXMlJyW7VZ+yEgGAkMxIEc1CgbEIhABwCpgGAiAHzgZEUWX3KdLPESPg7RXdEtHEAjoFWjsN/HcG2/vO56Q/TmrzIX3Ei9AAAg59FX9Qc2ZphwCWD+X/1+9Re4FJT+yMAlEIGPwYdcsVAGLgFcuDHjx3A/Q7Co3av5lK/rlZ/0llC2kqCwbtXgMr5SbAnimvYr/xyMLFwMU5xFBMWXZztMcqu/yOkZar1DAXwENNZC0sLX990Px38QCtlBdVnLlo16buqAE90FghB+ST/SujQYeWgobBIT3P0cRk5XnlziQDIxsz0YeeEGygWzgnT8Lz9vTLeLj9wQZTAGdGZ7gvDXfESyLiSyj8ETfLmthVI87tkX7guF7FADl4LSdlhidenqLCLwG+/eldNVuQG3kOX/HPFWv9gaqStNs2KrnHQ+11VFAADQEFhBs+IdrrSKpOGhfiVvhEJ2qIEGgtXkkK9ypcUEB/3j6ud3VW7AhAxKrJrFT0sJZhEaDIauKuKWRzLPc4Dcs5ix3S4MCpXsUCNOY17CcW1jeYau8Y6uygyYkJ5RDUmu/1mOYIGFf3VVCT5QFpQZWlX/daW76RtFi/8x/slQ1hEqoCwor7OoL7rSA+JqlHPmz8jsisyACMEl0E0nt4lcaYNVeQ7lQn1H9wSDWE3rcn66n75mUqjrCBUYTrTZ9b+Y4GBCr7OTuyIvIEKO1yS/xk+3OuWHulJ5u6BhN82K3d1Whr65W1jqCQFSdC17+OkolXViV+T5TQg+DgkD46qn8/N6aBs2daXy9oDywF5UldrsSosQJw9HPSEBFm4L9I+t6YULwGvL2V/4RQjeACLAsFpEtL0YFhMADjja0X1dwboTQ9Y4uWu9Y+HV9MJw1dMV4IOgBgyCgVwrs6tAAw8FK9M/JjNgoWfFu8p6w70zz7UGW3Fn+M+ZYW/FqCx0nNqseeWnKa8B3FgftpXL8+b2iqqbkRLREqOSUnqNjJYD4nybSzAswkdgH8qFqkDr6dT+cnFn9GvdIw0LEa8kiwmY9NUTdduXLY8PtMLfI9b+K3vT9EElDwRyT4td0fyLIfoveQ9UrOq8dBs67LJWLR/2ebfIRgEZGCP4+nj2jv9fyAAASNc39gv0Hp3cFjkspWJl6bZE4+4NvR709z5RexfmvTPxhxeH753J3+MwUXJm9+WeLzz0+Mkbuq16vcGkTdh3oTk238GK5TKJwyECQBIR69f4G6tqlaVrm6cNG9t7ZurwMd8f2NlxN++zy1rw7j2LXxn10zyZuM0FqdKkq0rWt+SiQRA2F5jfEzAGBCcgCjBEAQY9AMSbKOlQM624J05t7iMhWK8fe4VRT20ozXrkr3N3+z87/ceyUVMth6Uc38hnKpSV4LPg0+Xy/+ANfAQ05kOKd+yHxZTnPo/pkIx7f8nY1zqXAgCvfTg18dedUSxfgGG/svz/yAgOuBAiG/YpV3tuwFkKSbx8+YiZvu4RdFlbv+nfdF+vM5GutMUhNapIui/KhtpQKTn11cf73pt+7vVeUYaesSpTpErmUHAs4lhMcA5G5LQ6SbvNKaUI4Bp0Curz7nc2fB+qum8UcAnkU07JWpnEKXPlGWwqbsHP99712Zsbdvu86YMPx/6NzyJXjDhcDKNDqdidf/pj78s/6b22a9v7W/7pCGMo67+RwEch3VJINvOf78jmVHvOo6/q+eUIgGt+R/n9T83lX0AIf4iGwt5QKjUu/crL6bomv8sjxEVo89+7ac3vgQDdBleUpGMUzYgpV95tSRWyx3MObOSXIwAADn6f/ki3yEa354jVSVqBgbdCrVTv6LrunZdqg0LiAAAU0pNSNxIoG05LSeY+Dtq8CB/OKhn9yCuzp7jSBACACOBV/o015ojFKBfMoVYoPbIpxjOvyqz9eVnh6Oee2zb14dpWjcB6LJc4PYv/7oEGw882mlzmSqulFMzOOuLeUyImv/xUzKD46l6uDJoRMz2Uho/CoYyKpBX8tJMVmZM0xnuef37vJ5+88e1/4jXmxfzr11rIrQcVol/hO9zd0e2Cdukno58FACCGJ196QC5xuGdbLXb5TjQCwmI0lEscMn7aSCkuoGxoawYI6vjXFbdgCwG4tr2gkdr/wM/rF1U7DwCASNM2DOdfiFO1bg2XInKSERBic0oaBQUQCNLyW7SFAABANuww0XK3y2xeypXkyS8/FUNEkLRwNw7ByXDpICUYKT9touVCQmho5idv1RYCAIAQcCxLuL0zlaQDRiZfeJKQSZ2Co2NAQGXYlCCwYCFqtMtaBAU4EDBwS7cQAIhUWHfy04ka0wRCQ1JCP1wH+HSADgUIhAUWUpohKUEBGgSHSm7lFvIbTvMTcRpTNwIBJ7RT2cNzdg4AAIGwhThZsbAJxAhjjgQbLuN3BMH593Rdk5KQiDihmTip/T2SrgJ5tBCK8yCkQUjIrbgO4QNlg4nm/ShVElpO0IxYeBDcDgqvO0MEwsOYSdEeg8RoISESgoVIhSVoD47fAxBg9xChktJAsBwhXJE7INLrrlBVjoRdlsUpJMRXmKTUCJPUM+9Wgt1Jup+ZYiSYuNAYaxWUwJB8vZSxsZ1PoxIjWmSdlfk9g2ZEvP/FTqLGrCnyKHPdvATttLRTQnRy6y1OiMQ9rtoZCUsUlPdazfAiSFSadOOvlzI2RtJp3BAtab+lu6xKs9btfNjqkBmI7R999kNhRYa7gEziHHe9lLHR0k6nUTqV7ZZtIdr8RWln6+PdhDgcolMEAMChqxlus3e00hJV9lPsdfE2tzKyTgnRkI5buIXIjMdrkjbh3+Y6AxOqPycAANafzH67hWqb7eplrV/ig6AOtzpmu7TTLktJ2m9eR+suwrj5z8bP397w4ObzmU+/tH3yapQN2wkAgNI1f9/5w/n+bhuWTm7T2kTkx+FWyOzovMtSSpy3cAu5hgceLf186YLvHwPgOVtvOp313OS+pzZrpNfMSwqJ4zF8DArREAhbJLUmm6JTQkgxE9Ix5KW3pmQlaoyvJWiMmfFqs1ZFUmIlSYsVEoaQip0ipcQhWIgqSYfIc/3kCZuDZDheEScn4ihWwlodEtbJijibg2SNlNxZ16qhWyhFrYMVHaynYpe8N29djacsd+VbP16+ZcuAoYWzsordEW5YDn2Oi/AVlAO+XVW6iCZa1Skh8hCNIfgskAXnev44LHnLOL5HZiigIB2BWBOSASDHSMmfevcI9PL0kBfYltaeys0/XZfgXhuIECYcWLQFF0HAzsadAWMELRYF21k5KcF2uYXgQpCfvxpbMSb9YsjJCBZamV1x0pC0xjNfQMh/ly0zbLmQOdXqIN15pIhV0Jz4CC6GLp/B5sPBioDhCK8YTgxHCFoNyxF9u1rXgZruO/pE18d1VU6okaZr8oq35eXB/frcHT8sKxy1xMHzFZaKGZUTiw4Z9gYXOgMAoODb7vP4aQaLMIDYa3fygiH2U346O7Hi9nUrh9wZbL0z5s+JzU68ejs/z0zLfgGABYBgOnAwHhBkA4K+AJAKJES6/wC0KBtQqP4AINPiaLNOYA75f8Zz+ad5nzqLCC9vwoZ96iJ8HAL61eJSUNbvUwkcjy/uiDnjs2wBiCt2R9YLy0Y34w3BbQt88NH4pwSBYnZHnrwRgWJwMfSyH5EIgvWsXTXE63x/uww9+UzhM58eHvmGiZILupVoZetQjkNnqvZEHMPFMAsXdm4dPnol9csYpcU9ODtYEe4R3ZDvqywaA0yjRfkgvzvrEWXQFeAeKzurxxdoBzGGnxYBtxshCD7cXRDARyHd6iQPy8ROjSuPYiSw50ovrwgYHTaZF17Y++Z3pwfccbouQbCLSABGiRrTYEDwFUWI6z775/Bl2vxFab5k/LS2b9ag+Oop/LwLjXHfdBTUckh+5YHjVcmCMxTDUssf/Xldn8Ed6esLMtLZh59OjjCWBiqjK8BFENfKyI4oSYeOn//1iaHHVrz9H68YMZ32YX94umjPgAk16pUluT8abCqvX5ZMzEiGJFU+DSDz6Rgdr2lZJxUx7i7CYFXaByRVP9VZvTm6ilk1Zq1780YmdqIYtXFnoN1NlMLi6Yp6XaPVVbbqdqullMBj81RdYs2cpwp9TpL8GlQQAm7OU0cmzN8xPf6zoyO2XmrWC2ZCFCNeZ9z8Zy9CDm1Ke6xfbK0g5lV1a8TLaCC492AiJy/66MuVOY96vmg0BiiLUzaNv+DqH1sbVbCx5xJ/dHZBK7MJw7kS4XPi8MTrf5/4TnJEi2DJ0ErJqMyY6iHtfbMkqMENY0DffT3oCYWYekYqZukxiWWjUR7YBWXOAlnTENGUoDa5nSjKGqOv9Lzb4DYt6yctmvz55PXfPdj/JBReTT8/4avn8zyJPbM9/r/9YmvvdqWtTim350LvzPsfKz3rj6671veqH9/tQtsvlIMclAPFAADq+9/t5eue1h/mXfBHtjZ/qRZY50B3hkhSytf/o49H25/P2ytcR2GYgIZCu9HygtqvvjYonvwCAL5or0zxr2nLhiaWu8lgOAL3iDG4Y19p85dq/zbmh1UP9r82803UmPoAMIMAhEcg+ulrH2qwqhpckwKlhCZSow3bACDdH12lYq/Dme7x8ON7v399dLeLD8epr+1i17Vq4L0Dd8Bn5gUS2PumHytIZlBu6pWCddO/hMlfz4ETdSlj+PpnRDZ6LmqLOiIDIEyRrfFxSOgfUzOHn3e6Pn4rGgznXOkXc3d99kLeXnf/vutin2PGzX/Z6ykL5YL5ilH/DD8vM7Ym7ce1fd/xRxeZyCmcLqO2YPozskry03TNIBMzIBMzkKZrhoXjt/kj1o1pmScgQmaHB/p5zxW0crswA3VMBkCYCCm5mrJDLnG4ZbdQCkdWdLU7ztZLb03JenrYgemuYMsGmwpvv9Sz3YDEuZMqVp2qSzjOzxuecvmvuBS8jjd4Qi5xCp8RhfbrBhnaa96wPaK8Q4bpZB4ubhx02s2GnJBfdsTfPSSxcgA/r9YU8Sr/vMn9fUq3xijbxtYdF/ru3LLk3+egA2Qm19xjpts2tDRSSnyyImlPR/cAAEhFjPAZiTZCNp3OWmuk5E0MRzgZjnAaKXnTt6cGrYUAunJXK9DKvf0LfbSQTo+PhZQQvAFEcjH1DT/MeHlLZGXfe2vdwTG/X535xqj0XxNd6SqTlpk1usjnIpEPNBAaKo06gfllUEJVv51r+3RozpGKGGGXxSPk4TnFT+hG2KMkORwpyeFI3Qh71FPPFs6EvW9SXoLaQYTs2kvXkN5f0HBd46HRq5AHQkrIXtTjgxRti3vlzmICWmzKR1wrY3wU9KMyfv0b/56SqpSF/n4PpP+E2qXnDbGCBeWQxKvv4hPQ7rE3idijhVCh7bIi5Ne4U0u9ORQhj5ktcR1bCD4K+sEJlX/i552sSSgYPKlyvytdWJWxix+RrrQ20TR59qk3A6mnT3T9OBvPuUyvsEqOXU3e0V55kmCFU/sQjyES4toOgspHC/H6IIGt84NQISOksCpjs0ZKufveVlrmHBJd5Q66cm5nwvjclCtu0weHEVxujgo41i3KhqtlTTHv8/MGJ1Tdtn9juk9ZXtNeURsha1YMXd9yUM41H5Bzc9/Ob9VNeL9/oPq4WoFY5L3O81rkqTv/gGVICDmyKS03J7l8BD/v1+boD1DetQM4eAOIlCL7OoL3izlamXrygdmlgc0xf8PACVXzrxoj3T4ACGHooW9c4SvihITwIETSRsiDA07cp5XZkU5uR/NH7woqWoWrFRA+7JVeLcR6nQhRy6n1/KhB1eaIxix7pfvbH4dE3Zbyxxabg8RV1qjpECQQAq7WpJnm5ETuJ45Tt8oO/ZLhFQlb4tlCFLwui2f1xR1vm7cL0W9GacJ7rw0IT0KirwMhO77p80LfmLoUfp7NKXscTQMWAACXQHxWQqVgYXeiOuk/02aV+GWeaA+5U8qPnDfECbZAh6VcGXn+x3j3ZhbeACKRZ9S3E22EbDiVtc1CS2kLLaW/KBp+LBg9XC/dl0UfeXJs6pyQLrn647NAVtfVLuLnna2PP9l/Qq27KzpRk7wlK6HSPZDXW9TU8MTLT3SlXhcye1b/sa5aPTFO1aoDuPZyNDL7RlwG0agH0JAB3g4SU9teyuwniqfPdl/Y9dtfYHCNISIf307xIulymFvIj6V91yRGGN2ObDQr5vrF17rXFCe2Jo0eGF81lH/POUPcAk9DZLBAPYA2O5SPYN5zJ2iM6qLTqV8DAIADfDlIhGW30Kt78pU3NYyErP4ip+eo9EuC0HXnG2LXoMFQ4UorSfprvlIXDDFVY6eWvRdsnb7Q6866H38xxAp+2oOTKh88viV5JJA+Wsje8JiLPF8+xsJ6MEbYn53KoJXrrm9cq5TQ7vubbCrLoPhq91ixe33vuT30BveKnOEIMNoUUwOt56337rloPiR1mg/JHG+8e4/PcadPfP1DLXa5e2UmJjiIVrVuBJGPOF8xbc+86rPcb6oLNHa6SMTSRSK2ukBjn79o4i8wekHXT215EM9ynqtE3wiKkE1fDprAX1MAAFBO8XOujy3iMpD2jal9m3/9eHXKrmA+nvXi8IJ0tZQWq6WU5M8jCjJ8lUFZYLTRUsEuZFKEMbq8MfITr8INbc88c3DJpAS1WUYSLEESLJGgNsvmjvjZ5x5JwIgRvlv+BwY6QlCEdNcbBF3R5WZ9edI445eu9I9F/VbHq03usaXZrmByksunQRDgt/GOpqZJdxhXV5m0gsNHabpmb/ch9XX6mGaDByHhaiHfrs56PTO+2m07YjGCDH2T+/jC8uV53UakXRJ+hLEqdQnKDm4v+/0Dd9SYKDljouTM+/vHdhiAMynS+JCD87Fk5kPe9szrT2VtqDZH0DQr5mhWzFWbI+jF++6s6Oh2v+FBPPazhQQEvAFEF3dGOfi+RWU7Yjbzy+zd0KNIcH1ndMP19IOq3adZ1mGkuiOg6VyKf9Dmvz+aL1ub//5o1zV8ENTCrwWRfgX0CaiFLKsbuamHvtHtNGB1kM7uUQ3uncHVX2TfMTztknuay2EENgc543r6QcUpzfNaaWn7oQHFQLZ7LZSQCd+t3enD+ugDfhMy4tmXek7ue0rwKYZai2Yhym6z8feIahSYUAor0o8PnFj9s791hAIoG2xqkm4/0DMXuhbSISTCKTfNiENLyJzMgx8laY3u8nUWdUN3SePfXem3379r3rCUcre9ykzLuBFpl+/yV34gWPuvId/YDpN2ayFp/8fHo37W3rd4oKBANqyxMxLfDnHitpNha1YMXc+XE4y1t10wQuJtnnFd2oFfhLz4ziPx9/Y5J3i5FloxB41pswuNySgTfO3yZH3iMn7rCSUmDyidJJc4ZArSIZuVVTzW8zpCgOUS5ys+b+baCHlwwIn7OpLTRUTwE3anf4T4tQAaEn3x0WiFxT0wX26Oqu1xV7070Nkzr09bOTx1g+As4MiUSy/gEhB0HQxHcJRTwlWZtbavTw6t+efRkTOMm/8acHwuvqmk3anwYNjpKBZdJglWuHbBvLOTAVh7P1g65qeZWceH6xUWKek26f+lAyWFLaTJpgjdoK6Q0gLvuyZKITBzj+t+YRb4ATHBESopLe4dXa95Ma+gd7ARR787m7W5yaaEJpsS3tpzt88yCAEmEesrxnqC658Np7K2dSbHhT/mFI6OV5nkpOf+SntAIPDlrTZpW9oryodfLaTFphS4Y0oILLhvXLeLAZsaSHGnh6faxcP/UzQLADx+BD56KARXPLPqbJpsAPNKAIDZTxTNAIAZwhK+f/UY/PlAPHbP7sy0YqCGbPNEudQc5RchfrHdZFfu46dTI5ru5H9naeOZQYsPX02ru9wcZTVRcqeFljJOVrhjY6GljIWWMpVGne1oZWrz/J0Tz/IfIDAg7P3nE6meGTKCGRmEHFhRnLf3XEOcuZWWMu0tPvndL8WIBGNunVW3pZOH8h85j76qr92rES6wjsFN9QF6XzAfklX5XByG+HieJ3AJDGCKkfsLE2W7orE2f6lf3bNfLaToq0VNh8ozBF53NCNegksgpb17bjS+Wz3wPrWUSvR1zeKQbQ/0FJi/wEUw1OIgC0S8o9T7r3Rv8HU6wBf87vvP1Mf+YUJvyVGZ+JrzoFTESEtrEwu1+S/396wMl4DCay+ChQhw8n4AGMT8NcFveXLgPDaVRKAGzNMTAQLw8sOSAG4ztZ+rj09ooVsfa+9ZVFIqimWIU9RRYptUxOwCDOUA0AgiqAdxm4clygRBv48LQQ6q3/SjQAoAegCIAhHEAsAQJyMaixGbreKFJrQ5SCisyJgJcLg9dQQIyMa0btXgnx7KPC74WpvVQYLy1o+NGDRWH8vZ8diTRff4Wz4gQnABiE9ZEysy46oTOi9986DZpqhUko5iliMmKkiHpPM7QoOjlWkVt+WXZ7R3OMcXAjIuojHAZMZV9y1rjOnQMfpmgcGmwidqkt6NvN2WJstlpihkjsSz9fE7KEYSVmMnxgh+bYraf1tseZ9AyADowob/xn8P6X2yNuF5J4fGyElnrELi0EXKbRApt4GYYEEto4EADBoZBQiwL8djiJBTgHDH78buJIH2+L6WgxWDzUkC5RQDxUrASpPgYMVQb1WD0SavMVhV1Q6naPuyzI0LXe5IfDwzf+qgjOiW52LV5sGRckuaUuLQ6hR20MpsoOH56KpltNurhMMIzNS14YPFBJhpGZgoOZjsMjDRcjDTskYLLS23OsnT+gjroscfP1oW+FsF+H/SIEjDga13gQAAAABJRU5ErkJggg==;" vertex="1" parent="rh1XRBT-aMwfdlD4D-t0-9">
          <mxGeometry x="181.35833333333335" y="170" width="91.94444444444444" height="91.94444444444444" as="geometry" />
        </mxCell>
        <mxCell id="rh1XRBT-aMwfdlD4D-t0-17" value="Operational service" style="shape=image;verticalLabelPosition=bottom;labelBackgroundColor=default;verticalAlign=top;aspect=fixed;imageAspect=0;image=data:image/png,iVBORw0KGgoAAAANSUhEUgAAAGQAAABkCAYAAABw4pVUAAAABHNCSVQICAgIfAhkiAAAG3pJREFUeJztXXmcVMW1/qrqLr3OPgzDgGxGlLihogaNolHj+kLi/lSeJqgQRAUXcMvMIApolCcQxefTaIgbiQkuMUAUyIsxBMUIcYmoLA4zwzD71t13qar3B0z3vd0908v0gPLe9/uxVN2qU6fvubWdOucUwUGA/MvvHW0EP/oOtLbvcbV1OJhRIWikWCphL5HEJ6kJySImEboNqXRDqI0sUrhFeluftvW6taiGONC/oQfkQDOQLZQ5QyfC8M2Qavd3hd5YKpmZFR1iBUJq9/A/M6N8bviJtzbkmM3M+TnQDGSEJ6Gq/xq72PbVXiHV9oKc0pYMStuRdZ72o2/tenb5b3JKOwN8YwSizzjxDivwxQNCb1EHtCGhQGs7apfWevwtXcv/+3cD2lYSfO0F4pl+5nDbu32VHdh+eG9liB2oI5DrhdL9V0hsBUMzCNpgoxNAHgCAIR8SQyBRBoJhxNZPBREnS2oFktIUKrTGCds8Ld89p/3leV8OzK9L0u7+aigb6FPPvtEqem+p0NqU+GfE8nYyu+AZ21O/GNXYlnUjlRgLoV9PiJwiqZkgHBYezNX2Y6ZFlq1+Kus2MsDXViD69FPWGSUbJoJwVz6xfW1SCU2HxApUw85Zg5VQKPdPl8SeJ5nhFoykUDoPfdsObj03p20mwddPIAsRZI0j/skDO4a78qUilEjpEruifjZuhjFg7VchAK5XglqzQAR1PmKhobu0ju+cHF72m9qBav7rJZD7MYZEAu9ItavEmU2NohqhtZyJanyx33iZi5OI5X1DsrCLFxaqaOPe2gpUIzQQzX49BLIYOlpwPcAeArjX+YiahSvE8NarcSOs/c5XFfII966RLHySi6dQRZ0YXTtiIHgaEIF4bj7pDE5CU4QaOQ20OygpzwcAwnUQodoQtBWM13C9ebtU2xmAUwG4vkRIAsUYvNheUH/LQPCYNqqgQarLQazLnNlK1/C/2T/fOSHXzeVUIPqt486z1eZfc19NEYjsByUCpfuQefbDO+/LGXP9QSUosYOvS7XzfGe21nLMcnPx5sm5bConAsm/YH5haPQrb1iFH0wA6b9aSG098nHrsY+m54C13OFJqKTGt1YqoVOjeUKVaqRigvXQjpypXGjqIn3DP2VKWfeYX26zit7PiTAAwCr4qD0nhHKJG2HJYOh8YnsbonnUIpx1v4YcjjT9EkjguuvGGvnrdtl5W116JcK9IWoVPAqK06BiMIAgqkAgUQhgOCQuAvBzSNaVlLCks/AgSvvD24BgNjqlEr4Qkka/PKE3lmq3Hl2Zqyaylmxw8l3FodKXt/HgtjxnPrWDT4n8zpm4A90piSxAPsKoBDAznhOlc9Qf7Ue2nZ+03gEGvTfvcaF0TIumjeJuMb85CKA/E+deWtlWNApXb3ALg0hq+2eJeZ03pCUMAJiDdlRjFigugaCuzR737TpXn3XiYdnyN5AQSsccwrXobxR6s1+fevbDuaCdlUD0aafPMAv/cag7V84S87oXZcVFJV4BEf8GkOi6XjKTSMv+Q1b0BhpV6JDM/Jkzy87benUuSGcjEGLnff6wq3cK9WVU4T/7xUk11oBI18rKKvj40OBVt1zYL7oDBT+eJEKN7ta5t6bMO/X7J/aXbMYC8Uw7dS731unRDKF0w2PN6C8jAIBKPAWprOpJSmbAyH+/Kie0c4070E2495lomghwT8Pd/SWbsUCswK5rXBnMno+70dhfRqJQ7JvhWD/beZ8dmzPaOYZQOh6BjK1GuNp0Vn9pZiwQoe8Z6qjOoeC/+8uEC/fhc2IF/hhtz9PE9Kln35jTNnKFauwgVnBrT5L76vz+yVce3R+SmQnkfoyWSoj1JInl/wT3oKGvKtlAap1PutJ63Q9y3UauQCRbGUsIWAUf/7A/9DISCOscdo+rsvT+tT+N94og3oJQYsOWt2X0gLSTAwhP61pXWuu+qD/00hdIFYZwX+0Vziyu7nmlP433ilkIs+7hLbEM4e298AEGdZ/RcG/dGFQi4cg5fXLpYAUYgOdcL0ZSwIe/Z9twKnhajl8OuXd0VLpGvjtQ7fQLCxGEgGsilywcAMXl2ZJMT5KfYB7gbljtOBxW9Sed2TacCmrrd+Z61S5DKB153rqL7zFxYG3Y9BkTbuPa7iuF3jpI0kixVAwvwiK56kliPqrwZ1RhV6btpNRl0Tml9wi9cZ6rpKTwf3H97u7nnyzPtMFvIrQZJ7xiFr//o0zqENvXQo3SO/jDO59JXTqGPocsffp3lglPU5wwCPSmE1b9XxEGAAi96duZ1pFKqIj7dz7N7qxo024bc0m69XrtId4pF70WrnjzIqcZDuFeW+kaNdNa9PHSTBn8JsN/7VVH2Z6G1dz3VSn31tughiqZyVLX3AdJoHaO2aqEjjozlcVKUoHo15+3wCj/02zQmAkSNQt3CV/rybgXA2YC8w0DwYMoAUcJOIpBUA5LH0+F7zyhdRwB8ASBUbM4orSMu9pc9lavq9MEgWjTTr/UKtnwsmRG9Bnhnk2SRSaiCskPlP4fblQhj0rfbCHM28Bs3fmIcI/UGyfcF1m29oFkVV0C8U69tMIoWPeV8DRF5xZi+3dKpfvI/xdGFqhEEeX+RYJ1T3a+aSI0qC0nXmUufeeF+CougSi3HtlsF3xUFKuot0ndGIt7UJ8rHgPXXTfW9H9yn/A0HibU9iLJTB8kEZBUEMksCC1MhR4BxB6pRZbxB/b8PldtHzBUYhKR6ouSWp6eLGIHhK/h/O93P7XiLWfRqEA8N555b6R87f2ORxJSnolqrM8VX8Frbzi8u/yVT4XenFZ5bc+p7ebj7+TWD+RA4X6MJKa2STKzsCeLdQ+P+Br+fWjnr+ZHX8jeoakS1CzacpuLgJSP5lIYAGDp229PVxgAACLyCyY99LVVv2eE+7BdqubpEEqkJ4v7d3pM/19+6yxGAYCFRl4t9Kbol0i41g2CubnmiXt3H5q6lAPUBEAOjh4CAD/DP8HsC+GwIjRL3p8Y+I//uLgnTQGASNzlrEfs/AWoQkeu+ZF686D4PGIWvK3vmTjDW3PpVcTMc2mPJd3/5rwDjkq8Da4t6UlKFkGkeEP0TIkGrpk6iHtrx0QrCMUWBY2PDQQvgho+dwbrkMPbzjMeX780/PRvXpBqxwLnY0mzc+T82qPQmOM0uLPzPivQp0+cDgDUCnz5I8nM2J7D9q7GbAyI0lBS0+NME+H7zGVBTrDbVeFg7CEAMAthycI/dmYJvX42AFCh7TnF+UDqna8PGCPUdgmECrXJ9VzClT5oe8herCLcGzWZtQPbhwWumTqIghru0ziCDweMBeLetUJ43QIhaHGlD9YeAgDVEETSN3uSkpqw/Z/dSAWz3K5jAjUDxYN0mmgAILan1VUgz+0Ac5D3EAi1e7UzzfX2CyhoxB9XbuBUJFS61f1Ci7jS7XG2sQdzDwEAiX86k0JpH00BEedxOjC+c3tpu3sIlYq7CxB3zJGDvYfAA5f/u9Sb/VRS4VYTFyN9PX/GiOsh8QKR8QI5yHvIHLRDxN6BpIaXEqG4HcG74UuomCuQOHU/V+O7gNvjh3BIrStrC45vBIiMThGSGaCQ1L0jt1GUUClniJvUZZxAkoRJklq7Hp93MIEITcT+r0rKjDK3L4eNYfuNm3iBJIFgrZ5UZb7RcM4YUrEoMfI2ugpQ7DcrQcL1lAKxWfdBLRAi1dhhoFA51SJjnnPOtTRSePZ+40aqqeOGsPDBPWSZBTHjQ+FppJ3PPfGa0jUqmieZ9b39xg3XUy6jpBo6aHtIwaT5I1i4PCoQwtkWCgBK16io2lsqXSXsnrL9Ym2uwJN6XUvNg7iHeNpY99BXetY6PFC7jAKA1nrC/YTHVruCdD6LhQgOOD+WnnLIkiz89TW07ifaVs5sCz+74hK14+hpvpofPodK/IECQMeKB1errUdGdVhSCRUgpC0eaIYIUg9ZoNZB3EP2wlq0eVno6d9fCziMrfWWcTOswi0rJdunXiLmtajGu6jEgEVSIxFfSoEIYud0DvH95OJxXG27R2ptRwulo0CyiCKpoYDZVBKLgZqujeheC0XZpw004ZrtMuCRTECqnAiVQzJBuMYJ91rUzDMgffVEsHcYK3sktPSlunha0cY7X3jyVXXG+Het4vdiEW4EWYZKuR3VeCu+Yi5AZCB1D2E5mkOqoCmdh70Z8r/6PadFZi4gmZlUm9BLFIFhAE4k3DsVVRgTbyHv0i3pXSdPYqEhsb0BkRRgr2IuMjY2TglJQCI+nrIYeP97yKPw0nDZTju4NefCyBaShX0sPHR5fL5LIF2/XNKodx59KRFaLJNwH2xlA6rQbx/sOI4AShM/IuHWKBJJx/a3KaX20FXC2zC4v3RyDaE2J8TbSuhqoSdWvabfcPYjRvna26KW79QOQLK/0ns9d2YbrUG5/dDZtsP7i0gmASXhdFIxyh63vbGgZbZ/53f1GcefYyzZtCabdv1TppSFfL/6rjOPcM+/JIu8CILPINAMhlYQhMDRDd1hT0AgMAe5i0w0F0cRS39fMmPfF08S3EF6naz0aRMeNwZtmBYfconYwfck67wW1fgkbUYehp+0BZql2hWdD2hk0MdiwZ4jE8pWQqFmUa3QWwbFypa2iuMaS3EZUg5xib/j7KlG2Z+eiNIyijaL+S3jkINAMRnhfowhlrpRUisaH0ZtPb7JemyTK+pRrw47xhPv/tTTcFoVsb0uxqXSOR6EfETuzt+EalyDytTaYdYw/FmnMCCYFPqeSUkLV8Omtv8SiNhwJjyNherfvvV0qnaSgQh6RlzGW9j/whhJTO1vTmEQoUJpH5MQAaNPD6rIsvXVettRZ7HwkLhTREmk1n4cJH4FoezWbzplScGk+SOS0VBnjR3HfbUXO/OYMfj5viKM2g/X/IWFhrl8KOzgjsnqrUcc1xe/ySCJdYQzLfS2zZnS6BeqMJiYng1Om14AUFvGbwo/+8JL8cVTeuFGlm5cyz11Qb3x5DeJFUj8spit2t6aaYCnLVl9rra+BGrH7L4sf5iX1E5N1S7377yGmgWxwxtqEa61rUaGMb6k0uU2RRU5nBPSADUK35Is4rLYpKGKOrP43aSLpPTcoqshjF9suMDXcEW5vufU12mk2LUSokJ5qW3lzASBsDtGXCu89a6YV4Tn3+6Mp5X3g/mPqbecOBnxL7oaEQLPZc5s4asvUW477JG0eO6pw0Lxwfv3m5+Lb8pFDwi91bVlINwTEb7a43u7syTbiHJEnXns9RKRn4Jyw674fCJmIewqUQWNWPnNUm2PGlHQcOl2sbAxqlouuHD+D7tHvfw7q+hDKF0jPw18cfOEeMGyO8v/yH3150YbFrpQOw8/2ly0+eN0GFVmjWmw8z6LfaEUJ+JneA8Agv+2cEyyOp2vzf4sHdoFkxYVgFvHxJhVNzv516dNDBtl6937KIkLUI030QuyPa+W1qIP/wvAf/VWgIVGLOG+HTGLFkGl8DRGY18VTFpUEC5/7RmraO/KV6jtRwD2sYDbBYL76i8nVmBPz6JAUoPaWuMbAEamxSjl8aNAdD40hv3+Pjtv61VC3XuKTa086LvPAiZWqlhfncYO0j7WCm5fFxr9LPxfTIESPuQMJ/9Cb4rf1G7sSxhADqKSJkUVhghP3RRnFouUv+5cKhula54wBq2Pju9K+xGb2lbesT4JrQ5qFv/UmSW8dSO0mWOT+uglgFhuKxoSC6ZvFr8/SegtALUBakPoLYhUvJEW2R5YRf+AZGFYBYlrBam4Bw2QvoUBDJBAlO5DVklqxo4muc/kvtponC3fTy4eFxn0lyt63CSIFZBa+LBeAxLzh3c+Q0NDPnDmWYFtd6IKCe4NCaBW/G/Mqe5EaHutYbknMWSYZHGLU4GUw2zOBaLMKT/X9tUc5cwjZv5dTn8To2Dz61KNza1ax9jVXb/8ZZ8bTeGrO49wjyMmY0RRQkPX9lUHACSx3b/R0UP01nEvEtvbDEEtCGoR29usthz7IjIYynt6gVQS7Qsli+shFCndx3Jr87QCTHwYed4ZZpwaRTViYX1U3aLdenSVGdxSEX1uFtjGtzYm3yQ6UYU9ZE7hbMnqH+3Jsn27vq3OPGKmtejT3tU51I43/IsKxFjy3vUAru9JS4Rh4l0A6ce6ib50mniDRoJAiNu6Pym7abecBpSN3/q50FpjO3dJQYX/avTsjB9EsRX44l5Xna5D5qV7H4hYUL+IhstcG0rb99VCVKJXt7e+ekguIPe5DEbPkVxtxa1sReoekjuBPIhi7q25yZnFQkPW2Qtr/qcnrbSMWuOMSMdCFe3m4i3VmTQjvA3fIzxmXCbVblUJDVvVew3uXtrnWCDYp16TyXpIvIbGm9oRKmcCUZpHrZQsEh0Cie2xuG9XNOiKcveQs+3Adofqg0AxSjKPdVuFr5g1yBW02PbtOondPjI5LRK37KUxgWgzxr9M7vUKco9XeH4yqbPwgocTlZ2p0NML0ol7T1NfYJkTgah3jjjZDuw41ZnHzNKfo3qfA84KMIHwS06dntI1/EPjsc2ZrTH3wdZ33U3NopgfC5EQetNTqELijWvx+xDmWPYW/uNCqYSJVMPEKF+T9La2VIj1giT6yvgrO9h+EggnkZedXwix8pvsE2qid3+wv49e5JxbCNckoyVXIFtUQzA77zKARX+xVDs9SteohEjYCRtD3TVkOd5YlkqLnpee9L6UuDxlPwhEnXnELcK7+xAXUeG5Lnp28QDKhb/GtbFTQkNfMB56Py31RG+wHtqxgYUHu45A7cD205Q55edEM1aAAXFR3wY7hqyWcW8QrhuE64beeMqm7DiR+/5OQ6OvpxZI/5a9VdC4UT/fmUVD5R/yh+qjQ5HSNuxV21/jCC0bjFgV265HDsAram8gDcGLpNq5T7UtIWj4t1iMUtwMAx9DT/jwL4u9FHPpe9FeGsEaRJDFoWRfc0h8rykc4B6ito9dLvQ2h22qIkRefXRPocwZOtH27xrvrMMigysTFJHZ4mYYVPivdoWh19qC7Kvhv96XTDSQqBygi9DSGbIuG0CB6LNOPMwOfukKXcciZctxL3b2pAUxfu1kioYH7bIf+fyhbNtMBj5/95vMKHN92txfc4kye9hp0JDMhGhg9HfxL78yvh0iEwslIushi9OmFyU1HHG1Al3cWxudK5TbDr/N1v8V3ZFDUjDpuzTTS5E8N5y31ShbOxKSSL3hjO2Rp/6YoDLnesPlxPbWSyW8t0cQAUE7fwuBUxIIktiL0qaf/LxV8MmPpNKt7f0NflNvOH1n5IvjjkxP29sn4hxciUjn5Di7+0NuPfYC954CoEKZEb1scTF0odff73yuhA5Zk83lWUbZupGSGYpUIqoxeN2opIWq0Ua57jqFFHpbKQkVJcaGlLHfbBa//wOpdnhAOAXhVKodHmPw20nPSDIGSeghaX2LWQnE1hrdQ5FRvIM/2PZsT1rd9u3nhNYeM7O3fbZdvOMy9Bu9D/98fttzzCxwOR9JveWcJEUHaMiKg4xrRw6QQLRbx93HfbUx3ZEkEHpz1H1BnzFhtB380vXyWdfwR7K1b9J3n1VHuNcm3Gvr9Wf2GYCTq22XQ7K+f7hzyGoZt4Ka+QaEIiAUQc18w7P7nJ19Vc8ArndL0uwhmc0hK8DsTTWuyx6ZUfoqX7BnS0+aa40vShaJfsrUKG20//NTV/inTBB56o1opIkIUtyAVI0d9B7/40LtuKmPUrEha+l7PwYQDQIj0I4wVgJYmaxeZvCBudaShKRlU5ZRD9HXnvaK8DZFjQYI1yyu74meDOozTjjLDnzpWOYSUK5dif1oByWUjtmE60ktYAAAElqvz3KJ+CGLa2lptNMWSHDyrMOsoi2uqxiInTcP1TEdv603uVQoSsfID+yHat9Ot42coBohyYy+7s/N6+NZ7hBxL7mJUHIrEDP4zmNCa4stc63gHqE1PdiT9t74/dk8sMOhr/IIO7jt++nSzwTaTcc/T36mhcl9WlifevrbBRcuOMZVoArLIdTkBnEs5hmmzRj/spNOVtre3iDjBC+1JAcmiUhLIL4bri43Cz5xvVwK3xRUx/RCVvBz122XLFKxxNl7cgmzaPMPJDU9kpkes+S9M5MUkSDWnKSVRUwgZuE/LkxBJ3sw5DuTNE2BpDWp2/rWyVLtckzUJfV8fkM00JnvusueDgVWuHwBbf+Xt6AK7qFDUkGEKohVENKax9d5Gk+7sm3lnZnH53LNSL0shauxGpVsGwh3712Iy3cybW2vPvWMP5nFH5wilS6954ylDXf0xaO7h9i+tKL0pTdkESPO+s7nWu5YeZ+5b27rlY6gkhmK8DTkGYPWHZ5txFGtbdxKYvtBbD88def2VkwCPFmM9SFROi3j3kiDDgDALH13olTbvQkHXr1BwGXLy8yC1t6KOpHespf73eaYRLrq2cGtmatgaMaeBVGYSzZeA+AaAAjv+wMkGaEotsev76iZd4JAx9MAYC7deCWAK910evvq07kgXkZXdxS+Y4Qj0hWNlKQlkLSkTYT/z8600JrPcd6zpLYdu4B1jdhNjZJuYnstwnXb6U4AAITrNuG6Tc3CEOse3uLdddHHzh+QGYhM/JMEAsPjsyS1T8uYDgCtccJ6GhncQbhu97b5dA6/kjPXnMtk4aspfxbSPCYLTr6ruGvYL5qk6ggcRHATKvGLdOofKJD7PLski1QkeXQSqrAxSX5uMBdHQZDNPd671ChF3qd3FyYzSI9HWj2k81fzm5WuUW6rO648gioc0kuVAw79lmMu7EUYIMLzB1Si376LSTEX44mlrXO6Uqudh+5JRxhABqoTxSj7sS3Uv0ejvFFbZ+GKd4OTbj8yobFK+OCJO4uIIB/uD0Bx7gkAAAJeyLhDJYqgi08JAsTZYRGoQMzAQQmXD7Gtzmt7+y2SRkoAugVV9A3AXgOJHSBogoIGMEdE77vgHvcfhRfGPv4M6KAoBlACgTIAx0OyM8H5CZI5HJm5BiU86t8N/K03duJ+SgZQbz7uT1bRB67b2ojQDv7YiP2A3njiKuMXG89Lt3xGuiyr8IPzaKjCFX3gmyAMYvtqIJXfEa7t1yCOrHvETqNk4wWZ1MlM/V4NWxTVjqWRQel74B5AECsgldDQhZKFRqDavlh6zQoWKl9FhDqwyk5JwCIl/8PLdxzRm6dUb8j6wF+76fjDWWTIzRLkDFCrTFKzULLQXitwwiGZAUDus3mViYbH2GcXK/t+N0Ro6Lnx01ERRGggQgGkCsK1vXl2ENTy1hE7UEsE+0Po/N/OS+ZK7b/20mO5p3WG0DqOE7RrBKhZIJUwpBKCpDENh2SG46CPIBZ2hYJwDwj3gth7/4X0NBGu76C29k+pd883Fv/98wxeZxT/CzWEw4mf49DDAAAAAElFTkSuQmCC;" vertex="1" parent="rh1XRBT-aMwfdlD4D-t0-9">
          <mxGeometry x="25.052777777777777" y="170" width="91.94444444444444" height="91.94444444444444" as="geometry" />
        </mxCell>
        <mxCell id="rh1XRBT-aMwfdlD4D-t0-18" value="" style="group" vertex="1" connectable="0" parent="1">
          <mxGeometry x="90" y="450" width="290" height="310" as="geometry" />
        </mxCell>
        <mxCell id="rh1XRBT-aMwfdlD4D-t0-19" value="Virtual lab 3" style="rounded=1;whiteSpace=wrap;html=1;" vertex="1" parent="rh1XRBT-aMwfdlD4D-t0-18">
          <mxGeometry width="290" height="310" as="geometry" />
        </mxCell>
        <mxCell id="rh1XRBT-aMwfdlD4D-t0-20" value="" style="endArrow=classic;html=1;rounded=0;exitX=0.997;exitY=0.42;exitDx=0;exitDy=0;exitPerimeter=0;jumpSize=0;endSize=6;" edge="1" parent="rh1XRBT-aMwfdlD4D-t0-18">
          <mxGeometry width="50" height="50" relative="1" as="geometry">
            <mxPoint x="127.99913813888898" y="62" as="sourcePoint" />
            <mxPoint x="164.80833333333334" y="62" as="targetPoint" />
          </mxGeometry>
        </mxCell>
        <mxCell id="rh1XRBT-aMwfdlD4D-t0-21" value="" style="endArrow=classic;html=1;rounded=0;exitX=0.25;exitY=1;exitDx=0;exitDy=0;entryX=0.25;entryY=0;entryDx=0;entryDy=0;" edge="1" parent="rh1XRBT-aMwfdlD4D-t0-18">
          <mxGeometry width="50" height="50" relative="1" as="geometry">
            <mxPoint x="200.0667291666665" y="120" as="sourcePoint" />
            <mxPoint x="200.0667291666665" y="170" as="targetPoint" />
          </mxGeometry>
        </mxCell>
        <mxCell id="rh1XRBT-aMwfdlD4D-t0-22" value="" style="endArrow=classic;html=1;rounded=0;entryX=1;entryY=0.5;entryDx=0;entryDy=0;" edge="1" parent="rh1XRBT-aMwfdlD4D-t0-18">
          <mxGeometry width="50" height="50" relative="1" as="geometry">
            <mxPoint x="163.88888888888889" y="220" as="sourcePoint" />
            <mxPoint x="119.19469444444431" y="220" as="targetPoint" />
          </mxGeometry>
        </mxCell>
        <mxCell id="rh1XRBT-aMwfdlD4D-t0-23" value="Core development" style="shape=image;verticalLabelPosition=bottom;labelBackgroundColor=default;verticalAlign=top;aspect=fixed;imageAspect=0;image=data:image/png,iVBORw0KGgoAAAANSUhEUgAAAGQAAABkCAYAAABw4pVUAAAABHNCSVQICAgIfAhkiAAAGMVJREFUeJztXXmYFNW1P7V39VrdPfu+MAPDPqADAuKwqQQ0QwwYt7h8GJfEGM1LfGry9BkNKBj08SVucSEmQaIY3CXuIgiIbCLIIoOzL/T0vlfVfX/MdFFV3TPT3VM9AyS/76tv5lbdOvfce/rc5dxzT2FwFmDUwt9UNjQfOK8o7JpXHHCWGoRwoTkSsnN8kAWE6VkhAmY+FAkQDB8iSL+fpLqbddb9pUHnsxPcbR9iAOJI1+GMxx6uqP69nOqNeyyFXX6CRgggrauDMfrfyhv39sM186ePdJ3OOCAA6u28sU+0sBZnugLo7wrjBNpYOKn1urprlo50Pc8IrCut+9UJvS2itSDUVxAn0Yai2ubLpy//wUjUExuJQlPB6pq5ped1Nb47w9E4pr883YyxDUfoY3vEvxUAjgCAAwBcAOAFAHNfNgsAFABALgAU+0hmFoHE6awQNSaiGSQoeKZ8xvFnqs6/8MA7D36raaXOVKwcs+CmFpaLJvolOyjWc8Cc/xgCqBhKGQhgrJdk1nhJ2puonK/Nefzvx1x0o1Z1OmPxdPnMj8I4EddAPZTeiQCuRACkluUhALKLMdzuIZk4wUQxHH2QU/2+1mWeEUAAps9tZSfi+naCFPo0gslw+UYXyaziMVxQ87CHK2q+d9LSwkyWf1oBAYzuZIzd6oZo1NuaEMCoYeZlmoti43jZZyl0IgD9cPIy7EAADAL4WQQnAuoGaGKtGxAANUJ8mV0Uu13N015zYWumeMrILOvZymlzsgOB5SY+NDsr7DeRSLAAAPhIBoI4xfM47mREobk04GgsDLoJAJgFAFlyGggwOGTO+79xnvbbM8FjskAAdJCgXmSF6DL5/S+spZ/XOb+bMVJ8JYWXi2oX7rSWOETAhrQWEDAM7bSV/m6k6xMDAsA7GNNbaj43Fk76y0jzlhAli1ZY/15yztYohmuyOHs9b/wfR7pOaiAAqofSb1FONChxu63s9DK5LJ+2PPf9nGqtTRm/H+l6JQICMLlJtkPO61Fjdhc6XRbY3z//+rFb7JVxCzcnxfpbWO5RBHA+AshFAEYAAATAIYASBLAYAayK4ETCxVgEw0MIIHuk65cICOCcqGpK/M+CifePNF9QN+9u+xZ7hVvdmJ0609MIwJAMDQRgQQB/EBMIZZut4u1M1yFdtLPmPymn5XbfiGvJS8VTjqoGYtHBGO5IhxYCuCzaqxUSvQBBi+sq6qq15lsLIACzn6B9cn4frl6wesQYWlt5wW0CFjeT+sVQaCKACwUMU1hzNxRNOaoVz1oDAdwp53WnrbRjpBjBDpgLVL9m6iWNaN8op+slGTSv/vbFWtDWGgjAECAof4zXKIaj+8ddVDfsjDxZPut38kYL4aRPywE4RJDvyOk/XT5zl1a0tUY7a14r5/WVosmbhp2J7fGGv3u1pI8AqgQMk2YxxwxZvJb0tQQCKBNki+DdXJFv2JnoofV8jAEew3nUu+GjKToY05tyoa8cs+AmrcvQCq0682F5t7V8yhUTh0IPTyUzAqi0RgJELN1NGw5iAJ1DYSARcsPep+Tpca6272tdhlbgMULqpkgkwqKOr5cMhV5KAtnNFSu6Jy/Dbh1K4QPg/TBOSq45FYGeygyVM2SUBJ0fytNZEf8lw1IwAijgMVxtHp+fqfI+zaqU9iK+MeY2ZaqcoQIBVKqsFF40hJ3FpDQEARAAsI5AIhu7J2A4AMCOdAseDC8VTX0xivf2jtuyyrdlqpyhAAGYQPWj5KJBIwBcnumCV6hNG2/njUWZLJNrWMPdP/Z7K54sn/VHrmENl8myksGz5TN++Zm9YleT3trUQ7F+HsPFRHa4vqsJARRlhJEjxux71bYmHsPRopk3tWekwNMQ64vO2ThA4ye8eii9Y5ut9AZNGXmu7Lwn1SYSETD0QmndO5oWdJpju63sm1QFErv2WQpd7+eN/uGQmbhr/CWvR1RuOC6Kjb5RMO5nGtTxjMJ1U6+asHL0/LYPsqujbTpT0E/QfCpCEQFD7+aNOZy2x8p9NQtXBnFSQbRJb21GAP8+LjCDAAFgCCAbAdQggFkIYKmLZB5p0lu/iuBEQoGd0NuDj1TNvyylgh4bdcFSH8koBiw3pduF+jaZ/oPBgQDMHlr/UBAnQ2qhuCmduKpqbnLmpnsnLS08ZshS7IZ1M4YT/xFGekAAti7asE49KfKRNHqqYtaVgxJ4I3+8Q/6il2ScCCBfSyaXnn/92OfLpq3fZq/48luDvbFTZ+ps15nbW1iu9bjefuIrc/6hHbayPV/YSjYfM+UMyQxxugABNAQJKihv2y7GKNxyzrL+F9arq+b+RjUQiQigXkvGLqz/yZjjBnvSg+FT5bNcWpY/kkAA5T6C7pHXb7utNFg37257osz4MWOW2nNE8y3Jh6sX/DmV2cnT5TMQ1/DIZK35GCkggAkhnFRoyhPlsz6S58EBAD6zl19d6TsprYb9JO0HgAe0ZmiMtyMl/1y9EAEAbMRX6VoBA/iKEfnFIoah2L2rmnfVXz3tWmnmhQMAEAB3y19s01lWYgAerRkqDzhy1PdaWO6DtZX1t902eelV7TqzwnrMClGtWRhxYAAfBAh6bSxt4kNwbeP2P0sZlsy4OSdA0NI0N4STUdRrNNMcx/V2xW5jBCPcSOa0jHr9taTn7+TWIK5hVX0meBlJIABW7XC3prr+pwAA+EzHtz9ghYjkU+Sk2M1Y71EwzcGKEZ087WL0hzEAuRooPDf0Z6GGAABgAEEzH1TYuca52+8CAMDLfF0z5Q/ywt43MsUIK/AKgQQI6qQqiyLNCpFMsXI64F03xbpjiRmOxuIlM27OwS3RsHo3bm+mOGBEXnH6yU2xaoH0yBNnq4YAAGAAooDhknemgY/A7O7DN+E6MVqqytucMSYQUrhbuiidU5VFIYGzXEPAFvFvlqcLg+5FuDkaUvvhZsyVBQek2KEMY3RIlQXJE2ezhvThK3kiL+SuxDEkqu1UgUyVrtaQKEGqVUARc0R/lmsIACjOv5f7HQacQiKhyqROawZMpSEhcmCBnI3rEDkwAHcYP9UGRj7M4mGcFFT5MnbCFEdKl/0QRg0oEEoUwBb1ndVnwzFA0hBh5MOACxiuXpHbMli4QiA+UimQRGGSSgPujJ5LH2kECVqqc4igEH7YlOtX5SkeLmYCZJyGxKEw4NQNludMRhgnZP+TUbxNZ96pyjNsXoJBnBlUINaw/+wWCEFJ42qQoAT8o/zR63js1FjbzFoXDBczAYoa1LOdiwTP6i6rmeUk50MvpevG3/r0ide32U8F1NGJ0XnDxUwAZwadRln5wFmrIVzDirKvzfmSQCJA7McBALbaKySzd3bYl3XUlDss3uZ+WjeoQMx85CzWEJ1rN1e0MTb5nORpfbL3n/n3XNRD6+Ved85MmODVO4JXTLshziVGnWd98ZR7tObjdMOrhZNuvmPikhcUN18oqWuSN4SfoJ/XumB1Yy+afculg+V5vWDC/2rNx+kMadG1saj2tiXt+zeZo73mJb0QuQ4BbMMAnslU4Q5SP2iXRfO8pmPInZMuqy0MuO4tCLkm5oc8nDEaIg1CmNQLPM4IUcIgRBQLUQMfIdTrJzUCBM2L2KksUYwQQwQl+ElKiOKEGMBpwUWz0Q7GHHYy+vYITnzWach99JE9L7UNyOxfSs7dKv918r1n/TQ7A6L+9Vctui+OtjrPJ9mVj2lUNv1hTvX7ao/MkbqcFOtHCTzkFbal9aXTG74yF0hrAwIhPIITryGAcVo0irKBMHASerXZJg6MIAxZQxAAe8iU+92criPzdOLpcYaUiwb1e7miF9X3FQJ5Z8va7teKJy71k7R0jxYFfRgntyMATc9gR3ACeBxH6vs8hiu6MQHwsUMta0vWqHdrvJ15Q6WjNcr8juTiba2oXrBaHYAyghPR7jRDZwAAfJQ96i45PR/JiIkO4vTFVZTyhXECvVQ89cJ0y71i2vJcuRMHAkBuSncIAfwPArgcAcxHAFNRr9N0CQKwyi5LuuUmAgKY4CWZsGw2m7w5+6myGX9KFP+qS2faiQBS+tUiAEMnY1Q4Hh8x5hzoJy/5nd7Wqcyb3YPS3BZYPXrBzXJajQbbXjQCgWIQwOggQSmC9awvntqdEpHHR9Xf56LYuKNbAoaJLazlSwRwDUrCOrzdVvqy6lcvogGCWn5pLT4/qjoy9mF21QspMd+Hh0ZftEFOp4nlhj1IDErgRhokKHRj7ZU/SpnYc6V1c/dbCvxqoUiEcTLyROXMtVzDirJE77+XPbY2hJOKxt3PFcYNZmrs4JRCDBKU+EFWzZRU+X+0eu5+Fc/XpEpjKEAAeR5S16lut2fKZ6QfMgQB4H8um/5WF2NMeNBxp7WE7+9g5gFz/mF53i7aEEBJxNNCALpWHacIcPaVOb871e5mnWrBiwDiFqOZRJPeekDdXvt6o5qmFCMgIZZPW577p4pZrx8z2BVhlD7Nqvhrovxb7WXXqZnZYy24VZ7HdsmKx18or/txooY+bM5bqD7j+GFO9R9S4fm1/PHtKh7mplbr9PHbsZc8pK6/h9QFEUC/M760BjcEgL1aNPlGfTR0K4OE8Jyuo/UYQFCVh27TWRwFIbfkRHHUkN1Y7e+WTMv2xSuWPLlnw6s/bN0L2+zlhxad//MZrk13KI4gHDDnvzPO035xLO0nGfHDrDETL+3Y93UyvP4rd3Tngs7Dcp/iOgzgCwAA06UPj070jvf1uw4nQ5trWMOBEJ0k3SCofXL+Hx9VH/z5sY/V66hFGMDwR8vbaSt7Sv7L6BukpdkZ17CGWzNqjnQE4oTeltCPFwGY1TO0fZaCxmT5+CR7lDo6tbTIfb50+l8b9TYUxEkUxEnUqLehW2qXIai/L6l9fK5hVf3FM29BLopFc2bfFsf/G/nj1d17xgItDAgEUBAgaMXRuN1c4WvyPPfXLFwvj+87UFys7bbSG9Sq/3b+2IeS4WWHtbRH9a6kFX2xvhR0HbQ+JYE8VzYdIQC0tnJ2nEC2ZFWqBXLfYDSHPrAkwC5rybusEJFoO2l9pNbVKs1u7px0We0tx7f8COvzi+tmjOitouof90dves93z+23FOyW35t58vivEUDc8QY1WDGqrqOmtpMKX683bJUvfklhjcS5uA3azWoukG/M+RdPdTZPkN9rZyx3y8+bXNq6742c8CkHyXfzxm5+bcvzBweiO9HdttBDndrQMkdD5F6u6MOB3gEAYES+X4FsLKpd76JYB4/hUR7Doy6KdbxcMHk9pBA8hosG+/7G+xfGnsngSJauJkAAxHd6q+LgaN+XDaTJwz8LJt4vf97c+8GWpHYFD5jz71B3MZtzawY055zQ29RrKM3O2nMNq+ob9TaEANBBU15cl+UlGXWXNaEfUhI01ZCPs6tWlwSc0spdwHBw0oarMejtmxCA/YKTx34jf2eXteRBDCCcDP3xnvY1h0y5x+T3pjqbHkYA/R57owbQEC1g4Xv3j0y82k0ZgEBxbmbDpyEIwO6mdIoo17tUXcpWe8WX8ud7LYUpn7JFACV+1YRhl7V4e3/5u2mD+vB+/KnXNME1rKqPaYGTYuM0JMHey6Db4pppyDZbxSZzNCT1vV5SF53qapGCrhy0FCyY3tMomT5EDIPjxqyrUy0HA2g6as5ZJb83xdky7VN7eUJajCj0qyEvlpy7wUmxYg/Fir+c0OC1Llo1PlV+YlpAxmtDokXe8HzAcrutbLraMrzbWiwF1E80tmyzle1JtzwEgH/XOzZJ9NoZUxAliDgRJCh13BHJbBPESWl8cdB6lKpAuIZV9TEt8BN0nIYk+IYW2w8pCZpoiIkPbZD/QlpZy8laZ/NvY+mt9so18rElQNCoxZKVuqWzDxiA2K4zL4viBIrdywt7dVuzKt5S56UG0BCIzbsBAKVpkSf6SODKoy2991DcvUE1ZMgCeTe35vaxno4S+b0AqbseAxAAABBAfq27WWG/2sMV/X1Z466kzBP9YXrPie2HzHkKq/F5jsbZhyz50mYWAiAIJKpbWhLIPwpr3/SRTNhHMuGny2d+mQ4fsUbH4ht/+LssBEC36DhFYMwD5nxFV7SbK94pf97R27UMqrpJls+060yKlXirjvPEptEIQK+eJiMNN6e4hlX1MbpRDI/rshLExx90k21IGvJ23tgXC0MuqXHDOCmO87Q3xNJ7uKL6Se6Wc+XvHLTk3ac2RKYLDCDsoQ1Xy3+bBSGXaSdXGrM+J3KQyMhuoVZdVtpYV1FX7SMZxfRzD1f4gjzPEWN2i/z5N8acjBwoPWjO3SwvJ4rhaDdXPBsB5CfQEM0OAMk1BAEoNAQB4PJnImBJCSNtDRnlPrnewIel9x200TfZ1SqNFe/njPllla9bWhXzGA4uWp/yl5gfqFl4xEMyUQ+pi9xfszDhuFPj6bzcSbHSyoxEImSHva9A4jhfEs/PlU7/W6vOHAzjhBDGCaFVZw7eM/6Sb5I1Lg4CRdsKWHICSQsbCycvUvePLTruuthzBMC06SyKsWWHrWzzACT7hYc8tdh0U/07Z7fouGvV2tCot21OoCFSN6aFtXcADaHlz8I4kdQJ1rQ0ZJSv+6/y/vG4wX6iKOR6IZZ+O2/cuvyQWxpbemg9X9dzYhmkAbkT50BT06KQa10LyykOH5UFehK5D2XEwj1YORnrsl4urv3tRHerZDsSMAwq/A7p+MJTo2ZUznJ8q/wII1f6KAbghjSwqnp+m5tieTfF8quq5rYOlLco6Lo8ghODVVyq84bi2n+0spZwGCfFME6KrawlvHLMhd+lw+dA5QAAoEx0WQiAOGLIUuynHzXmKD5i8nFW1U7l8+H9rJz6IysJLvPgVJLDIF2WSf7MS9JJBfRJSUPWVs7eWOU/KYVT8pN0dJSva3ksva7knPkzHd9K01wRwyBA0FfErL3Dgbyg5y4vyQxktKQHeKYlFG0bxOmkLNpJC2TWvDurl7TtV3yKoV1nfhCTRfCp8p1UmFC22cp3T3K3fpBsGVoAAwiY+PBA38/VTEMGgWKPJ0yQ2gpk+bHPHi8KuqT8HTpT1yjfScmA+Luai+46r+eEZK/yUDpxluP4RcnSTwXri6b+LUDQQT9BBx+rvOADbvHKSaosLwZxal8/r0sm8BdLzt0gp5OOtXcAKAQfIOPiuiREUgL5xdSr87/XcVDRuD5KvxyT2YXmdB+9T/58L1e4FlPFv9IKS9r2fZ8VIjq9ENFd0/xFnJ8VBoBYMfrf/bwuCeSHLXsWD0RniFA4agcJDQUytfvIj7PDPmlgPm7Iaq/ydkqBzm6tXfbszJPHFfap2d3f3q4eUKMYLnhJJnrIlOu+d9ziQ+lGHEWK//udL2yO4MTxBPdPbRKlYO1dXTXnvTadJRDGCck64dz0q48GeEWhIQ5ar92grhfCigM7DkavMHPP6zqclL8siUTcyIfJMd5O8y+OfjQm3YijrxbVbnLQBnDQBnig5uKEeTAARIvCxgSPCmL//KOw9s3B6MTwk8Zt9fkhN0vHm/P7g1WeaGU5dWywhEhqReqkDJQ8TYlI8d68riMpmxpoNOjhqX5xVdPOayDmNL2v74KEPVSj+kaHznwOhDzPAgBc27TzCgC4QknnVwnLRLLQrv0DSbM7D62fZJa5AX2rz0pKIElJ28EYPpGnSwOOC+VGulcKJ6/83F7WcdyQ5XdTbNRHMnwUU56O8pEM7yMZvpm1BnbYSnvuGXfJ1/IKpAYMxV8JUaq+oRP42WnQgWfKZnx80Jzn8ZIM39/i07Xp11J4xBBOKMbcDqP1tfg30kTdvLvt7TqzeoH1U80KyBA8pK5FPY71XRn9RCoCmMBjmHRS4KgxG2n+2aZXCiYr3OpDvZ9iKBn8zZHBq4WTFvcjDOQldd0oxVNgyQIBnOsl6ZPy8p4tPy/pbz0m3fcfsObesKiT2qHri/LGiDyzjyvcxtX/13i1xzrqDYKmdn6zgLKLJCHeLYaF+E0lk4pPDOL9sCiQmdoPmvMLnCHvdf3VxciHsgQM3x/C8TcZgf8XAJyA3il6J8g8LDEARb+PlPwx0OtSlAW9XzudGsWIuQgJ5xj5U4bdAEHDtqyKK6Hx8/7YSR8vFU95T/1r85H0QHajf/sro9/rQgBk3+mfEa9oKpeD1jeFCHKjn6Ajw1lu34ecM2vuRwCWI8acr0e6kZO5uhijuNtatDLWKAgg+4A5/50gQQ30DcIhXyJg6Kgx6xOUhjNH2mbxVwqmjtlrLfh5FMPmsGI0V89HrLZIAGyRAJBIABMfBhwhMPMhwBACS7wnOFj6ng2EIEErwuABAERwEgIkDSGchBBBgZ+gIYKT0KkzgYti27ppY2sEI95au/+VB2PuSHLcOnnp5Aq/87bciGeKLeQrMwgRzhoNAhcNQCzWCwCAiQ9LnokihoGH7B0+BAwHD6UDN8WCm+z966F0J30kc8JP0F/ZBf+K64/vOJp6qwL8P19rN9h5V6VcAAAAAElFTkSuQmCC;" vertex="1" parent="rh1XRBT-aMwfdlD4D-t0-18">
          <mxGeometry x="25.052777777777777" y="10" width="91.94444444444444" height="91.94444444444444" as="geometry" />
        </mxCell>
        <mxCell id="rh1XRBT-aMwfdlD4D-t0-24" value="First user" style="shape=image;verticalLabelPosition=bottom;labelBackgroundColor=default;verticalAlign=top;aspect=fixed;imageAspect=0;image=data:image/png,iVBORw0KGgoAAAANSUhEUgAAAGQAAABkCAYAAABw4pVUAAAABHNCSVQICAgIfAhkiAAAHWtJREFUeJztXXd8VFXafs65ZWp6QhISSOhVigjSFgG7WECJEkooBmyLBdfF1fVDXHZxLcuu7CoEgyAoIKJgRURgLYh0EEFAIZgGpE8y9Zbz/QEzuXdmQmaSCSjf9/x++WXOuae89z73tPe8570ElwE6jv5zh9GmQ4PSafW1bbiqDAtxp0UTV0Is5zRBJWYT8SCaujwOZpBd4O12JpQVKnEHM2hV/hVtS7aQuVAv9T14QS61AE3Fvinpw8thnplI7L/rzJclmYmnSeWcUa2OPZ6M/x5SUp+b/dbmHREWM2z8pghhMyB86u7+Si++eFwaVxMbybI94PCRq2fJh+5ejy5bs2JtJMsOB78ZQpZPHPDENYaf/prBVQotWY+L8fjAdUXRe55+j6xZ8/p7LVlXMPzqCXlp/MiMQeLJjYPFk10bSlOmWkso2LYEYv8GwDFwqICMalDUgkM0AIAhBipagyEZBG3qmGEoB3WgiUjWYGU6mYAljsEnlsi/u+HQmnk/t8zdBeJXTcjzE6+/b6Jx17/TaDXvf61SNdWWKrFLexhLXyGv4URT62D3oXudYpgOwnKtxBNAzmE5Rdng7v3AU299tqSpdYSDXy0heROHbJ1s3jFchKKLr1LN1XHU8RBS8Q6ZCzlS9bE54MuKLA8ZqTwvirh1xMiM4ktPxy9GZh67KZJ1BsOvjhA2DVE7WOb3A4WCDG28C7z6s5S0sIe1dDZZCHeL1f8grDVuwxwrJ83ioFLttf1SetG7yqCBf31zbXFL1f+rIoQ9gC5nJevXrWhdoja+QI4vzCSVI0k+frposszA1TXM9FEMcepkOSilVfcSitNIHhwtUe+vghA2Ewa4MV0C94IAxaS9VqjGvdOGVk0keZAugVzRNS7TphjivFobf0BKK+ktFGe2hEwtQkh+ztUjkuDIjeJcwxJhj+KJEgMAdcwApyrIMmiVgSiFGVzFyTSuhgMwFIDuTWQgOCKnvNJjaekjLSFjqGBZEJ2xwgoTke7Wxu+SMr4d8MapwZGuL6KErM3pe3MGV7HyKqEwnoA1uRwVBHuktvMGvHHqmQiK12SwOaBniqM+TKa1t2jj33P2XnHXigM5kawrIoS0HTU/7vmEdR9lGfYO5knz1UIfOnq+evvKQw9FQLSIgc2AUKWYt8RxjqHeOBcT2AEpbfDAZQURU7nQxpNcGLnZuclLk944kW3cHREyAOA2y6GaiBQUQZA8SHHMcYtNNZ3xxhmJRBI4+wcsgj1Nswi5I2tq98ni1qJrxWM6vVI1MzmKldh/QMUwqEgBjyiSBwIP4gBkgOE2ELwkgasLVq6k0llsKpKaI1tLgCxFbTTnvFUG9b15HbmypPU5veZErI6mZhww5k8JL0evOTHUcCJaG3+WRS1p5ap9jKyAvbEy2AzEAJjDgMf8BfnW3f7TwctP3BIs36VGaW70qynU9oA3XCAn2DOXVkQRNGPgPI8mt5BZUZ/t0JKhgrBKWGYlL6mdEQoZAEDyUEPyMIswjJVBdYu9PmLRTctzBnRuqnwtiRST7UmHKvruMZOvsLyQff2LkSi7SYQsnHDNzCzjvo76gtishDz7gqaUR5ZgHQ/1dhXEN683EQ8xMvnjppTX0iALYTNznv/Rxo0wHpsYibLDJoQBZITh+ItU0zqdENaQPPyzOYKQPGyijOlmVrcYf+h47dhHbm1OuS0GBxY7meBbrfflC5OfHX/jgOYWGzYhiycMfa4HX2Lwht2Mt5skaWZzBQEAsgRL3OA3esNW4sY9ht3PRqLsSIOsgL0GpqXeME9U9OTPPNXccsMmpI9YNEkbNhB5PnkDZc0VRFPewyrq588jDUf7RKrsSCOFs72ssvrpSHuu/Lrmlhk2IZ35s+ne3wqoAhWvN1cILchiHC9TrJ96wx34cu75idffF8k6IgWyCAWnWdQxb/gKvsSSe1d2r+aUGRYhbAY6xBEH5w2XqZbD5HWcuVCepiCZr12sDfegJXdEuo5IQWbceu9vnqgYZflhTHPKC4uQvVKbp7XhWpi+aU7lDcKMzW7G+7qt9kJlhxapJwJoS6u2aMOJ1H5bc8oLmRA2Da17C8XjtHGdyNl1zam8IZAFcO70ZFR6wxxTTRdKf0lB9Hs0PYWSLmwOAracQ0VIhLAscOCxnEP9g1FAAQXfNbXixrDa2W+FhHO943ap3faWqqc5YNMQBUA3kMcSpxUluKepZYbGZBzm+Ve8yd0Vtyw/XNvUihvD255Bz7WqrXOnUFv0k/a7ngYurQ1b/qTBj3fhTme35apaWYkrIZq4TSBqcNUTwXyWi/+S11EUbj2N6rKO5SY93ZGWzdMmVEBxR+X00x+/uzg13Ap/i1g16ap140y77wwnT5VqrvxRTnpi8LJTSxtPXY8LdllLJw5a1IGW68hgIFjpuGrj/xUyAKAdV94j3Dxx1BE/SDyVf2BaWvXmqV3GhpqPa+jC7OzbPnjUum08r7FDrmEmebPc+ZF73tx/SbdVLzbkTqP+e1RNHu1hvMlIPR6OgQhECWn8Taa1xnZc5d2DenYdn9F7xPtfHbhwNx+0y5oz/ubnn7R8PttI6k2QCtW4ojZ81UCyCC1mAvNbAgMIpiIRHBJBkQAgtUY19Lcx880pnK2bACXgZT+lJLjecfSd+MdVmxucnQYQ8s/x12TlWnassRC375qNGfdEC67h5FUE3VD6f+jBZiK61m2eLTDP40YiG7TXbMzI8uoGP/PEqi1/DZZXR8jTOVlpU/mtv3Tgy33NsVy1nEoU7T3/n4zwwe5FfBmxLEik9hztg7YzEW+5B0y4782v3/bPoyPkw8k9K241HIr3huuYodpK3N1JHkojJWTWhKndb6GHn+nClXVOpjXxVs5jVlWiKoSqHpWT7Ex0OmBwUaKejeNcizouOft+pOq+VGAzMNrFhFVGIhm9cWWqVZ3juOXG195+Z7M2rY+Ql8aP/PPj1i1/8RXCCCMcG0kWYVukBLshe0bXReZ1R9pxFSGlz7MPrbnvra8jeg7kUoHlop2diHssxBPnjfvOk+F6uGZ8+s735/seCAXO2R2NNh18XFsAIewfkSQDAK4lJ/8QKhnnZFBjYke/8KtVv4cD8jpOWojnGjfjXd64q8VTxqnmr97VpqMA8HVBu4kduHLfm2hnoh0GPBdpobrypzs2nqoe546pkcuihQAAycP3BirfqoL4tlsnmHYPn3j35Lu8YQoAHMWftBlL1JjnyULYIi1QO76ilX9ckRL7xULH8JkzbVkTSpVonfbYRC66OW+LgyzGFw5VXOgNR1EXJpt2+PaU6Jgx97fqwxd38Ua4wcudWNm/WkIYK9xmbVhinC2dq7754ZXb/v3v1WvfTqW257XXm3qQ89cOa5T7Sa3B3XWGo7ELJg1/CADoEOvPd5qIxze4Vymmz8hStIjS0EQ9Rm24GuajOgtyitPa6+bLsIUA57YXojnnNG1cD1o6GwBoJjk7RHshhav9sKUEMRFZR4hDFcp1CQjK9ekvzxYCAEjBxhpm8pnMDhZPthkz5v5WNAZu/924/S0lgwH6VWsNM+kJEVCpDV6uLQQAyFyoCqOfeMMW4sEw09H7qJGTdEfHIKOwxYQA0y1Eq5mxSpeA1x+AuaxbCIB4av9MG07ja0bRaOKy6FJZWk5FQgnTaUjdqujSJajS28Zezi3kPL7XBlJITQdKmKo/ChzfMmfngMAWIoHXNwG73ufI5TrL0kB3/r2dUGGhAlH1auLKhvdImgsCfQtxET9CuusJuRzXIVqQPNS4Wf0zsMJtom7G6w+CyzAH5IwQKNMrM12q4N8EdIQIUBBP65pswfFbAAHzDRFW4gZVGNWvyBXEB+SKVOVE32XVMT0hwdwkZXA1Bv+4ywlOiL57djGB0aNKsv4sB0WbiyWMAwEtJABppMrYWJrfMtysfoRwg5doiRK9U5eC4aJZCTpVQ6OExBH7ZU6I4BtXnRAUulXtslzWjLWFctz1F0sYBxEa9RsSS5yXdZdVqMT6jA9rmbGMfrz6tQ+2S+19CYxEuvZiCeNQDI1Oo+I4x2XbQmJHz8/8QU71EeJRuYMUAL7xtPepvZNoXeLx3OSLYm1uZ8ZGCYmmnsu4hRir90rp67yTz95C8SIKAGvcV/2litXPdhNQu+y83WqLwqYaGu2yLMT56zW0biaq1z9WvWjNO2PXe3o9MMs2ZjnJw8cUAA6s+9tnH7h6+nRYcdQR6+DEV1paIBttvMuyEOkybiHncOeyA4sWrH5/CqAxtl7n7DtzjPHg+mhyTr1kJp4pbDq2kyVoMU9qFbK5UUJEyBEdQ2aNu6tvGq1+ujVf3SuV2mKtcPEW6ubNRKYGInEW4tEtRC3wcP7rJ384mCirmjWvpHKqiwiKnQmKxDjVoYpKNTNJp9Vod5VqLvUQ7uszcvLLL6xeXeJflq/yD99dvGHDxP7bJ5l3+TzcKIQsYtPZSbIEm/0zRgIVqrVRQkwRGkNYFsStls6fDBI2XKu1yIwEzH4kNqJ8agNgQDUz3f/3XHTxt5DX6ZZWuQeO/l5q7VsbcGDUQ7gNbDrCNjZuDAwEVbJZaSydAUqzWwh7DKYjUcmnRojHIk5GUxFLnOb9SvoK/3gdIZ+uXVi2QeqVZWeiL06EYnaD38HuR7PPYGvhYRxkSgNcUciM6lqNwmj35tb1VVXHjd34MynNLSfSyOQqAvxtBSjunlm58QM++/qXZ0VtedzrgNJAZKukct+U3Wv8Y1J+07w1bJ3ScTY0p79kcAzgA3Ynj8rJr/YQ6p2WXSWe+t3qyf1uGLd8z6am1JudnZt8lfDm77RxNmb8MRquVaA4ChUVYKgC4ACFHZzGnkCBSvIQMc9EbAauqFMNu63ULQIAAwmwoG9wsFo8fvCr0yw7HvB3uVTGonYl0dopZDEOhyzIJFjOGqwVrWidbzw4rrT6oXP+2Z4BaeeA/6U4vrgtrfSZDB2Xk6o61ZYlkbVotIvzx0uTrr//cdPnr3nDBUr8gcz8yr6RcBQTDtgD6OJShJ1GSD7/MKtd/cqz39yj83rU4BmH+97e/uCr9mHP1qgmneBJpLa/ysihotyYPWw6JrF7G9cOf8dnLNOS4WEc64Szo4OlJXMhl8uWsTKr78468WVxW02d8hurJxjcMh2hDXNM3XzRychFO7ssfqslw8UEbHF3CfCAccFDJ4+8vW3ue+4rrvtebq3bRaRgJI3WXAmCN12UP/3axCELY0fPzwxWxuc53fv24Yvv0sYdVVPeupCH0X7LCr/a62mjO0MxyFCQ88XEbldeSN5gMFKpmzbchqs+EG4ZzQF7ECm1xLhDa9MLACtd/fcsWfP2av/0jZ4CmrZi55Yr2pRE5TsGflKmWgPeLCORhX5C4QOAsTpY/lS+arWByL6usUy1OK/wFN/fWL0DyKlJJUqsb/PGSCTSSqz+LFzvbYm0zt8U9aJ6qyt0x22OIi6dxeZBKa0kt/32oJOkkI5lkblQc1fuGPWUfVzqa46hH/6sJOhmQi7Gr65e/1gAId9MyZzSgy/V+bwqZjF/0PrTir9j/r+WTR6Q4/+gyTK46pjxbu2Cqydfmrh1aueXQ5HZi1ji0DvvZxfvnMsz4277axuuSrdkqFWNrl6m4n4NfbOkSR7lGEDem9xnupm5HjRQxT0i7vhwsgBOXZosiCUxMRWtaY3PiOK4nHSy89Iyn2o54db5YxbFrXlvrGk/tkvtjoyqeniwP7GHpqV+2oMvvckbtjODusXTtdftyw/8EIqsmyZ3OXO94Wj9G8owgCzBLgCIuv3vXYLlqf1g9tFQyo4dvSAWitTbF8EJB7Ty/2vCcOfDlm36dRTBKLIYn6ABNGm/mgAMy/fnAchrKM2uqMyF/WmBjwyZUdZJKPP5voodvSD2z5YPlo41nZv5ptGaboDcB9AfgehhKb3nrNN61jspsBA3zaBlHwFoF4qsBhpwONM3Hr4S/f4zw8VjE1K4c7vYp5VovGC/Dq8NnyNg29wQVpByn4Hiya2r45dhTGUu9iltR2jlb8+X68lg2EnyGiYDiIBX0mBg09C6J1eSq437Xk79UDtVftS06bVHLNt8/fsmV7c91euf2OZfFlkI20k54UFtXC+hJPOTKd2DntHzh5FJekUGX+9MP9u0e3QmXwkjkWEkMjL5SsyL+iiUYn2427wPMcSJO42Bc4VY4tRHkAuTAbQQIbtZ240m4vGVXaWaPX2txT4/W7PG3dX3ActX47zOlstUK/vY07lBh8QDl51aelBqvVcbN0Q48Ud2PwKON/jDRCX9PSqR/bpBe3rOGrYTH+gyLI76mbgRNNrNRpyQH+9NvamfUHiFNq5UjfmT9rzJ7cYDH7ai9WPrRlf3zzasfeOCC81ehpKbbZoNrWji4ve707dcKA8AGIjcICHrnH1XVaumCplRSWZUqlZNFWudfVYhjK48ljrP/w+0LwxoIQyNHh+LqM0TywL3C1xvad2MF8jxhd2XlvrULe/n9Hr2GvFgmjdcpMTKk+J2jm7MXzdZhLOHpsbN7iGU/sMb10co6vHZ5G6P3bj8SIPqHANkfZcl1BMyYeWu6QCm1190Ath+/i80xJx/6NFBvqARQ53+UeUBifwQ0RayzdLppbZclW/lroCiilgmelfG7CEkXGP46c/aPLultvNC/R5IzzdKFxyRk3ULyn7CL39nU9DgsTcBfi1EjmyXFcOd2z+Koq6Aa5z/zFZuvIVEjBD2EBKuFAp/r43bL7XeemV+4Zfe8HZ7+01aj3QHpLSaMW8enBtOPd34M9c6WL1xWQK1C3tIm40NpReJop/aGyJLiHBevWYlge9UkA8SNHoQKmKEbK9rvz6auHxdYK1qlPrRIp/TlcO5ra8fKJ70qT5UEJxQEsP2dUvy8MtxtZXOafGVQtHVX05tF7QsA/ymvVI9ISty+q+pyjWplfea1MfHja6NG/VigLKzMXhbQTC/9wGLPKnxD1hGhJAdUzIHDhALhmrjflKSXiL55w7gsCxwFuZcrfX1+50nY/+dbx4Ib455Hr3Ti576RYn32QAQMHSi5UvYgwj4qFeAkxhnPSFjDftujaVOEsc5yVPWTUG/1tYYvK2ABtFXEuIXl3iRCIkirjXaN6RYjSnvW1fo+/bHN5YOC7Rji0MVWRFNHIcmgsyFWqpE3y2B891xCldr/MbRPsATtuDfQmJ1XRar/9E0N/gcaZgQyvzi5ItAyMacbo90F0631cY5iHGqd++CzUBqX6FQt7DbJ6W/fffS3SGpJxrCwGUFO47IKbot0EHiyWFHpqXe4A2zLHCcv9e30/WEvOPq+1EdM7jrmMGdZx+ypylyeIkI9gEb4s+xu3FCmjXtZVkQi/nS+dq4H6TU/T3fKPV1RfukNhv6CoW+gfyMGuUaEn9iOiKAXpbiGaedUbel0No44NzDiSbOd9lMJJGFcCMOgQYSa+sfyuQVu8ZN9l3YdP4vPHjHkIAZFYKQVNXCLeQTc/cVaXy1z5DNzXi1By31bTztm5I+vLdQ1F+b57CUMsdfEdlUkIVw22CZqL3t1lx11E5bxkoAgIJAA4k5LfPdLeo/XiBIN7a2BQlZnjOg8zXizzrXdUfk5BUkH6e8YQt1r9QKdVRuVTRy+fEXmlpnMHR5/fQnP8rJulf7SrFw7N572wwDF6SFtJC6yP/hszn6ehgjLJSdyiYL15GWr7IQty9/BbPW9RGKfWPF5sldH+/El/lW5DKjqFbNWeHW89z4m4/ZphskW67R82z2zUHHnW7qmXuqVJNvZcYTFUms9l2QwFkXDtff89IJA98qvjfa6Z7BKe4ZnFJ8b7TzqezbfsTwOZHQYOierYLQvgfVJELWTe4zSrumAACXws/0fmyRzYShu1D6F+31vVLbTU35eNajlq3tooibj6Iu4THr1vbB0pBlqHYwg24XMp2vTiqQ4v8dkNhSf8/jzbvvaM3ZjCIUKkKhrTmb8XHLF0H3SMLGYf2zVUkLEtKRlum6ohNyQkH60upl3vAnNT2Wp9Ia39hSyczyALHgbjQBTPe74e4/Pb96eZESqzt8lMlX3hCQUGyZLisAFj9CWAsRsjan7zO9hGKf7kgBQXta4Tu+sHjy4A5DDT/rP8Lozni5qfZNL9qvK6lhJrmGmeQXa0de0AFnulB9jwfchW+cr7/nNc6+7xSrMW4341U349ViNcb9vP2GUxfKHjL8iGchdllh9ZUsC9xxvlD3sceTStKGTvlnD3rDXUjZqmji8r3KPylJZTe+eUTn/ikczHv7o4x5vtCFv4BEFqGgdLrl1RRi+32Dibj6BzV55a5pADROYGoArD//10zI4LRPVwEJyaYsrBayUBi2rhNf7jMasDNR6sid9e0MLh9/1XVDhJ9901wVBA6I2RfTDiqF2GbXqoagFjAAADfEBq9FErz+2TpVMSSNdsiEDL1nVucxpoO6TzGUqtHzSF69jr+TWK5ToWz3tNvbO7/4i1DriARIHhxRnLthR88cohu8FklQ/ZTbDT6yhOQKX/8rnav2pT+tRp3tmF7+N2/4L+NvnD1ILPDpq2zMqA4VT9wYavnhYNWkfm85potOe67o/Of4a76IvfX53roEi7HCyYTgBnFq/cmwFTn912jLaYq2t0FIeuIdTAzcMAmCkAh5dOLE1FuMh3UPt46Zc8ncer3QCPG47muX++W0hdrWE0mMMR64w0Q8RjP1GCeZd430v04AZqLSk0Ezs3pCxhr23XqhcpoFghht0BkiISEN6v1wLCeJ1vkG6hNKYmmn/DM+R2cPjrs7f4j4ju4s4DDh50fYDOi6DhlUdTFBLZJjHStd/Uv+4xyWXb3+j2H752IMvs2GBqfCi/GZZwZ3QoSiX7sw3dnJkLW9L40f8fl4894hCbTOIPo0yE80nIHqW0gFM4fkpS+kFmImbp31XYVq1k13rhWPTkII4KFSK3HzXYUz0Y9atnZtqsfR99x911eoFlSoFjxXe1PQNARgIpRAH+sUrb0/33H1/aixcryYYdk+PJXWmER/dX5DINDZ8hbLsVUNJdUipBZSxSw6c0yBMF2+a8VjYasaxNBmgUExYcXOSQD8XoKgPdRJ/4jTSvRVgC0fACav2JkNIFufIvhbzxBEexiYyje7s6nm3tGk3hLlZyUxJEJCYruCWf6rDWfQihu031l6193n+W89madPKIn2GmaS6phBlpj+dFQdM8h1zCAXKnGO76SMyqdst/2gvYHwQFjgXxAwZPhHGYk8LOxyACyxD952WE6x1TKD3NDiU9v9usDpxtzTLG5Do7eFEG17B4z5U8KGhP+Up+gdB/2e5OE/oeS/VLBNNxZFEVdawAWKq8ki7AySJSJgM3CFwsgB7vzp3Z+UJPSveCoumEF6oGghYOf78yu+8bTXWd25Gf8ym4G2DeW51Hgvp/etQckAUKcYP2b3odlnF4OBTUf/OohbOc1R6i89Hc+GQgYQhurkkJw8bRQTvjOe9/JmILLhgJS2PXb0H3r6V8ZmwBywF8EQA6J5AWTwfjMegMIEFrCpFAWikZOBgPrZYTEIWlX7YSm1dZVaO6Whe7ESV6LC6EHXdPqRAfImUBSAoBwSzkCst7Akr0HX77PHYILrvHwEBkhIAJAIIBkE/SRwIxmUq6yod3LkYCK2S+3HA982JI4OYe2erc658vN7jHt1X2uzMxGWy983YpOx3DFg45SVO28ONX1Yuqx72u29+aCUpvM+8Fsgo1I1F7rBv+dg4kV14vidlHlqcoedo8LJExYhZC7kXkJx9+Nyq5BP4F5KlKlWtk9K/3t8miPTmCffZZY9aT/IqRtdTGhRZScDwU9K4pdXxxZ0a+ikVENo8ob/u9n9uu5nrR+WQEaYqJRshicunjoQTx3goSCKus9ZgVAXCGM+o2QtYrhz1y4EJxN1bvAAwAMeDohwqTxcEGBXRXjA44wahWrVVFKmWIs9jPt4IXt3XrCj1A9mZfVpz1fNTBZsV8ajLtNCPLFx1IlY6oDX1wsARFG3z5pEBYFNPTd8KKCwMSNqmAk1yrn/NmYsr2OGArsqfp8g2udPXfbd8fCfKvC/qHUVVTsfTmkAAAAASUVORK5CYII=;" vertex="1" parent="rh1XRBT-aMwfdlD4D-t0-18">
          <mxGeometry x="181.35833333333335" y="10" width="91.94444444444444" height="91.94444444444444" as="geometry" />
        </mxCell>
        <mxCell id="rh1XRBT-aMwfdlD4D-t0-25" value="Workshop use" style="shape=image;verticalLabelPosition=bottom;labelBackgroundColor=default;verticalAlign=top;aspect=fixed;imageAspect=0;image=data:image/png,iVBORw0KGgoAAAANSUhEUgAAAGQAAABkCAYAAABw4pVUAAAABHNCSVQICAgIfAhkiAAAHXxJREFUeJztfXl4U1X6/3tukps9TZrue8u+FQqlloKs4oZIEUFAEZ0vjtu4jDiD4vjFBQdckFEcFRkYER0WQUHAAUTKWqAtS1mFCrR0b7okaZZ7k3vv+f2BSe9N0jZJE0B+38/z9Hl6zj33Pe+9n5ztPe95L4JbAN0f+lu3/H5nhiVpjeOSI1pSlSSdqJFSeq3cLgeMFHKJAzQyymFzSBmKEVutjMRQ2aw7laprWTlgQs0ehIC70c/gArrRCgSLE1uTRjdaFc9FKa2399QbohWkIyg59VaV7Vhl6r4z9fFvzZu7+0iI1QwYvytCcAlI/nuh78eZ8dXTEzUmbShlO1gRbPulf83W85kvfrl4zbehlB0IfjeErF6R85dR6b++k6ptloSzHooRww/nBlR9d3bIC+uX/Ou7cNblCzc9IR98MjZ1WPyVHXmpV3q3V8ZgVdUQBN6rl1sPAQcXAUETcGAEEbQCBxoAAEAQAQgSAEMsEJBsoaUjRMDlykmnypdMu1MCK0ryLq8ouf3OM6sXXgrT43nhpiZk8T/GP/lIZvEniRqj2PNas03eWtuqXdUvuvZjlAOXg60DH4e+Fkr6BACeoyIdXuSca4hjt5wf+PT8uTtXBFtHILhpCfnis+EFswcfGU2KWEF+i11h1Mltz0IrbEBjgAlVfbgAxAZC+axMzCxUS2kBMQxHwP7y7j+Pjb54dyjr9IWbjhB8ENRHDGmnc5PLU/n5FCvmLjVGL+vXs3Ye6gF02Oo/CypTi3SBSup8SYQ4gn/tZG1S1cayYbnvvPRtdbjqv6kIwcXQq8GqOhijskTx88tbIivTIpvHoiHw63XTpQRuM1HybREyu0CXU7WJxsz46kSUDbZw1Et0XiT8wGUgxcXwJycWnfAko9Kk25Cma+52PckAAEDZcDRCbO9mouRH+fmZ8dXa0trEMlwCYZnthaWFrFx+25hopW2OWkaNjJJb1WKCjQAAsDikYHdKGIYlWqRitjJV13QlUWMSAcAIABAQgTGC8w1xH/ebUPtCOHT0F/gskHazZI1c4pzGzy+uTD2cM7kiL9T1hZSQb1dn3ZMa0fR1dmJlJEI4aDkcRnCsJmVhzqSK10OoXtDAGIj6feqtsarWe/n5350duGbK7NJHQ1lXSAhJmblIt/iOTdum9j+eJya6bhbaer7/p/fPOvNsCFQLGXAJSFrsij06uW2EK49iJbi0KjEvd0p5yEwuXR5D5syfE7sq/9+XZ2SWhIQMAICJfc6YQiIohEDZ4NQh271mSl7vypOJnEivsv6Aceh6mi4RMmnu431nDy6oGpdxUWBXMlJyW7VZ+yEgGAkMxIEc1CgbEIhABwCpgGAiAHzgZEUWX3KdLPESPg7RXdEtHEAjoFWjsN/HcG2/vO56Q/TmrzIX3Ei9AAAg59FX9Qc2ZphwCWD+X/1+9Re4FJT+yMAlEIGPwYdcsVAGLgFcuDHjx3A/Q7Co3av5lK/rlZ/0llC2kqCwbtXgMr5SbAnimvYr/xyMLFwMU5xFBMWXZztMcqu/yOkZar1DAXwENNZC0sLX990Px38QCtlBdVnLlo16buqAE90FghB+ST/SujQYeWgobBIT3P0cRk5XnlziQDIxsz0YeeEGygWzgnT8Lz9vTLeLj9wQZTAGdGZ7gvDXfESyLiSyj8ETfLmthVI87tkX7guF7FADl4LSdlhidenqLCLwG+/eldNVuQG3kOX/HPFWv9gaqStNs2KrnHQ+11VFAADQEFhBs+IdrrSKpOGhfiVvhEJ2qIEGgtXkkK9ypcUEB/3j6ud3VW7AhAxKrJrFT0sJZhEaDIauKuKWRzLPc4Dcs5ix3S4MCpXsUCNOY17CcW1jeYau8Y6uygyYkJ5RDUmu/1mOYIGFf3VVCT5QFpQZWlX/daW76RtFi/8x/slQ1hEqoCwor7OoL7rSA+JqlHPmz8jsisyACMEl0E0nt4lcaYNVeQ7lQn1H9wSDWE3rcn66n75mUqjrCBUYTrTZ9b+Y4GBCr7OTuyIvIEKO1yS/xk+3OuWHulJ5u6BhN82K3d1Whr65W1jqCQFSdC17+OkolXViV+T5TQg+DgkD46qn8/N6aBs2daXy9oDywF5UldrsSosQJw9HPSEBFm4L9I+t6YULwGvL2V/4RQjeACLAsFpEtL0YFhMADjja0X1dwboTQ9Y4uWu9Y+HV9MJw1dMV4IOgBgyCgVwrs6tAAw8FK9M/JjNgoWfFu8p6w70zz7UGW3Fn+M+ZYW/FqCx0nNqseeWnKa8B3FgftpXL8+b2iqqbkRLREqOSUnqNjJYD4nybSzAswkdgH8qFqkDr6dT+cnFn9GvdIw0LEa8kiwmY9NUTdduXLY8PtMLfI9b+K3vT9EElDwRyT4td0fyLIfoveQ9UrOq8dBs67LJWLR/2ebfIRgEZGCP4+nj2jv9fyAAASNc39gv0Hp3cFjkspWJl6bZE4+4NvR709z5RexfmvTPxhxeH753J3+MwUXJm9+WeLzz0+Mkbuq16vcGkTdh3oTk238GK5TKJwyECQBIR69f4G6tqlaVrm6cNG9t7ZurwMd8f2NlxN++zy1rw7j2LXxn10zyZuM0FqdKkq0rWt+SiQRA2F5jfEzAGBCcgCjBEAQY9AMSbKOlQM624J05t7iMhWK8fe4VRT20ozXrkr3N3+z87/ceyUVMth6Uc38hnKpSV4LPg0+Xy/+ANfAQ05kOKd+yHxZTnPo/pkIx7f8nY1zqXAgCvfTg18dedUSxfgGG/svz/yAgOuBAiG/YpV3tuwFkKSbx8+YiZvu4RdFlbv+nfdF+vM5GutMUhNapIui/KhtpQKTn11cf73pt+7vVeUYaesSpTpErmUHAs4lhMcA5G5LQ6SbvNKaUI4Bp0Curz7nc2fB+qum8UcAnkU07JWpnEKXPlGWwqbsHP99712Zsbdvu86YMPx/6NzyJXjDhcDKNDqdidf/pj78s/6b22a9v7W/7pCGMo67+RwEch3VJINvOf78jmVHvOo6/q+eUIgGt+R/n9T83lX0AIf4iGwt5QKjUu/crL6bomv8sjxEVo89+7ac3vgQDdBleUpGMUzYgpV95tSRWyx3MObOSXIwAADn6f/ki3yEa354jVSVqBgbdCrVTv6LrunZdqg0LiAAAU0pNSNxIoG05LSeY+Dtq8CB/OKhn9yCuzp7jSBACACOBV/o015ojFKBfMoVYoPbIpxjOvyqz9eVnh6Oee2zb14dpWjcB6LJc4PYv/7oEGw882mlzmSqulFMzOOuLeUyImv/xUzKD46l6uDJoRMz2Uho/CoYyKpBX8tJMVmZM0xnuef37vJ5+88e1/4jXmxfzr11rIrQcVol/hO9zd0e2Cdukno58FACCGJ196QC5xuGdbLXb5TjQCwmI0lEscMn7aSCkuoGxoawYI6vjXFbdgCwG4tr2gkdr/wM/rF1U7DwCASNM2DOdfiFO1bg2XInKSERBic0oaBQUQCNLyW7SFAABANuww0XK3y2xeypXkyS8/FUNEkLRwNw7ByXDpICUYKT9touVCQmho5idv1RYCAIAQcCxLuL0zlaQDRiZfeJKQSZ2Co2NAQGXYlCCwYCFqtMtaBAU4EDBwS7cQAIhUWHfy04ka0wRCQ1JCP1wH+HSADgUIhAUWUpohKUEBGgSHSm7lFvIbTvMTcRpTNwIBJ7RT2cNzdg4AAIGwhThZsbAJxAhjjgQbLuN3BMH593Rdk5KQiDihmTip/T2SrgJ5tBCK8yCkQUjIrbgO4QNlg4nm/ShVElpO0IxYeBDcDgqvO0MEwsOYSdEeg8RoISESgoVIhSVoD47fAxBg9xChktJAsBwhXJE7INLrrlBVjoRdlsUpJMRXmKTUCJPUM+9Wgt1Jup+ZYiSYuNAYaxWUwJB8vZSxsZ1PoxIjWmSdlfk9g2ZEvP/FTqLGrCnyKHPdvATttLRTQnRy6y1OiMQ9rtoZCUsUlPdazfAiSFSadOOvlzI2RtJp3BAtab+lu6xKs9btfNjqkBmI7R999kNhRYa7gEziHHe9lLHR0k6nUTqV7ZZtIdr8RWln6+PdhDgcolMEAMChqxlus3e00hJV9lPsdfE2tzKyTgnRkI5buIXIjMdrkjbh3+Y6AxOqPycAANafzH67hWqb7eplrV/ig6AOtzpmu7TTLktJ2m9eR+suwrj5z8bP397w4ObzmU+/tH3yapQN2wkAgNI1f9/5w/n+bhuWTm7T2kTkx+FWyOzovMtSSpy3cAu5hgceLf186YLvHwPgOVtvOp313OS+pzZrpNfMSwqJ4zF8DArREAhbJLUmm6JTQkgxE9Ix5KW3pmQlaoyvJWiMmfFqs1ZFUmIlSYsVEoaQip0ipcQhWIgqSYfIc/3kCZuDZDheEScn4ihWwlodEtbJijibg2SNlNxZ16qhWyhFrYMVHaynYpe8N29djacsd+VbP16+ZcuAoYWzsordEW5YDn2Oi/AVlAO+XVW6iCZa1Skh8hCNIfgskAXnev44LHnLOL5HZiigIB2BWBOSASDHSMmfevcI9PL0kBfYltaeys0/XZfgXhuIECYcWLQFF0HAzsadAWMELRYF21k5KcF2uYXgQpCfvxpbMSb9YsjJCBZamV1x0pC0xjNfQMh/ly0zbLmQOdXqIN15pIhV0Jz4CC6GLp/B5sPBioDhCK8YTgxHCFoNyxF9u1rXgZruO/pE18d1VU6okaZr8oq35eXB/frcHT8sKxy1xMHzFZaKGZUTiw4Z9gYXOgMAoODb7vP4aQaLMIDYa3fygiH2U346O7Hi9nUrh9wZbL0z5s+JzU68ejs/z0zLfgGABYBgOnAwHhBkA4K+AJAKJES6/wC0KBtQqP4AINPiaLNOYA75f8Zz+ad5nzqLCC9vwoZ96iJ8HAL61eJSUNbvUwkcjy/uiDnjs2wBiCt2R9YLy0Y34w3BbQt88NH4pwSBYnZHnrwRgWJwMfSyH5EIgvWsXTXE63x/uww9+UzhM58eHvmGiZILupVoZetQjkNnqvZEHMPFMAsXdm4dPnol9csYpcU9ODtYEe4R3ZDvqywaA0yjRfkgvzvrEWXQFeAeKzurxxdoBzGGnxYBtxshCD7cXRDARyHd6iQPy8ROjSuPYiSw50ovrwgYHTaZF17Y++Z3pwfccbouQbCLSABGiRrTYEDwFUWI6z775/Bl2vxFab5k/LS2b9ag+Oop/LwLjXHfdBTUckh+5YHjVcmCMxTDUssf/Xldn8Ed6esLMtLZh59OjjCWBiqjK8BFENfKyI4oSYeOn//1iaHHVrz9H68YMZ32YX94umjPgAk16pUluT8abCqvX5ZMzEiGJFU+DSDz6Rgdr2lZJxUx7i7CYFXaByRVP9VZvTm6ilk1Zq1780YmdqIYtXFnoN1NlMLi6Yp6XaPVVbbqdqullMBj81RdYs2cpwp9TpL8GlQQAm7OU0cmzN8xPf6zoyO2XmrWC2ZCFCNeZ9z8Zy9CDm1Ke6xfbK0g5lV1a8TLaCC492AiJy/66MuVOY96vmg0BiiLUzaNv+DqH1sbVbCx5xJ/dHZBK7MJw7kS4XPi8MTrf5/4TnJEi2DJ0ErJqMyY6iHtfbMkqMENY0DffT3oCYWYekYqZukxiWWjUR7YBWXOAlnTENGUoDa5nSjKGqOv9Lzb4DYt6yctmvz55PXfPdj/JBReTT8/4avn8zyJPbM9/r/9YmvvdqWtTim350LvzPsfKz3rj6671veqH9/tQtsvlIMclAPFAADq+9/t5eue1h/mXfBHtjZ/qRZY50B3hkhSytf/o49H25/P2ytcR2GYgIZCu9HygtqvvjYonvwCAL5or0zxr2nLhiaWu8lgOAL3iDG4Y19p85dq/zbmh1UP9r82803UmPoAMIMAhEcg+ulrH2qwqhpckwKlhCZSow3bACDdH12lYq/Dme7x8ON7v399dLeLD8epr+1i17Vq4L0Dd8Bn5gUS2PumHytIZlBu6pWCddO/hMlfz4ETdSlj+PpnRDZ6LmqLOiIDIEyRrfFxSOgfUzOHn3e6Pn4rGgznXOkXc3d99kLeXnf/vutin2PGzX/Z6ykL5YL5ilH/DD8vM7Ym7ce1fd/xRxeZyCmcLqO2YPozskry03TNIBMzIBMzkKZrhoXjt/kj1o1pmScgQmaHB/p5zxW0crswA3VMBkCYCCm5mrJDLnG4ZbdQCkdWdLU7ztZLb03JenrYgemuYMsGmwpvv9Sz3YDEuZMqVp2qSzjOzxuecvmvuBS8jjd4Qi5xCp8RhfbrBhnaa96wPaK8Q4bpZB4ubhx02s2GnJBfdsTfPSSxcgA/r9YU8Sr/vMn9fUq3xijbxtYdF/ru3LLk3+egA2Qm19xjpts2tDRSSnyyImlPR/cAAEhFjPAZiTZCNp3OWmuk5E0MRzgZjnAaKXnTt6cGrYUAunJXK9DKvf0LfbSQTo+PhZQQvAFEcjH1DT/MeHlLZGXfe2vdwTG/X535xqj0XxNd6SqTlpk1usjnIpEPNBAaKo06gfllUEJVv51r+3RozpGKGGGXxSPk4TnFT+hG2KMkORwpyeFI3Qh71FPPFs6EvW9SXoLaQYTs2kvXkN5f0HBd46HRq5AHQkrIXtTjgxRti3vlzmICWmzKR1wrY3wU9KMyfv0b/56SqpSF/n4PpP+E2qXnDbGCBeWQxKvv4hPQ7rE3idijhVCh7bIi5Ne4U0u9ORQhj5ktcR1bCD4K+sEJlX/i552sSSgYPKlyvytdWJWxix+RrrQ20TR59qk3A6mnT3T9OBvPuUyvsEqOXU3e0V55kmCFU/sQjyES4toOgspHC/H6IIGt84NQISOksCpjs0ZKufveVlrmHBJd5Q66cm5nwvjclCtu0weHEVxujgo41i3KhqtlTTHv8/MGJ1Tdtn9juk9ZXtNeURsha1YMXd9yUM41H5Bzc9/Ob9VNeL9/oPq4WoFY5L3O81rkqTv/gGVICDmyKS03J7l8BD/v1+boD1DetQM4eAOIlCL7OoL3izlamXrygdmlgc0xf8PACVXzrxoj3T4ACGHooW9c4SvihITwIETSRsiDA07cp5XZkU5uR/NH7woqWoWrFRA+7JVeLcR6nQhRy6n1/KhB1eaIxix7pfvbH4dE3Zbyxxabg8RV1qjpECQQAq7WpJnm5ETuJ45Tt8oO/ZLhFQlb4tlCFLwui2f1xR1vm7cL0W9GacJ7rw0IT0KirwMhO77p80LfmLoUfp7NKXscTQMWAACXQHxWQqVgYXeiOuk/02aV+GWeaA+5U8qPnDfECbZAh6VcGXn+x3j3ZhbeACKRZ9S3E22EbDiVtc1CS2kLLaW/KBp+LBg9XC/dl0UfeXJs6pyQLrn647NAVtfVLuLnna2PP9l/Qq27KzpRk7wlK6HSPZDXW9TU8MTLT3SlXhcye1b/sa5aPTFO1aoDuPZyNDL7RlwG0agH0JAB3g4SU9teyuwniqfPdl/Y9dtfYHCNISIf307xIulymFvIj6V91yRGGN2ObDQr5vrF17rXFCe2Jo0eGF81lH/POUPcAk9DZLBAPYA2O5SPYN5zJ2iM6qLTqV8DAIADfDlIhGW30Kt78pU3NYyErP4ip+eo9EuC0HXnG2LXoMFQ4UorSfprvlIXDDFVY6eWvRdsnb7Q6866H38xxAp+2oOTKh88viV5JJA+Wsje8JiLPF8+xsJ6MEbYn53KoJXrrm9cq5TQ7vubbCrLoPhq91ixe33vuT30BveKnOEIMNoUUwOt56337rloPiR1mg/JHG+8e4/PcadPfP1DLXa5e2UmJjiIVrVuBJGPOF8xbc+86rPcb6oLNHa6SMTSRSK2ukBjn79o4i8wekHXT215EM9ynqtE3wiKkE1fDprAX1MAAFBO8XOujy3iMpD2jal9m3/9eHXKrmA+nvXi8IJ0tZQWq6WU5M8jCjJ8lUFZYLTRUsEuZFKEMbq8MfITr8INbc88c3DJpAS1WUYSLEESLJGgNsvmjvjZ5x5JwIgRvlv+BwY6QlCEdNcbBF3R5WZ9edI445eu9I9F/VbHq03usaXZrmByksunQRDgt/GOpqZJdxhXV5m0gsNHabpmb/ch9XX6mGaDByHhaiHfrs56PTO+2m07YjGCDH2T+/jC8uV53UakXRJ+hLEqdQnKDm4v+/0Dd9SYKDljouTM+/vHdhiAMynS+JCD87Fk5kPe9szrT2VtqDZH0DQr5mhWzFWbI+jF++6s6Oh2v+FBPPazhQQEvAFEF3dGOfi+RWU7Yjbzy+zd0KNIcH1ndMP19IOq3adZ1mGkuiOg6VyKf9Dmvz+aL1ub//5o1zV8ENTCrwWRfgX0CaiFLKsbuamHvtHtNGB1kM7uUQ3uncHVX2TfMTztknuay2EENgc543r6QcUpzfNaaWn7oQHFQLZ7LZSQCd+t3enD+ugDfhMy4tmXek7ue0rwKYZai2Yhym6z8feIahSYUAor0o8PnFj9s791hAIoG2xqkm4/0DMXuhbSISTCKTfNiENLyJzMgx8laY3u8nUWdUN3SePfXem3379r3rCUcre9ykzLuBFpl+/yV34gWPuvId/YDpN2ayFp/8fHo37W3rd4oKBANqyxMxLfDnHitpNha1YMXc+XE4y1t10wQuJtnnFd2oFfhLz4ziPx9/Y5J3i5FloxB41pswuNySgTfO3yZH3iMn7rCSUmDyidJJc4ZArSIZuVVTzW8zpCgOUS5ys+b+baCHlwwIn7OpLTRUTwE3anf4T4tQAaEn3x0WiFxT0wX26Oqu1xV7070Nkzr09bOTx1g+As4MiUSy/gEhB0HQxHcJRTwlWZtbavTw6t+efRkTOMm/8acHwuvqmk3anwYNjpKBZdJglWuHbBvLOTAVh7P1g65qeZWceH6xUWKek26f+lAyWFLaTJpgjdoK6Q0gLvuyZKITBzj+t+YRb4ATHBESopLe4dXa95Ma+gd7ARR787m7W5yaaEJpsS3tpzt88yCAEmEesrxnqC658Np7K2dSbHhT/mFI6OV5nkpOf+SntAIPDlrTZpW9oryodfLaTFphS4Y0oILLhvXLeLAZsaSHGnh6faxcP/UzQLADx+BD56KARXPLPqbJpsAPNKAIDZTxTNAIAZwhK+f/UY/PlAPHbP7sy0YqCGbPNEudQc5RchfrHdZFfu46dTI5ru5H9naeOZQYsPX02ru9wcZTVRcqeFljJOVrhjY6GljIWWMpVGne1oZWrz/J0Tz/IfIDAg7P3nE6meGTKCGRmEHFhRnLf3XEOcuZWWMu0tPvndL8WIBGNunVW3pZOH8h85j76qr92rES6wjsFN9QF6XzAfklX5XByG+HieJ3AJDGCKkfsLE2W7orE2f6lf3bNfLaToq0VNh8ozBF53NCNegksgpb17bjS+Wz3wPrWUSvR1zeKQbQ/0FJi/wEUw1OIgC0S8o9T7r3Rv8HU6wBf87vvP1Mf+YUJvyVGZ+JrzoFTESEtrEwu1+S/396wMl4DCay+ChQhw8n4AGMT8NcFveXLgPDaVRKAGzNMTAQLw8sOSAG4ztZ+rj09ooVsfa+9ZVFIqimWIU9RRYptUxOwCDOUA0AgiqAdxm4clygRBv48LQQ6q3/SjQAoAegCIAhHEAsAQJyMaixGbreKFJrQ5SCisyJgJcLg9dQQIyMa0btXgnx7KPC74WpvVQYLy1o+NGDRWH8vZ8diTRff4Wz4gQnABiE9ZEysy46oTOi9986DZpqhUko5iliMmKkiHpPM7QoOjlWkVt+WXZ7R3OMcXAjIuojHAZMZV9y1rjOnQMfpmgcGmwidqkt6NvN2WJstlpihkjsSz9fE7KEYSVmMnxgh+bYraf1tseZ9AyADowob/xn8P6X2yNuF5J4fGyElnrELi0EXKbRApt4GYYEEto4EADBoZBQiwL8djiJBTgHDH78buJIH2+L6WgxWDzUkC5RQDxUrASpPgYMVQb1WD0SavMVhV1Q6naPuyzI0LXe5IfDwzf+qgjOiW52LV5sGRckuaUuLQ6hR20MpsoOH56KpltNurhMMIzNS14YPFBJhpGZgoOZjsMjDRcjDTskYLLS23OsnT+gjroscfP1oW+FsF+H/SIEjDga13gQAAAABJRU5ErkJggg==;" vertex="1" parent="rh1XRBT-aMwfdlD4D-t0-18">
          <mxGeometry x="181.35833333333335" y="170" width="91.94444444444444" height="91.94444444444444" as="geometry" />
        </mxCell>
        <mxCell id="rh1XRBT-aMwfdlD4D-t0-26" value="Operational service" style="shape=image;verticalLabelPosition=bottom;labelBackgroundColor=default;verticalAlign=top;aspect=fixed;imageAspect=0;image=data:image/png,iVBORw0KGgoAAAANSUhEUgAAAGQAAABkCAYAAABw4pVUAAAABHNCSVQICAgIfAhkiAAAG3pJREFUeJztXXmcVMW1/qrqLr3OPgzDgGxGlLihogaNolHj+kLi/lSeJqgQRAUXcMvMIApolCcQxefTaIgbiQkuMUAUyIsxBMUIcYmoLA4zwzD71t13qar3B0z3vd0908v0gPLe9/uxVN2qU6fvubWdOucUwUGA/MvvHW0EP/oOtLbvcbV1OJhRIWikWCphL5HEJ6kJySImEboNqXRDqI0sUrhFeluftvW6taiGONC/oQfkQDOQLZQ5QyfC8M2Qavd3hd5YKpmZFR1iBUJq9/A/M6N8bviJtzbkmM3M+TnQDGSEJ6Gq/xq72PbVXiHV9oKc0pYMStuRdZ72o2/tenb5b3JKOwN8YwSizzjxDivwxQNCb1EHtCGhQGs7apfWevwtXcv/+3cD2lYSfO0F4pl+5nDbu32VHdh+eG9liB2oI5DrhdL9V0hsBUMzCNpgoxNAHgCAIR8SQyBRBoJhxNZPBREnS2oFktIUKrTGCds8Ld89p/3leV8OzK9L0u7+aigb6FPPvtEqem+p0NqU+GfE8nYyu+AZ21O/GNXYlnUjlRgLoV9PiJwiqZkgHBYezNX2Y6ZFlq1+Kus2MsDXViD69FPWGSUbJoJwVz6xfW1SCU2HxApUw85Zg5VQKPdPl8SeJ5nhFoykUDoPfdsObj03p20mwddPIAsRZI0j/skDO4a78qUilEjpEruifjZuhjFg7VchAK5XglqzQAR1PmKhobu0ju+cHF72m9qBav7rJZD7MYZEAu9ItavEmU2NohqhtZyJanyx33iZi5OI5X1DsrCLFxaqaOPe2gpUIzQQzX49BLIYOlpwPcAeArjX+YiahSvE8NarcSOs/c5XFfII966RLHySi6dQRZ0YXTtiIHgaEIF4bj7pDE5CU4QaOQ20OygpzwcAwnUQodoQtBWM13C9ebtU2xmAUwG4vkRIAsUYvNheUH/LQPCYNqqgQarLQazLnNlK1/C/2T/fOSHXzeVUIPqt486z1eZfc19NEYjsByUCpfuQefbDO+/LGXP9QSUosYOvS7XzfGe21nLMcnPx5sm5bConAsm/YH5haPQrb1iFH0wA6b9aSG098nHrsY+m54C13OFJqKTGt1YqoVOjeUKVaqRigvXQjpypXGjqIn3DP2VKWfeYX26zit7PiTAAwCr4qD0nhHKJG2HJYOh8YnsbonnUIpx1v4YcjjT9EkjguuvGGvnrdtl5W116JcK9IWoVPAqK06BiMIAgqkAgUQhgOCQuAvBzSNaVlLCks/AgSvvD24BgNjqlEr4Qkka/PKE3lmq3Hl2Zqyaylmxw8l3FodKXt/HgtjxnPrWDT4n8zpm4A90piSxAPsKoBDAznhOlc9Qf7Ue2nZ+03gEGvTfvcaF0TIumjeJuMb85CKA/E+deWtlWNApXb3ALg0hq+2eJeZ03pCUMAJiDdlRjFigugaCuzR737TpXn3XiYdnyN5AQSsccwrXobxR6s1+fevbDuaCdlUD0aafPMAv/cag7V84S87oXZcVFJV4BEf8GkOi6XjKTSMv+Q1b0BhpV6JDM/Jkzy87benUuSGcjEGLnff6wq3cK9WVU4T/7xUk11oBI18rKKvj40OBVt1zYL7oDBT+eJEKN7ta5t6bMO/X7J/aXbMYC8Uw7dS731unRDKF0w2PN6C8jAIBKPAWprOpJSmbAyH+/Kie0c4070E2495lomghwT8Pd/SWbsUCswK5rXBnMno+70dhfRqJQ7JvhWD/beZ8dmzPaOYZQOh6BjK1GuNp0Vn9pZiwQoe8Z6qjOoeC/+8uEC/fhc2IF/hhtz9PE9Kln35jTNnKFauwgVnBrT5L76vz+yVce3R+SmQnkfoyWSoj1JInl/wT3oKGvKtlAap1PutJ63Q9y3UauQCRbGUsIWAUf/7A/9DISCOscdo+rsvT+tT+N94og3oJQYsOWt2X0gLSTAwhP61pXWuu+qD/00hdIFYZwX+0Vziyu7nmlP433ilkIs+7hLbEM4e298AEGdZ/RcG/dGFQi4cg5fXLpYAUYgOdcL0ZSwIe/Z9twKnhajl8OuXd0VLpGvjtQ7fQLCxGEgGsilywcAMXl2ZJMT5KfYB7gbljtOBxW9Sed2TacCmrrd+Z61S5DKB153rqL7zFxYG3Y9BkTbuPa7iuF3jpI0kixVAwvwiK56kliPqrwZ1RhV6btpNRl0Tml9wi9cZ6rpKTwf3H97u7nnyzPtMFvIrQZJ7xiFr//o0zqENvXQo3SO/jDO59JXTqGPocsffp3lglPU5wwCPSmE1b9XxEGAAi96duZ1pFKqIj7dz7N7qxo024bc0m69XrtId4pF70WrnjzIqcZDuFeW+kaNdNa9PHSTBn8JsN/7VVH2Z6G1dz3VSn31tughiqZyVLX3AdJoHaO2aqEjjozlcVKUoHo15+3wCj/02zQmAkSNQt3CV/rybgXA2YC8w0DwYMoAUcJOIpBUA5LH0+F7zyhdRwB8ASBUbM4orSMu9pc9lavq9MEgWjTTr/UKtnwsmRG9Bnhnk2SRSaiCskPlP4fblQhj0rfbCHM28Bs3fmIcI/UGyfcF1m29oFkVV0C8U69tMIoWPeV8DRF5xZi+3dKpfvI/xdGFqhEEeX+RYJ1T3a+aSI0qC0nXmUufeeF+CougSi3HtlsF3xUFKuot0ndGIt7UJ8rHgPXXTfW9H9yn/A0HibU9iLJTB8kEZBUEMksCC1MhR4BxB6pRZbxB/b8PldtHzBUYhKR6ouSWp6eLGIHhK/h/O93P7XiLWfRqEA8N555b6R87f2ORxJSnolqrM8VX8Frbzi8u/yVT4XenFZ5bc+p7ebj7+TWD+RA4X6MJKa2STKzsCeLdQ+P+Br+fWjnr+ZHX8jeoakS1CzacpuLgJSP5lIYAGDp229PVxgAACLyCyY99LVVv2eE+7BdqubpEEqkJ4v7d3pM/19+6yxGAYCFRl4t9Kbol0i41g2CubnmiXt3H5q6lAPUBEAOjh4CAD/DP8HsC+GwIjRL3p8Y+I//uLgnTQGASNzlrEfs/AWoQkeu+ZF686D4PGIWvK3vmTjDW3PpVcTMc2mPJd3/5rwDjkq8Da4t6UlKFkGkeEP0TIkGrpk6iHtrx0QrCMUWBY2PDQQvgho+dwbrkMPbzjMeX780/PRvXpBqxwLnY0mzc+T82qPQmOM0uLPzPivQp0+cDgDUCnz5I8nM2J7D9q7GbAyI0lBS0+NME+H7zGVBTrDbVeFg7CEAMAthycI/dmYJvX42AFCh7TnF+UDqna8PGCPUdgmECrXJ9VzClT5oe8herCLcGzWZtQPbhwWumTqIghru0ziCDweMBeLetUJ43QIhaHGlD9YeAgDVEETSN3uSkpqw/Z/dSAWz3K5jAjUDxYN0mmgAILan1VUgz+0Ac5D3EAi1e7UzzfX2CyhoxB9XbuBUJFS61f1Ci7jS7XG2sQdzDwEAiX86k0JpH00BEedxOjC+c3tpu3sIlYq7CxB3zJGDvYfAA5f/u9Sb/VRS4VYTFyN9PX/GiOsh8QKR8QI5yHvIHLRDxN6BpIaXEqG4HcG74UuomCuQOHU/V+O7gNvjh3BIrStrC45vBIiMThGSGaCQ1L0jt1GUUClniJvUZZxAkoRJklq7Hp93MIEITcT+r0rKjDK3L4eNYfuNm3iBJIFgrZ5UZb7RcM4YUrEoMfI2ugpQ7DcrQcL1lAKxWfdBLRAi1dhhoFA51SJjnnPOtTRSePZ+40aqqeOGsPDBPWSZBTHjQ+FppJ3PPfGa0jUqmieZ9b39xg3XUy6jpBo6aHtIwaT5I1i4PCoQwtkWCgBK16io2lsqXSXsnrL9Ym2uwJN6XUvNg7iHeNpY99BXetY6PFC7jAKA1nrC/YTHVruCdD6LhQgOOD+WnnLIkiz89TW07ifaVs5sCz+74hK14+hpvpofPodK/IECQMeKB1errUdGdVhSCRUgpC0eaIYIUg9ZoNZB3EP2wlq0eVno6d9fCziMrfWWcTOswi0rJdunXiLmtajGu6jEgEVSIxFfSoEIYud0DvH95OJxXG27R2ptRwulo0CyiCKpoYDZVBKLgZqujeheC0XZpw004ZrtMuCRTECqnAiVQzJBuMYJ91rUzDMgffVEsHcYK3sktPSlunha0cY7X3jyVXXG+Het4vdiEW4EWYZKuR3VeCu+Yi5AZCB1D2E5mkOqoCmdh70Z8r/6PadFZi4gmZlUm9BLFIFhAE4k3DsVVRgTbyHv0i3pXSdPYqEhsb0BkRRgr2IuMjY2TglJQCI+nrIYeP97yKPw0nDZTju4NefCyBaShX0sPHR5fL5LIF2/XNKodx59KRFaLJNwH2xlA6rQbx/sOI4AShM/IuHWKBJJx/a3KaX20FXC2zC4v3RyDaE2J8TbSuhqoSdWvabfcPYjRvna26KW79QOQLK/0ns9d2YbrUG5/dDZtsP7i0gmASXhdFIxyh63vbGgZbZ/53f1GcefYyzZtCabdv1TppSFfL/6rjOPcM+/JIu8CILPINAMhlYQhMDRDd1hT0AgMAe5i0w0F0cRS39fMmPfF08S3EF6naz0aRMeNwZtmBYfconYwfck67wW1fgkbUYehp+0BZql2hWdD2hk0MdiwZ4jE8pWQqFmUa3QWwbFypa2iuMaS3EZUg5xib/j7KlG2Z+eiNIyijaL+S3jkINAMRnhfowhlrpRUisaH0ZtPb7JemyTK+pRrw47xhPv/tTTcFoVsb0uxqXSOR6EfETuzt+EalyDytTaYdYw/FmnMCCYFPqeSUkLV8Omtv8SiNhwJjyNherfvvV0qnaSgQh6RlzGW9j/whhJTO1vTmEQoUJpH5MQAaNPD6rIsvXVettRZ7HwkLhTREmk1n4cJH4FoezWbzplScGk+SOS0VBnjR3HfbUXO/OYMfj5viKM2g/X/IWFhrl8KOzgjsnqrUcc1xe/ySCJdYQzLfS2zZnS6BeqMJiYng1Om14AUFvGbwo/+8JL8cVTeuFGlm5cyz11Qb3x5DeJFUj8spit2t6aaYCnLVl9rra+BGrH7L4sf5iX1E5N1S7377yGmgWxwxtqEa61rUaGMb6k0uU2RRU5nBPSADUK35Is4rLYpKGKOrP43aSLpPTcoqshjF9suMDXcEW5vufU12mk2LUSokJ5qW3lzASBsDtGXCu89a6YV4Tn3+6Mp5X3g/mPqbecOBnxL7oaEQLPZc5s4asvUW477JG0eO6pw0Lxwfv3m5+Lb8pFDwi91bVlINwTEb7a43u7syTbiHJEnXns9RKRn4Jyw674fCJmIewqUQWNWPnNUm2PGlHQcOl2sbAxqlouuHD+D7tHvfw7q+hDKF0jPw18cfOEeMGyO8v/yH3150YbFrpQOw8/2ly0+eN0GFVmjWmw8z6LfaEUJ+JneA8Agv+2cEyyOp2vzf4sHdoFkxYVgFvHxJhVNzv516dNDBtl6937KIkLUI030QuyPa+W1qIP/wvAf/VWgIVGLOG+HTGLFkGl8DRGY18VTFpUEC5/7RmraO/KV6jtRwD2sYDbBYL76i8nVmBPz6JAUoPaWuMbAEamxSjl8aNAdD40hv3+Pjtv61VC3XuKTa086LvPAiZWqlhfncYO0j7WCm5fFxr9LPxfTIESPuQMJ/9Cb4rf1G7sSxhADqKSJkUVhghP3RRnFouUv+5cKhula54wBq2Pju9K+xGb2lbesT4JrQ5qFv/UmSW8dSO0mWOT+uglgFhuKxoSC6ZvFr8/SegtALUBakPoLYhUvJEW2R5YRf+AZGFYBYlrBam4Bw2QvoUBDJBAlO5DVklqxo4muc/kvtponC3fTy4eFxn0lyt63CSIFZBa+LBeAxLzh3c+Q0NDPnDmWYFtd6IKCe4NCaBW/G/Mqe5EaHutYbknMWSYZHGLU4GUw2zOBaLMKT/X9tUc5cwjZv5dTn8To2Dz61KNza1ax9jVXb/8ZZ8bTeGrO49wjyMmY0RRQkPX9lUHACSx3b/R0UP01nEvEtvbDEEtCGoR29usthz7IjIYynt6gVQS7Qsli+shFCndx3Jr87QCTHwYed4ZZpwaRTViYX1U3aLdenSVGdxSEX1uFtjGtzYm3yQ6UYU9ZE7hbMnqH+3Jsn27vq3OPGKmtejT3tU51I43/IsKxFjy3vUAru9JS4Rh4l0A6ce6ib50mniDRoJAiNu6Pym7abecBpSN3/q50FpjO3dJQYX/avTsjB9EsRX44l5Xna5D5qV7H4hYUL+IhstcG0rb99VCVKJXt7e+ekguIPe5DEbPkVxtxa1sReoekjuBPIhi7q25yZnFQkPW2Qtr/qcnrbSMWuOMSMdCFe3m4i3VmTQjvA3fIzxmXCbVblUJDVvVew3uXtrnWCDYp16TyXpIvIbGm9oRKmcCUZpHrZQsEh0Cie2xuG9XNOiKcveQs+3Adofqg0AxSjKPdVuFr5g1yBW02PbtOondPjI5LRK37KUxgWgzxr9M7vUKco9XeH4yqbPwgocTlZ2p0NML0ol7T1NfYJkTgah3jjjZDuw41ZnHzNKfo3qfA84KMIHwS06dntI1/EPjsc2ZrTH3wdZ33U3NopgfC5EQetNTqELijWvx+xDmWPYW/uNCqYSJVMPEKF+T9La2VIj1giT6yvgrO9h+EggnkZedXwix8pvsE2qid3+wv49e5JxbCNckoyVXIFtUQzA77zKARX+xVDs9SteohEjYCRtD3TVkOd5YlkqLnpee9L6UuDxlPwhEnXnELcK7+xAXUeG5Lnp28QDKhb/GtbFTQkNfMB56Py31RG+wHtqxgYUHu45A7cD205Q55edEM1aAAXFR3wY7hqyWcW8QrhuE64beeMqm7DiR+/5OQ6OvpxZI/5a9VdC4UT/fmUVD5R/yh+qjQ5HSNuxV21/jCC0bjFgV265HDsAram8gDcGLpNq5T7UtIWj4t1iMUtwMAx9DT/jwL4u9FHPpe9FeGsEaRJDFoWRfc0h8rykc4B6ito9dLvQ2h22qIkRefXRPocwZOtH27xrvrMMigysTFJHZ4mYYVPivdoWh19qC7Kvhv96XTDSQqBygi9DSGbIuG0CB6LNOPMwOfukKXcciZctxL3b2pAUxfu1kioYH7bIf+fyhbNtMBj5/95vMKHN92txfc4kye9hp0JDMhGhg9HfxL78yvh0iEwslIushi9OmFyU1HHG1Al3cWxudK5TbDr/N1v8V3ZFDUjDpuzTTS5E8N5y31ShbOxKSSL3hjO2Rp/6YoDLnesPlxPbWSyW8t0cQAUE7fwuBUxIIktiL0qaf/LxV8MmPpNKt7f0NflNvOH1n5IvjjkxP29sn4hxciUjn5Di7+0NuPfYC954CoEKZEb1scTF0odff73yuhA5Zk83lWUbZupGSGYpUIqoxeN2opIWq0Ua57jqFFHpbKQkVJcaGlLHfbBa//wOpdnhAOAXhVKodHmPw20nPSDIGSeghaX2LWQnE1hrdQ5FRvIM/2PZsT1rd9u3nhNYeM7O3fbZdvOMy9Bu9D/98fttzzCxwOR9JveWcJEUHaMiKg4xrRw6QQLRbx93HfbUx3ZEkEHpz1H1BnzFhtB380vXyWdfwR7K1b9J3n1VHuNcm3Gvr9Wf2GYCTq22XQ7K+f7hzyGoZt4Ka+QaEIiAUQc18w7P7nJ19Vc8ArndL0uwhmc0hK8DsTTWuyx6ZUfoqX7BnS0+aa40vShaJfsrUKG20//NTV/inTBB56o1opIkIUtyAVI0d9B7/40LtuKmPUrEha+l7PwYQDQIj0I4wVgJYmaxeZvCBudaShKRlU5ZRD9HXnvaK8DZFjQYI1yyu74meDOozTjjLDnzpWOYSUK5dif1oByWUjtmE60ktYAAAElqvz3KJ+CGLa2lptNMWSHDyrMOsoi2uqxiInTcP1TEdv603uVQoSsfID+yHat9Ot42coBohyYy+7s/N6+NZ7hBxL7mJUHIrEDP4zmNCa4stc63gHqE1PdiT9t74/dk8sMOhr/IIO7jt++nSzwTaTcc/T36mhcl9WlifevrbBRcuOMZVoArLIdTkBnEs5hmmzRj/spNOVtre3iDjBC+1JAcmiUhLIL4bri43Cz5xvVwK3xRUx/RCVvBz122XLFKxxNl7cgmzaPMPJDU9kpkes+S9M5MUkSDWnKSVRUwgZuE/LkxBJ3sw5DuTNE2BpDWp2/rWyVLtckzUJfV8fkM00JnvusueDgVWuHwBbf+Xt6AK7qFDUkGEKohVENKax9d5Gk+7sm3lnZnH53LNSL0shauxGpVsGwh3712Iy3cybW2vPvWMP5nFH5wilS6954ylDXf0xaO7h9i+tKL0pTdkESPO+s7nWu5YeZ+5b27rlY6gkhmK8DTkGYPWHZ5txFGtbdxKYvtBbD88def2VkwCPFmM9SFROi3j3kiDDgDALH13olTbvQkHXr1BwGXLy8yC1t6KOpHespf73eaYRLrq2cGtmatgaMaeBVGYSzZeA+AaAAjv+wMkGaEotsev76iZd4JAx9MAYC7deCWAK910evvq07kgXkZXdxS+Y4Qj0hWNlKQlkLSkTYT/z8600JrPcd6zpLYdu4B1jdhNjZJuYnstwnXb6U4AAITrNuG6Tc3CEOse3uLdddHHzh+QGYhM/JMEAsPjsyS1T8uYDgCtccJ6GhncQbhu97b5dA6/kjPXnMtk4aspfxbSPCYLTr6ruGvYL5qk6ggcRHATKvGLdOofKJD7PLski1QkeXQSqrAxSX5uMBdHQZDNPd671ChF3qd3FyYzSI9HWj2k81fzm5WuUW6rO648gioc0kuVAw79lmMu7EUYIMLzB1Si376LSTEX44mlrXO6Uqudh+5JRxhABqoTxSj7sS3Uv0ejvFFbZ+GKd4OTbj8yobFK+OCJO4uIIB/uD0Bx7gkAAAJeyLhDJYqgi08JAsTZYRGoQMzAQQmXD7Gtzmt7+y2SRkoAugVV9A3AXgOJHSBogoIGMEdE77vgHvcfhRfGPv4M6KAoBlACgTIAx0OyM8H5CZI5HJm5BiU86t8N/K03duJ+SgZQbz7uT1bRB67b2ojQDv7YiP2A3njiKuMXG89Lt3xGuiyr8IPzaKjCFX3gmyAMYvtqIJXfEa7t1yCOrHvETqNk4wWZ1MlM/V4NWxTVjqWRQel74B5AECsgldDQhZKFRqDavlh6zQoWKl9FhDqwyk5JwCIl/8PLdxzRm6dUb8j6wF+76fjDWWTIzRLkDFCrTFKzULLQXitwwiGZAUDus3mViYbH2GcXK/t+N0Ro6Lnx01ERRGggQgGkCsK1vXl2ENTy1hE7UEsE+0Po/N/OS+ZK7b/20mO5p3WG0DqOE7RrBKhZIJUwpBKCpDENh2SG46CPIBZ2hYJwDwj3gth7/4X0NBGu76C29k+pd883Fv/98wxeZxT/CzWEw4mf49DDAAAAAElFTkSuQmCC;" vertex="1" parent="rh1XRBT-aMwfdlD4D-t0-18">
          <mxGeometry x="25.052777777777777" y="170" width="91.94444444444444" height="91.94444444444444" as="geometry" />
        </mxCell>
      </root>
    </mxGraphModel>
  </diagram>
</mxfile>
